<REAPER_PROJECT 0.1 "5.35" 1554143256
  RIPPLE 0
  GROUPOVERRIDE 0 0 0
  AUTOXFADE 1
  ENVATTACH 1
  MIXERUIFLAGS 11 48
  PEAKGAIN 1
  FEEDBACK 0
  PANLAW 1
  PROJOFFS 0 0
  MAXPROJLEN 0 600
  GRID 3199 8 1 8 1 0 0
  TIMEMODE 1 5 -1 30 0
  VIDEO_CONFIG 0 0 256
  PANMODE 3
  CURSOR 132.6313380000056
  ZOOM 9.13579078940043 422 0
  VZOOMEX 6
  USE_REC_CFG 0
  RECMODE 1
  SMPTESYNC 0 30 100 40 1000 300 0 0 1 0 0
  LOOP 0
  LOOPGRAN 0 4
  RECORD_PATH "" ""
  <RECORD_CFG
  >
  <APPLYFX_CFG
  >
  RENDER_FILE ""
  RENDER_PATTERN ""
  RENDER_FMT 0 2 0
  RENDER_1X 0
  RENDER_RANGE 1 0 0 18 1000
  RENDER_RESAMPLE 3 0 1
  RENDER_ADDTOPROJ 0
  RENDER_STEMS 0
  RENDER_DITHER 0
  TIMELOCKMODE 1
  TEMPOENVLOCKMODE 1
  ITEMMIX 0
  DEFPITCHMODE 589824
  TAKELANE 1
  SAMPLERATE 44100 0 0
  <RENDER_CFG
  >
  LOCK 1
  <METRONOME 6 2
    VOL 0.25 0.125
    FREQ 800 1600 1
    BEATLEN 4
    SAMPLES "" ""
    PATTERN 2863311530 2863311529
  >
  GLOBAL_AUTO -1
  TEMPO 120 4 4
  PLAYRATE 1 0 0.25 4
  SELECTION 0 41.76778126458333
  SELECTION2 0 41.76778126458333
  MASTERAUTOMODE 0
  MASTERTRACKHEIGHT 0
  MASTERPEAKCOL 16576
  MASTERMUTESOLO 0
  MASTERTRACKVIEW 0 0.6667 0.5 0.5 0 0 0
  MASTERHWOUT 0 0 1 0 0 0 0 -1
  MASTER_NCH 2 2
  MASTER_VOLUME 0.29129205255396 0 -1 -1 1
  MASTER_FX 1
  MASTER_SEL 0
  <MASTERPLAYSPEEDENV
    ACT 0
    VIS 0 1 1
    LANEHEIGHT 0 0
    ARM 0
    DEFSHAPE 0 -1 -1
  >
  <TEMPOENVEX
    ACT 0
    VIS 1 0 1
    LANEHEIGHT 0 0
    ARM 0
    DEFSHAPE 1 -1 -1
    PT 0.000000000000 133.0002416171 1
  >
  MARKER 1 41.76778126458333 "" 0 0 1 R
  MARKER 2 79.39459260833333 "" 0 0 1 R
  MARKER 10 86.616384 "" 0 0 1 R
  MARKER 11 89.52056689342403 "" 0 0 1 R
  MARKER 3 176.53257403541664 "" 0 0 1 R
  MARKER 4 182.68387865 "" 0 0 1 R
  MARKER 5 195.62652431041664 "" 0 0 1 R
  MARKER 6 213.91596476874997 "" 0 0 1 R
  MARKER 7 229.86706361041664 "" 0 0 1 R
  MARKER 8 246.56910093749997 "" 0 0 1 R
  MARKER 9 1153.2338072104167 "" 0 0 1 R
  <PROJBAY
  >
  <TRACK {3809993A-7342-4D95-8A3F-899CC10CE627}
    NAME ""
    PEAKCOL 16576
    BEAT -1
    AUTOMODE 0
    VOLPAN 1 0 -1 -1 1
    MUTESOLO 0 0 0
    IPHASE 0
    ISBUS 0 0
    BUSCOMP 0 0
    SHOWINMIX 1 0.6667 0.5 1 0.5 0 0 0
    FREEMODE 0
    SEL 0
    REC 1 0 0 0 0 0 0
    VU 2
    TRACKHEIGHT 0 0
    INQ 0 0 0 0.5 100 0 0 100
    NCHAN 2
    FX 1
    TRACKID {3809993A-7342-4D95-8A3F-899CC10CE627}
    PERF 0
    MIDIOUT -1
    MAINSEND 1 0
    <ITEM
      POSITION 84.93462585034014
      SNAPOFFS 0
      LENGTH 4.58594104308389
      LOOP 1
      ALLTAKES 0
      FADEIN 1 0.01 0 1 0 0
      FADEOUT 1 0.01 0 1 0 0
      MUTE 0
      SEL 0
      IGUID {2771F1AD-935B-421F-8B93-ADB23F6A8201}
      IID 23
      VOLPAN 1
      TAKE SEL
      NAME 01-190401_2338-01.wav
      TAKEVOLPAN 0 1 -1
      SOFFS 0
      PLAYRATE 1 1 0 -1 0 0.0025
      CHANMODE 0
      TAKECOLOR 24755205 R
      GUID {8E90D104-EB78-4337-97E2-3642EF9C2E93}
      RECPASS 11
      <SOURCE WAVE
        FILE "01-190401_2338-01.wav"
      >
    >
    <ITEM
      POSITION 89.52056689342403
      SNAPOFFS 0
      LENGTH 4.06496598639456
      LOOP 1
      ALLTAKES 0
      FADEIN 1 0.01 0 1 0 0
      FADEOUT 1 0.01 0 1 0 0
      MUTE 0
      SEL 0
      IGUID {0EAACE7F-15B7-44AD-90A1-01CB3A510147}
      IID 20
      VOLPAN 1
      TAKE SEL
      NAME 01-190401_2338-01.wav
      TAKEVOLPAN 0 1 -1
      SOFFS 4.58594104308389
      PLAYRATE 1 1 0 -1 0 0.0025
      CHANMODE 0
      TAKECOLOR 24755205 R
      GUID {6B0DC11B-B6E2-4E67-82B7-29EC9A746C36}
      RECPASS 11
      <SOURCE WAVE
        FILE "01-190401_2338-01.wav"
      >
    >
    <ITEM
      POSITION 93.58553287981859
      SNAPOFFS 0
      LENGTH 8.3591836734694
      LOOP 1
      ALLTAKES 0
      FADEIN 1 0.01 0 1 0 0
      FADEOUT 1 0.01 0 1 0 0
      MUTE 0
      SEL 0
      IGUID {4202611B-0F22-4D68-917D-A935DC99827E}
      IID 24
      VOLPAN 1
      TAKE SEL
      NAME 01-190401_2338-01.wav
      TAKEVOLPAN 0 1 -1
      SOFFS 8.65090702947845
      PLAYRATE 1 1 0 -1 0 0.0025
      CHANMODE 0
      TAKECOLOR 24755205 R
      GUID {16110F22-768E-499E-86C2-BE81C4E032FC}
      RECPASS 11
      <SOURCE WAVE
        FILE "01-190401_2338-01.wav"
      >
    >
  >
  <TRACK {86860B92-AA7F-425A-9B43-497E43EE9740}
    NAME "ezdrummer 01"
    PEAKCOL 16576
    BEAT -1
    AUTOMODE 0
    VOLPAN 1 0 -1 -1 1
    MUTESOLO 0 0 0
    IPHASE 0
    ISBUS 0 0
    BUSCOMP 0 0
    SHOWINMIX 1 0.6667 0.5 1 0.5 0 0 0
    FREEMODE 0
    SEL 0
    REC 0 0 0 0 0 0 0
    VU 2
    TRACKHEIGHT 0 0
    INQ 0 0 0 0.5 100 0 0 100
    NCHAN 2
    FX 1
    TRACKID {86860B92-AA7F-425A-9B43-497E43EE9740}
    PERF 0
    MIDIOUT -1
    MAINSEND 1 0
    <FXCHAIN
      WNDRECT -3 300 1127 773
      SHOW 0
      LASTSEL 0
      DOCKED 0
      BYPASS 0 0 0
      <VST "VSTi: EZdrummer (Toontrack) (32 out)" EZdrummer.dll 0 "" 1684432997
        ZWhmZO5e7f4AAAAAIAAAAAEAAAAAAAAAAgAAAAAAAAAEAAAAAAAAAAgAAAAAAAAAEAAAAAAAAAAgAAAAAAAAAEAAAAAAAAAAgAAAAAAAAAAAAQAAAAAAAAACAAAAAAAA
        AAQAAAAAAAAACAAAAAAAAAAQAAAAAAAAACAAAAAAAAAAQAAAAAAAAACAAAAAAAAAAAABAAAAAAAAAAIAAAAAAAAABAAAAAAAAAAIAAAAAAAAABAAAAAAAAAAIAAAAAAA
        AABAAAAAAAAAAIAAAAAAAAAAAAEAAAAAAAAAAgAAAAAAAAAEAAAAAAAAAAgAAAAAAAAAEAAAAAAAAAAgAAAAAAAAAEAAAAAAAAAAgAAAAAAXDAAAAQAAAAEAEAA=
        dmVyc2lvbiAxCkVaWCAiRVpYMl9FWmRydW1tZXIyX01vZGVybiIKaHVtYW5pemUgMgpwb3MgIktpY2siICIxODIyR01TIgpwb3MgIlNuYXJlIiAiMTNHTVMiCnBvcyAi
        SGF0cyIgIjE0SEhYIgpwb3MgIlRvbTEiICIxMEdNUzEiCnBvcyAiVG9tMiIgIjEyR01TMSIKcG9zICJUb20zIiAiMTRHTVMxIgpwb3MgIlRvbTQiICIxNkdNUzEiCnBv
        cyAiVG9tNSIgIjE4R01TMSIKcG9zICJSaWRlNCIgIjIxUmlkZVZpbnRhZ2UiCnBvcyAiQ3Jhc2gxIiAiMTlTYWJpYW4xIgpwb3MgIkNyYXNoMiIgIjE4U2FiaWFuMiIK
        cG9zICJDcmFzaDMiICIxOFNhYmlhbjMiCnBvcyAiQ3Jhc2g0IiAiMThTYWJpYW41IgptaXhlciB7CmJ1c3MgMCB7CnBhbiAwLjUKdm9sdW1lIDAuNzA3OTQ3CnBoYXNl
        cmV2ZXJzZSAwCnNvbG8gMAptdXRlIDAKcm91dGUgMAp9CmJ1c3MgMSB7CnBhbiAwLjUKdm9sdW1lIDAuNzA3OTQ3CnBoYXNlcmV2ZXJzZSAwCnNvbG8gMAptdXRlIDAK
        cm91dGUgMAp9CmJ1c3MgMiB7CnBhbiAwLjUKdm9sdW1lIDAuNzA3OTQ3CnBoYXNlcmV2ZXJzZSAwCnNvbG8gMAptdXRlIDAKcm91dGUgMAp9CmJ1c3MgMyB7CnBhbiAw
        LjUKdm9sdW1lIDAuNzA3OTQ3CnBoYXNlcmV2ZXJzZSAwCnNvbG8gMAptdXRlIDAKcm91dGUgMAp9CmJ1c3MgNCB7CnBhbiAwLjM3NQp2b2x1bWUgMC4zNTQ4MTQKcGhh
        c2VyZXZlcnNlIDAKc29sbyAwCm11dGUgMApyb3V0ZSAwCn0KYnVzcyA1IHsKcGFuIDAuMzc1CnZvbHVtZSAwLjM1NDgxNApwaGFzZXJldmVyc2UgMApzb2xvIDAKbXV0
        ZSAwCnJvdXRlIDAKfQpidXNzIDYgewpwYW4gMAp2b2x1bWUgMQpwaGFzZXJldmVyc2UgMApzb2xvIDAKbXV0ZSAwCnJvdXRlIDAKfQpidXNzIDcgewpwYW4gMQp2b2x1
        bWUgMQpwaGFzZXJldmVyc2UgMApzb2xvIDAKbXV0ZSAwCnJvdXRlIDAKfQpidXNzIDggewpwYW4gMAp2b2x1bWUgMC42MzA5NTgKcGhhc2VyZXZlcnNlIDAKc29sbyAw
        Cm11dGUgMApyb3V0ZSAwCn0KYnVzcyA5IHsKcGFuIDEKdm9sdW1lIDAuNjMwOTU4CnBoYXNlcmV2ZXJzZSAwCnNvbG8gMAptdXRlIDAKcm91dGUgMAp9CmJ1c3MgMTAg
        ewpwYW4gMAp2b2x1bWUgMC4zNDU1MTEKcGhhc2VyZXZlcnNlIDAKc29sbyAwCm11dGUgMApyb3V0ZSAwCn0KYnVzcyAxMSB7CnBhbiAxCnZvbHVtZSAwLjM0NTUxMQpw
        aGFzZXJldmVyc2UgMApzb2xvIDAKbXV0ZSAwCnJvdXRlIDAKfQpidXNzIDEyIHsKcGFuIDAKdm9sdW1lIDAuNDc1MjUxCnBoYXNlcmV2ZXJzZSAwCnNvbG8gMAptdXRl
        IDAKcm91dGUgMAp9CmJ1c3MgMTMgewpwYW4gMQp2b2x1bWUgMC40NzUyNTEKcGhhc2VyZXZlcnNlIDAKc29sbyAwCm11dGUgMApyb3V0ZSAwCn0KYnVzcyAxNCB7CnBh
        biAwCnZvbHVtZSAwLjE4MjYxNgpwaGFzZXJldmVyc2UgMApzb2xvIDAKbXV0ZSAwCnJvdXRlIDAKfQpidXNzIDE1IHsKcGFuIDEKdm9sdW1lIDAuMTgyNjE2CnBoYXNl
        cmV2ZXJzZSAwCnNvbG8gMAptdXRlIDAKcm91dGUgMAp9CmJ1c3MgMTYgewpwYW4gMC41CnZvbHVtZSAwLjcwNzk0NwpwaGFzZXJldmVyc2UgMApzb2xvIDAKbXV0ZSAw
        CnJvdXRlIDAKfQpidXNzIDE3IHsKcGFuIDAuNQp2b2x1bWUgMC43MDc5NDcKcGhhc2VyZXZlcnNlIDAKc29sbyAwCm11dGUgMApyb3V0ZSAwCn0KYnVzcyAxOCB7CnBh
        biAwLjEzODg4OQp2b2x1bWUgMC42MzA5NTgKcGhhc2VyZXZlcnNlIDAKc29sbyAwCm11dGUgMApyb3V0ZSAwCn0KYnVzcyAxOSB7CnBhbiAwLjEzODg4OQp2b2x1bWUg
        MC42MzA5NTgKcGhhc2VyZXZlcnNlIDAKc29sbyAwCm11dGUgMApyb3V0ZSAwCn0KYnVzcyAyMCB7CnBhbiAwLjgzMzMzMwp2b2x1bWUgMC42MzA5NTgKcGhhc2VyZXZl
        cnNlIDAKc29sbyAwCm11dGUgMApyb3V0ZSAwCn0KYnVzcyAyMSB7CnBhbiAwLjgzMzMzMwp2b2x1bWUgMC42MzA5NTgKcGhhc2VyZXZlcnNlIDAKc29sbyAwCm11dGUg
        MApyb3V0ZSAwCn0KYnVzcyAyMiB7CnBhbiAwCnZvbHVtZSAwLjI3OTM1MwpwaGFzZXJldmVyc2UgMApzb2xvIDAKbXV0ZSAwCnJvdXRlIDAKfQpidXNzIDIzIHsKcGFu
        IDEKdm9sdW1lIDAuMjc5MzUzCnBoYXNlcmV2ZXJzZSAwCnNvbG8gMAptdXRlIDAKcm91dGUgMAp9Cn0KRVoxc3R1ZmZFTkQgewp9CnNhbXBsZXIgewptYXN0ZXJ2b2wg
        MQpyZXZlcnNlIDAKcHJlc2V0ICJCYXNpYyIKa25vYiAwIDAuNDg1MTQ5Cmtub2IgMSAwLjUwNDk1MQprbm9iIDIgMC41Cmtub2IgMyAwLjUKa25vYiA0IDEKa25vYiA1
        IDEKZHJ1bXByb3BzIHsKIlhQZXJjLTAiIHggIkVaWFBfRVpkcnVtbWVyMl9QZXJjdXNzaW9uIiAiT25lc2hvdCIgIkNsYXBzMiIKIlhQZXJjLTEiIHggIkVaWFBfRVpk
        cnVtbWVyMl9QZXJjdXNzaW9uIiAiU2hha2VyIiAiU2hha2VyMSIKIlhQZXJjLTIiIHggIkVaWFBfRVpkcnVtbWVyMl9QZXJjdXNzaW9uIiAiVGFtYm91cmluZSIgIlRh
        bWIxIgp9Cn0KZWRydW0gbm9uZSBub25lCm1pZGlsZWFybiB7Cn0KRWRpdG9yIHsgClNvbmdUcmFjayB7ClZpc2libGVBcmVhIDIwNi4wMjYgMjcxLjAyNgpUcmFja05h
        bWUgIiIKQ2xlYXJUcmFja0ZpcnN0ClRpbWVTaWcgNCA0CkdyaWRSZXMgMzIKTG9vcEFyZWEgMCAwCkxvb3BBY3RpdmUgMAp9ClZpc2libGVSZXN1bHRDb2x1bW5zIDE2
        LDI4LDAsMDsxNywyOCwwLDA7MCwxODUsMCwwOzExLDIwMCwwLDA7NCwxNTAsMCwwOzYsMTMwLDAsMDs3LDQ1LDAsMDs4LDQ2LDAsMDszLDQ1LDAsMDsKVmlzaWJsZUZp
        bHRlckNvbHVtbnMgNDs3OzU7MTs1OzI7NjsyOwpCcm93c2VySGVpZ2h0IDE2NgpTZWxlY3RlZFRhZ3MgLDAsMCwwLDAsMCwwLDAsMCwwLDAsMCwwLDAsMCwwLDAsMCww
        LDAsMCwwLDAsMCwwLDAsMCwwLDAsMCwwLDAsMCwwLDAsMCwwLDAsMCwwLDAsMCwwLDAsMCwwLDAsMCwwLDAsMCwwLDAsMCwwLDAsMCwwLDAsMCwwLDAsMCwwLDAsMCww
        LDAsMCwwLDAsMCwwLDAsMCwwLDAsMCwwLDAsMCwwLDAKU2VsZWN0ZWRGaWxlIApTZWxlY3RlZEJyb3dzZXJQYXRoICIiCkNsZWFyVGFwMkZpbmQKQnJvd3NlcklzRmF2
        b3JpdGUgMApQcmV2aWV3SW5PcmlnaW5hbFRlbXBvIDAKQ2xlYXJTb25nQ3JlYXRvciAwClZpc2libGVUYWIgMQp9ClN5bmNUb0hvc3QgMSAxMzMKTWlkaU91dEVuYWJs
        ZWQgMApNaWRpSW5DaGFubmVsIC0xCgA=
        AAAQAAAA
      >
      FLOATPOS 0 0 0 0
      FXID {68B77D20-975A-478E-8454-EE168910FDA8}
      WAK 0
    >
    <ITEM
      POSITION 0
      SNAPOFFS 0
      LENGTH 1515.78672
      LOOP 1
      ALLTAKES 0
      FADEIN 1 0 0 1 0 0
      FADEOUT 1 0 0 1 0 0
      MUTE 0
      SEL 0
      IGUID {7351C8D6-9E1D-46CA-AAEC-2AF33167341C}
      IID 1
      NAME "ezdrummer 01 - halu.mid"
      VOLPAN 1 0 1 -1
      SOFFS 0 0
      PLAYRATE 1 1 0 -1 0 0.0025
      CHANMODE 0
      GUID {DBC91B15-4AF0-4812-86D9-6062C41AC34B}
      <SOURCE MIDI
        HASDATA 1 480 QN
        POOLEDEVTS {294773E3-F33C-4BA3-93B3-F34B4F523B9D}
        <X 0 0 0 0 3 "ezdrummer 01"
          /wNlemRydW1tZXIgMDE=
        >
        E 5006 99 35 1e
        E 172 99 35 00
        E 102 99 33 2c
        E 102 99 33 00
        E 122 99 35 0d
        E 92 99 35 00
        E 164 99 35 21
        E 129 99 35 00
        E 4011 99 34 0d
        E 60 99 34 10
        E 58 89 34 40
        E 2 99 34 18
        E 58 89 34 40
        E 2 99 34 23
        E 58 89 34 40
        E 2 99 34 26
        E 58 89 34 40
        E 2 99 34 2c
        E 58 89 34 40
        E 2 99 34 31
        E 58 89 34 40
        E 2 99 34 37
        E 58 89 34 40
        E 2 99 34 39
        E 58 89 34 40
        E 2 99 34 42
        E 58 89 34 40
        E 2 99 34 42
        E 58 89 34 40
        E 2 99 34 42
        E 58 89 34 40
        E 2 99 34 42
        E 58 89 34 40
        E 2 99 34 45
        E 58 89 34 40
        E 2 99 34 3f
        E 58 89 34 40
        E 2 99 34 52
        E 58 89 34 40
        E 2 99 34 55
        E 58 89 34 40
        E 2 99 34 58
        E 58 89 34 40
        E 2 99 34 58
        E 58 89 34 40
        E 2 99 34 5d
        E 58 89 34 40
        E 2 99 34 63
        E 58 89 34 40
        E 2 99 34 66
        E 58 89 34 40
        E 2 99 34 6e
        E 58 89 34 40
        E 2 99 34 79
        E 58 89 34 40
        E 2 99 34 7c
        E 58 89 34 40
        E 2 99 34 7c
        E 58 89 34 40
        E 2 99 34 79
        E 58 89 34 40
        E 2 99 34 79
        E 58 89 34 40
        E 2 99 34 79
        E 58 89 34 40
        E 2 99 34 79
        E 58 89 34 40
        E 60 89 34 40
        E 4023 99 35 45
        E 23 99 33 29
        E 68 99 35 00
        E 24 99 33 00
        E 142 99 35 29
        E 125 99 35 00
        E 337 99 35 0d
        E 150 99 35 00
        E 118 99 33 2c
        E 92 99 33 00
        E 164 99 35 37
        E 68 99 35 00
        E 142 99 35 16
        E 100 99 35 00
        E 1790 99 33 3c
        E 11 99 35 4a
        E 92 99 33 00
        E 11 99 35 00
        E 126 99 35 4d
        E 163 99 35 00
        E 91 99 33 34
        E 135 99 33 00
        E 73 99 35 50
        E 101 99 35 00
        E 186 99 35 37
        E 115 99 35 00
        E 1252 99 30 61
        E 60 99 2f 61
        E 79 99 2f 00
        E 44 99 30 00
        E 117 99 2d 61
        E 30 99 2f 61
        E 27 99 2d 00
        E 51 99 2f 00
        E 312 99 2d 61
        E 172 99 2d 00
        E 98 99 2b 61
        E 88 99 2b 00
        E 152 99 2d 61
        E 93 99 2d 00
        E 237 99 24 64
        E 0 99 31 64
        E 118 89 24 40
        E 0 89 31 40
        E 362 99 2c 64
        E 118 89 2c 40
        E 122 99 24 64
        E 0 99 2c 64
        E 118 89 24 40
        E 0 89 2c 40
        E 122 99 24 64
        E 0 99 2e 64
        E 118 89 24 40
        E 0 89 2e 40
        E 362 99 26 64
        E 0 99 2c 64
        E 118 89 26 40
        E 0 89 2c 40
        E 122 99 2c 64
        E 118 89 2c 40
        E 122 99 2e 64
        E 118 89 2e 40
        E 362 99 2c 64
        E 118 89 2c 40
        E 122 99 24 64
        E 0 99 2c 64
        E 118 89 24 40
        E 0 89 2c 40
        E 122 99 24 64
        E 0 99 2e 64
        E 118 89 24 40
        E 0 89 2e 40
        E 362 99 2c 64
        E 118 89 2c 40
        E 122 99 24 64
        E 0 99 2c 64
        E 118 89 24 40
        E 0 89 2c 40
        E 122 99 24 64
        E 0 99 2e 64
        E 118 89 24 40
        E 0 89 2e 40
        E 362 99 26 64
        E 0 99 2c 64
        E 118 89 26 40
        E 0 89 2c 40
        E 122 99 2c 64
        E 118 89 2c 40
        E 122 99 2e 64
        E 118 89 2e 40
        E 362 99 2c 64
        E 118 89 2c 40
        E 122 99 24 64
        E 0 99 26 37
        E 0 99 2c 64
        E 118 89 24 40
        E 0 89 26 40
        E 0 89 2c 40
        E 122 99 24 64
        E 0 99 2e 64
        E 118 89 24 40
        E 0 89 2e 40
        E 362 99 2c 64
        E 118 89 2c 40
        E 122 99 24 64
        E 0 99 2c 64
        E 118 89 24 40
        E 0 89 2c 40
        E 122 99 24 64
        E 0 99 2e 64
        E 118 89 24 40
        E 0 89 2e 40
        E 362 99 26 64
        E 0 99 2c 64
        E 118 89 26 40
        E 0 89 2c 40
        E 122 99 2c 64
        E 118 89 2c 40
        E 122 99 2e 64
        E 118 89 2e 40
        E 362 99 2c 64
        E 118 89 2c 40
        E 122 99 24 64
        E 0 99 2c 64
        E 118 89 24 40
        E 0 89 2c 40
        E 122 99 24 64
        E 0 99 2e 64
        E 118 89 24 40
        E 0 89 2e 40
        E 362 99 2c 64
        E 118 89 2c 40
        E 122 99 24 64
        E 0 99 2c 64
        E 118 89 24 40
        E 0 89 2c 40
        E 122 99 24 64
        E 0 99 2e 64
        E 118 89 24 40
        E 0 89 2e 40
        E 362 99 26 64
        E 0 99 2c 64
        E 118 89 26 40
        E 0 89 2c 40
        E 122 99 2c 64
        E 118 89 2c 40
        E 122 99 2e 64
        E 118 89 2e 40
        E 362 99 2c 64
        E 118 89 2c 40
        E 122 99 24 64
        E 0 99 26 37
        E 0 99 2c 64
        E 118 89 24 40
        E 0 89 26 40
        E 0 89 2c 40
        E 122 99 24 64
        E 0 99 2e 64
        E 118 89 24 40
        E 0 89 2e 40
        E 362 99 2c 64
        E 118 89 2c 40
        E 122 99 24 64
        E 0 99 2c 64
        E 118 89 24 40
        E 0 89 2c 40
        E 122 99 24 64
        E 0 99 2e 64
        E 118 89 24 40
        E 0 89 2e 40
        E 362 99 26 64
        E 0 99 2c 64
        E 118 89 26 40
        E 0 89 2c 40
        E 122 99 2c 64
        E 118 89 2c 40
        E 122 99 2e 64
        E 118 89 2e 40
        E 362 99 2c 64
        E 118 89 2c 40
        E 122 99 24 64
        E 0 99 2c 64
        E 118 89 24 40
        E 0 89 2c 40
        E 122 99 24 64
        E 0 99 2e 64
        E 118 89 24 40
        E 0 89 2e 40
        E 362 99 2c 64
        E 118 89 2c 40
        E 122 99 24 64
        E 0 99 2c 64
        E 118 89 24 40
        E 0 89 2c 40
        E 122 99 24 64
        E 0 99 2e 64
        E 118 89 24 40
        E 0 89 2e 40
        E 362 99 26 64
        E 0 99 2c 64
        E 118 89 26 40
        E 0 89 2c 40
        E 122 99 2c 64
        E 118 89 2c 40
        E 122 99 2e 64
        E 118 89 2e 40
        E 362 99 2c 64
        E 118 89 2c 40
        E 122 99 24 64
        E 0 99 26 37
        E 0 99 2c 64
        E 118 89 24 40
        E 0 89 26 40
        E 0 89 2c 40
        E 122 99 24 64
        E 0 99 2e 64
        E 118 89 24 40
        E 0 89 2e 40
        E 362 99 2c 64
        E 118 89 2c 40
        E 122 99 24 64
        E 0 99 2c 64
        E 118 89 24 40
        E 0 89 2c 40
        E 122 99 24 64
        E 0 99 2e 64
        E 118 89 24 40
        E 0 89 2e 40
        E 362 99 26 64
        E 0 99 2c 64
        E 118 89 26 40
        E 0 89 2c 40
        E 122 99 2c 64
        E 118 89 2c 40
        E 122 99 2e 64
        E 118 89 2e 40
        E 362 99 2c 64
        E 118 89 2c 40
        E 122 99 24 64
        E 0 99 2c 64
        E 118 89 24 40
        E 0 89 2c 40
        E 122 99 24 64
        E 0 99 2e 64
        E 118 89 24 40
        E 0 89 2e 40
        E 362 99 2c 64
        E 118 89 2c 40
        E 122 99 24 64
        E 0 99 2c 64
        E 118 89 24 40
        E 0 89 2c 40
        E 122 99 24 64
        E 0 99 2e 64
        E 118 89 24 40
        E 0 89 2e 40
        E 362 99 26 64
        E 0 99 2c 64
        E 118 89 26 40
        E 0 89 2c 40
        E 122 99 2c 64
        E 118 89 2c 40
        E 122 99 2e 64
        E 118 89 2e 40
        E 362 99 2c 64
        E 118 89 2c 40
        E 122 99 24 64
        E 0 99 26 37
        E 0 99 2c 64
        E 118 89 24 40
        E 0 89 26 40
        E 0 89 2c 40
        E 122 99 24 64
        E 0 99 2e 64
        E 118 89 24 40
        E 0 89 2e 40
        E 362 99 2c 64
        E 118 89 2c 40
        E 122 99 24 64
        E 0 99 2c 64
        E 118 89 24 40
        E 0 89 2c 40
        E 122 99 24 64
        E 0 99 2e 64
        E 118 89 24 40
        E 0 89 2e 40
        E 362 99 26 64
        E 0 99 2c 64
        E 118 89 26 40
        E 0 89 2c 40
        E 122 99 2c 64
        E 118 89 2c 40
        E 122 99 2e 64
        E 118 89 2e 40
        E 362 99 2c 64
        E 118 89 2c 40
        E 122 99 24 64
        E 0 99 2c 64
        E 118 89 24 40
        E 0 89 2c 40
        E 122 99 24 64
        E 0 99 2e 64
        E 118 89 24 40
        E 0 89 2e 40
        E 362 99 2c 64
        E 118 89 2c 40
        E 122 99 24 64
        E 0 99 2c 64
        E 118 89 24 40
        E 0 89 2c 40
        E 122 99 24 64
        E 0 99 2e 64
        E 118 89 24 40
        E 0 89 2e 40
        E 362 99 26 64
        E 0 99 2c 64
        E 118 89 26 40
        E 0 89 2c 40
        E 122 99 2c 64
        E 118 89 2c 40
        E 122 99 2e 64
        E 118 89 2e 40
        E 362 99 2c 64
        E 118 89 2c 40
        E 122 99 24 64
        E 0 99 26 37
        E 0 99 2c 64
        E 118 89 24 40
        E 0 89 26 40
        E 0 89 2c 40
        E 122 99 24 64
        E 0 99 2e 64
        E 118 89 24 40
        E 0 89 2e 40
        E 362 99 2c 64
        E 118 89 2c 40
        E 122 99 24 64
        E 0 99 2c 64
        E 118 89 24 40
        E 0 89 2c 40
        E 122 99 24 64
        E 0 99 2e 64
        E 118 89 24 40
        E 0 89 2e 40
        E 362 99 26 64
        E 0 99 2c 64
        E 118 89 26 40
        E 0 89 2c 40
        E 122 99 2c 64
        E 118 89 2c 40
        E 122 99 2e 64
        E 118 89 2e 40
        E 362 99 2c 64
        E 118 89 2c 40
        E 122 99 24 64
        E 0 99 2c 64
        E 118 89 24 40
        E 0 89 2c 40
        E 122 99 24 64
        E 0 99 2e 64
        E 118 89 24 40
        E 0 89 2e 40
        E 362 99 2c 64
        E 118 89 2c 40
        E 122 99 24 64
        E 0 99 2c 64
        E 118 89 24 40
        E 0 89 2c 40
        E 122 99 24 64
        E 0 99 2e 64
        E 118 89 24 40
        E 0 89 2e 40
        E 362 99 26 64
        E 0 99 2c 64
        E 118 89 26 40
        E 0 89 2c 40
        E 122 99 2c 64
        E 118 89 2c 40
        E 122 99 2e 64
        E 118 89 2e 40
        E 362 99 2c 64
        E 118 89 2c 40
        E 122 99 24 64
        E 0 99 26 37
        E 0 99 2c 64
        E 118 89 24 40
        E 0 89 26 40
        E 0 89 2c 40
        E 122 99 24 64
        E 0 99 2e 64
        E 118 89 24 40
        E 0 89 2e 40
        E 362 99 2c 64
        E 118 89 2c 40
        E 122 99 24 64
        E 0 99 2c 64
        E 118 89 24 40
        E 0 89 2c 40
        E 122 99 24 64
        E 0 99 2e 64
        E 118 89 24 40
        E 0 89 2e 40
        E 362 99 26 64
        E 0 99 2c 64
        E 118 89 26 40
        E 0 89 2c 40
        E 122 99 2c 64
        E 118 89 2c 40
        E 122 99 2e 64
        E 118 89 2e 40
        E 362 99 2c 64
        E 118 89 2c 40
        E 122 99 24 64
        E 0 99 2c 64
        E 118 89 24 40
        E 0 89 2c 40
        E 122 99 24 64
        E 0 99 2e 64
        E 118 89 24 40
        E 0 89 2e 40
        E 362 99 2c 64
        E 118 89 2c 40
        E 122 99 24 64
        E 0 99 2c 64
        E 118 89 24 40
        E 0 89 2c 40
        E 122 99 24 64
        E 0 99 2e 64
        E 118 89 24 40
        E 0 89 2e 40
        E 362 99 26 64
        E 0 99 2c 64
        E 118 89 26 40
        E 0 89 2c 40
        E 122 99 2c 64
        E 118 89 2c 40
        E 122 99 2e 64
        E 118 89 2e 40
        E 362 99 2c 64
        E 118 89 2c 40
        E 122 99 24 64
        E 0 99 26 37
        E 0 99 2c 64
        E 118 89 24 40
        E 0 89 26 40
        E 0 89 2c 40
        E 122 99 24 64
        E 0 99 2e 64
        E 118 89 24 40
        E 0 89 2e 40
        E 362 99 2c 64
        E 118 89 2c 40
        E 122 99 24 64
        E 0 99 2c 64
        E 118 89 24 40
        E 0 89 2c 40
        E 122 99 24 64
        E 0 99 2e 64
        E 118 89 24 40
        E 0 89 2e 40
        E 362 99 26 64
        E 0 99 2c 64
        E 118 89 26 40
        E 0 89 2c 40
        E 122 99 2c 64
        E 118 89 2c 40
        E 122 99 2e 64
        E 118 89 2e 40
        E 362 99 2c 64
        E 118 89 2c 40
        E 122 99 24 64
        E 0 99 2c 64
        E 118 89 24 40
        E 0 89 2c 40
        E 122 99 24 64
        E 0 99 2e 6e
        E 118 89 24 40
        E 0 89 2e 40
        E 362 99 2e 7f
        E 118 89 2e 40
        E 122 99 24 64
        E 118 89 24 40
        E 122 99 24 64
        E 0 99 2e 7f
        E 118 89 24 40
        E 0 89 2e 40
        E 362 99 26 71
        E 118 89 26 40
        E 122 99 26 6e
        E 118 89 26 40
        E 2 99 26 5d
        E 118 89 26 40
        E 2 99 26 6e
        E 118 89 26 40
        E 122 99 26 71
        E 118 89 26 40
        E 122 99 30 73
        E 118 89 30 40
        E 122 99 24 64
        E 0 99 2b 76
        E 118 89 24 40
        E 0 89 2b 40
        E 122 99 24 64
        E 0 99 2c 64
        E 0 99 31 71
        E 118 89 24 40
        E 0 89 2c 40
        E 0 89 31 40
        E 362 99 24 64
        E 0 99 2c 64
        E 0 99 31 64
        E 118 89 24 40
        E 0 89 2c 40
        E 0 89 31 40
        E 122 99 24 64
        E 118 89 24 40
        E 122 99 2c 64
        E 0 99 31 64
        E 118 89 2c 40
        E 0 89 31 40
        E 122 99 24 64
        E 118 89 24 40
        E 2 99 24 64
        E 118 89 24 40
        E 2 99 26 64
        E 0 99 2c 64
        E 0 99 31 64
        E 118 89 26 40
        E 0 89 2c 40
        E 0 89 31 40
        E 122 99 24 64
        E 118 89 24 40
        E 122 99 2c 64
        E 0 99 31 64
        E 118 89 2c 40
        E 0 89 31 40
        E 122 99 24 64
        E 0 99 2e 64
        E 118 89 24 40
        E 0 89 2e 40
        E 122 99 2c 64
        E 0 99 31 64
        E 118 89 2c 40
        E 0 89 31 40
        E 122 99 24 64
        E 0 99 2e 64
        E 118 89 24 40
        E 0 89 2e 40
        E 122 99 24 64
        E 0 99 2c 64
        E 0 99 31 64
        E 118 89 24 40
        E 0 89 2c 40
        E 0 89 31 40
        E 362 99 24 64
        E 0 99 2c 64
        E 0 99 31 64
        E 118 89 24 40
        E 0 89 2c 40
        E 0 89 31 40
        E 122 99 24 64
        E 118 89 24 40
        E 122 99 2c 64
        E 0 99 31 64
        E 118 89 2c 40
        E 0 89 31 40
        E 122 99 24 64
        E 118 89 24 40
        E 122 99 26 64
        E 0 99 2c 64
        E 0 99 31 64
        E 118 89 26 40
        E 0 89 2c 40
        E 0 89 31 40
        E 122 99 24 64
        E 0 99 26 64
        E 118 89 24 40
        E 0 89 26 40
        E 2 99 26 64
        E 118 89 26 40
        E 2 99 2c 64
        E 0 99 31 64
        E 118 89 2c 40
        E 0 89 31 40
        E 2 99 26 64
        E 118 89 26 40
        E 2 99 24 64
        E 0 99 26 64
        E 118 89 24 40
        E 0 89 26 40
        E 2 99 26 64
        E 118 89 26 40
        E 2 99 2c 64
        E 0 99 31 64
        E 118 89 2c 40
        E 0 89 31 40
        E 2 99 26 64
        E 118 89 26 40
        E 2 99 24 64
        E 0 99 34 79
        E 118 89 24 40
        E 0 89 34 40
        E 122 99 24 64
        E 0 99 2c 64
        E 0 99 31 71
        E 118 89 24 40
        E 0 89 2c 40
        E 0 89 31 40
        E 122 99 30 76
        E 118 89 30 40
        E 122 99 24 64
        E 0 99 2c 64
        E 0 99 31 64
        E 118 89 24 40
        E 0 89 2c 40
        E 0 89 31 40
        E 122 99 24 64
        E 118 89 24 40
        E 122 99 2c 64
        E 0 99 31 64
        E 118 89 2c 40
        E 0 89 31 40
        E 122 99 24 64
        E 118 89 24 40
        E 2 99 24 64
        E 118 89 24 40
        E 2 99 26 64
        E 0 99 2c 64
        E 0 99 31 64
        E 118 89 26 40
        E 0 89 2c 40
        E 0 89 31 40
        E 122 99 24 64
        E 118 89 24 40
        E 122 99 2c 64
        E 0 99 31 64
        E 118 89 2c 40
        E 0 89 31 40
        E 122 99 24 64
        E 0 99 2e 64
        E 118 89 24 40
        E 0 89 2e 40
        E 122 99 2c 64
        E 0 99 31 64
        E 118 89 2c 40
        E 0 89 31 40
        E 122 99 24 64
        E 0 99 2e 64
        E 118 89 24 40
        E 0 89 2e 40
        E 122 99 24 64
        E 0 99 2c 64
        E 0 99 31 64
        E 118 89 24 40
        E 0 89 2c 40
        E 0 89 31 40
        E 362 99 24 64
        E 0 99 2c 64
        E 0 99 31 64
        E 118 89 24 40
        E 0 89 2c 40
        E 0 89 31 40
        E 122 99 24 64
        E 118 89 24 40
        E 122 99 2c 64
        E 0 99 31 64
        E 118 89 2c 40
        E 0 89 31 40
        E 122 99 24 64
        E 118 89 24 40
        E 2 99 24 64
        E 118 89 24 40
        E 2 99 26 64
        E 0 99 2c 64
        E 0 99 31 64
        E 118 89 26 40
        E 0 89 2c 40
        E 0 89 31 40
        E 122 99 24 64
        E 118 89 24 40
        E 92 99 29 64
        E 30 99 30 64
        E 0 99 2b 64
        E 88 89 29 40
        E 30 89 30 40
        E 0 89 2b 40
        E 122 99 24 64
        E 118 89 24 40
        E 92 99 2b 64
        E 30 99 2f 64
        E 88 89 2b 40
        E 30 89 2f 40
        E 122 99 24 64
        E 118 89 24 40
        E 122 99 24 64
        E 0 99 2c 64
        E 0 99 31 71
        E 118 89 24 40
        E 0 89 2c 40
        E 0 89 31 40
        E 362 99 24 64
        E 0 99 2c 64
        E 0 99 31 64
        E 118 89 24 40
        E 0 89 2c 40
        E 0 89 31 40
        E 122 99 24 64
        E 118 89 24 40
        E 122 99 2c 64
        E 0 99 31 64
        E 118 89 2c 40
        E 0 89 31 40
        E 122 99 24 64
        E 118 89 24 40
        E 2 99 24 64
        E 118 89 24 40
        E 2 99 26 64
        E 0 99 2c 64
        E 0 99 31 64
        E 118 89 26 40
        E 0 89 2c 40
        E 0 89 31 40
        E 122 99 24 64
        E 118 89 24 40
        E 122 99 2c 64
        E 0 99 31 64
        E 118 89 2c 40
        E 0 89 31 40
        E 122 99 24 64
        E 0 99 2e 64
        E 118 89 24 40
        E 0 89 2e 40
        E 122 99 2c 64
        E 0 99 31 64
        E 118 89 2c 40
        E 0 89 31 40
        E 122 99 24 64
        E 0 99 2e 64
        E 118 89 24 40
        E 0 89 2e 40
        E 122 99 24 64
        E 0 99 2c 64
        E 0 99 31 64
        E 118 89 24 40
        E 0 89 2c 40
        E 0 89 31 40
        E 362 99 24 64
        E 0 99 2c 64
        E 0 99 31 64
        E 118 89 24 40
        E 0 89 2c 40
        E 0 89 31 40
        E 122 99 24 64
        E 118 89 24 40
        E 122 99 2c 64
        E 0 99 31 64
        E 118 89 2c 40
        E 0 89 31 40
        E 122 99 24 64
        E 118 89 24 40
        E 122 99 26 64
        E 0 99 2c 64
        E 0 99 31 64
        E 118 89 26 40
        E 0 89 2c 40
        E 0 89 31 40
        E 122 99 24 64
        E 0 99 26 64
        E 118 89 24 40
        E 0 89 26 40
        E 2 99 26 64
        E 118 89 26 40
        E 2 99 2c 64
        E 0 99 31 64
        E 118 89 2c 40
        E 0 89 31 40
        E 2 99 26 64
        E 118 89 26 40
        E 2 99 24 64
        E 0 99 26 64
        E 118 89 24 40
        E 0 89 26 40
        E 2 99 26 64
        E 118 89 26 40
        E 2 99 2c 64
        E 0 99 31 64
        E 118 89 2c 40
        E 0 89 31 40
        E 2 99 26 64
        E 118 89 26 40
        E 2 99 24 64
        E 0 99 34 79
        E 118 89 24 40
        E 0 89 34 40
        E 122 99 24 64
        E 0 99 2c 64
        E 0 99 31 64
        E 118 89 24 40
        E 0 89 2c 40
        E 0 89 31 40
        E 362 99 24 64
        E 0 99 2c 64
        E 0 99 31 64
        E 118 89 24 40
        E 0 89 2c 40
        E 0 89 31 40
        E 122 99 24 64
        E 118 89 24 40
        E 122 99 2c 64
        E 0 99 31 64
        E 118 89 2c 40
        E 0 89 31 40
        E 122 99 24 64
        E 118 89 24 40
        E 2 99 24 64
        E 118 89 24 40
        E 2 99 26 64
        E 0 99 2c 64
        E 0 99 31 64
        E 118 89 26 40
        E 0 89 2c 40
        E 0 89 31 40
        E 122 99 24 64
        E 118 89 24 40
        E 122 99 2c 64
        E 0 99 31 64
        E 118 89 2c 40
        E 0 89 31 40
        E 122 99 24 64
        E 0 99 2e 64
        E 118 89 24 40
        E 0 89 2e 40
        E 122 99 2c 64
        E 0 99 31 64
        E 118 89 2c 40
        E 0 89 31 40
        E 122 99 24 64
        E 0 99 2e 64
        E 118 89 24 40
        E 0 89 2e 40
        E 122 99 24 64
        E 0 99 2c 64
        E 0 99 31 64
        E 118 89 24 40
        E 0 89 2c 40
        E 0 89 31 40
        E 362 99 24 64
        E 0 99 2c 64
        E 0 99 31 64
        E 118 89 24 40
        E 0 89 2c 40
        E 0 89 31 40
        E 122 99 24 64
        E 118 89 24 40
        E 122 99 2c 64
        E 0 99 31 64
        E 118 89 2c 40
        E 0 89 31 40
        E 122 99 24 64
        E 118 89 24 40
        E 122 99 2e 64
        E 0 99 31 64
        E 118 89 2e 40
        E 0 89 31 40
        E 2 99 2c 64
        E 118 89 2c 40
        E 2 99 24 64
        E 0 99 26 47
        E 118 89 24 40
        E 0 89 26 40
        E 2 99 26 55
        E 118 89 26 40
        E 2 99 2c 64
        E 0 99 26 64
        E 0 99 31 64
        E 118 89 2c 40
        E 0 89 26 40
        E 0 89 31 40
        E 2 99 30 64
        E 118 89 30 40
        E 2 99 24 64
        E 0 99 30 64
        E 118 89 24 40
        E 0 89 30 40
        E 2 99 2f 64
        E 118 89 2f 40
        E 2 99 2c 64
        E 0 99 2f 64
        E 0 99 31 64
        E 118 89 2c 40
        E 0 89 2f 40
        E 0 89 31 40
        E 2 99 29 64
        E 118 89 29 40
        E 2 99 24 64
        E 0 99 29 64
        E 118 89 24 40
        E 0 89 29 40
        E 2 99 29 64
        E 118 89 29 40
        E 2 99 24 64
        E 0 99 2e 64
        E 0 99 34 64
        E 118 89 24 40
        E 0 89 2e 40
        E 0 89 34 40
        E 362 99 2c 64
        E 118 89 2c 40
        E 122 99 24 64
        E 0 99 2c 64
        E 118 89 24 40
        E 0 89 2c 40
        E 122 99 24 64
        E 0 99 2e 64
        E 118 89 24 40
        E 0 89 2e 40
        E 362 99 26 64
        E 0 99 2c 64
        E 118 89 26 40
        E 0 89 2c 40
        E 122 99 2c 64
        E 118 89 2c 40
        E 122 99 2e 64
        E 118 89 2e 40
        E 362 99 2c 64
        E 118 89 2c 40
        E 122 99 24 64
        E 0 99 2c 64
        E 118 89 24 40
        E 0 89 2c 40
        E 122 99 24 64
        E 0 99 2e 64
        E 118 89 24 40
        E 0 89 2e 40
        E 362 99 2c 64
        E 118 89 2c 40
        E 122 99 24 64
        E 0 99 2c 64
        E 118 89 24 40
        E 0 89 2c 40
        E 122 99 24 64
        E 0 99 2e 64
        E 118 89 24 40
        E 0 89 2e 40
        E 362 99 26 71
        E 0 99 2c 64
        E 118 89 26 40
        E 0 89 2c 40
        E 1322 99 24 64
        E 0 99 2e 64
        E 0 99 34 64
        E 118 89 24 40
        E 0 89 2e 40
        E 0 89 34 40
        E 362 99 2c 64
        E 118 89 2c 40
        E 122 99 24 64
        E 0 99 2c 64
        E 118 89 24 40
        E 0 89 2c 40
        E 122 99 24 64
        E 0 99 2e 64
        E 118 89 24 40
        E 0 89 2e 40
        E 362 99 26 64
        E 0 99 2c 64
        E 118 89 26 40
        E 0 89 2c 40
        E 122 99 2c 64
        E 118 89 2c 40
        E 122 99 2e 64
        E 118 89 2e 40
        E 362 99 2c 64
        E 118 89 2c 40
        E 122 99 24 64
        E 0 99 2c 64
        E 118 89 24 40
        E 0 89 2c 40
        E 122 99 24 64
        E 0 99 2e 64
        E 118 89 24 40
        E 0 89 2e 40
        E 362 99 2c 64
        E 118 89 2c 40
        E 122 99 24 64
        E 0 99 2c 64
        E 118 89 24 40
        E 0 89 2c 40
        E 122 99 24 64
        E 0 99 2e 64
        E 118 89 24 40
        E 0 89 2e 40
        E 362 99 26 64
        E 0 99 2c 64
        E 118 89 26 40
        E 0 89 2c 40
        E 122 99 2c 64
        E 118 89 2c 40
        E 122 99 2e 64
        E 118 89 2e 40
        E 362 99 2c 64
        E 118 89 2c 40
        E 122 99 24 64
        E 0 99 26 37
        E 0 99 2c 64
        E 118 89 24 40
        E 0 89 26 40
        E 0 89 2c 40
        E 122 99 24 64
        E 0 99 2e 64
        E 0 99 34 64
        E 118 89 24 40
        E 0 89 2e 40
        E 0 89 34 40
        E 362 99 2c 64
        E 118 89 2c 40
        E 122 99 24 64
        E 0 99 2c 64
        E 118 89 24 40
        E 0 89 2c 40
        E 122 99 24 64
        E 0 99 2e 64
        E 118 89 24 40
        E 0 89 2e 40
        E 362 99 26 64
        E 0 99 2c 64
        E 118 89 26 40
        E 0 89 2c 40
        E 122 99 2c 64
        E 118 89 2c 40
        E 122 99 2e 64
        E 118 89 2e 40
        E 362 99 2c 64
        E 118 89 2c 40
        E 122 99 24 64
        E 0 99 2c 64
        E 118 89 24 40
        E 0 89 2c 40
        E 122 99 24 64
        E 0 99 2e 64
        E 118 89 24 40
        E 0 89 2e 40
        E 362 99 2c 64
        E 118 89 2c 40
        E 122 99 24 64
        E 0 99 2c 64
        E 118 89 24 40
        E 0 89 2c 40
        E 122 99 24 64
        E 0 99 2e 64
        E 118 89 24 40
        E 0 89 2e 40
        E 362 99 26 64
        E 0 99 2c 64
        E 118 89 26 40
        E 0 89 2c 40
        E 122 99 2c 64
        E 118 89 2c 40
        E 122 99 2e 64
        E 118 89 2e 40
        E 362 99 2c 64
        E 118 89 2c 40
        E 122 99 24 64
        E 0 99 26 37
        E 0 99 2c 64
        E 118 89 24 40
        E 0 89 26 40
        E 0 89 2c 40
        E 122 99 24 64
        E 0 99 2e 64
        E 0 99 34 64
        E 118 89 24 40
        E 0 89 2e 40
        E 0 89 34 40
        E 362 99 2c 64
        E 118 89 2c 40
        E 122 99 24 64
        E 0 99 2c 64
        E 118 89 24 40
        E 0 89 2c 40
        E 122 99 24 64
        E 0 99 2e 64
        E 118 89 24 40
        E 0 89 2e 40
        E 362 99 26 64
        E 0 99 2c 64
        E 118 89 26 40
        E 0 89 2c 40
        E 122 99 2c 64
        E 118 89 2c 40
        E 122 99 2e 64
        E 118 89 2e 40
        E 362 99 2c 64
        E 118 89 2c 40
        E 122 99 24 64
        E 0 99 2c 64
        E 118 89 24 40
        E 0 89 2c 40
        E 122 99 24 64
        E 0 99 2e 64
        E 118 89 24 40
        E 0 89 2e 40
        E 362 99 2c 64
        E 118 89 2c 40
        E 122 99 24 64
        E 0 99 2c 64
        E 118 89 24 40
        E 0 89 2c 40
        E 122 99 24 64
        E 0 99 2e 64
        E 118 89 24 40
        E 0 89 2e 40
        E 362 99 26 64
        E 0 99 2c 64
        E 118 89 26 40
        E 0 89 2c 40
        E 122 99 2c 64
        E 118 89 2c 40
        E 122 99 2e 64
        E 118 89 2e 40
        E 362 99 2c 64
        E 118 89 2c 40
        E 122 99 24 64
        E 0 99 26 37
        E 0 99 2c 64
        E 118 89 24 40
        E 0 89 26 40
        E 0 89 2c 40
        E 122 99 24 64
        E 0 99 2e 64
        E 118 89 24 40
        E 0 89 2e 40
        E 362 99 2c 64
        E 0 99 24 64
        E 0 99 2e 64
        E 0 99 34 64
        E 118 89 2c 40
        E 0 89 24 40
        E 0 89 2e 40
        E 0 89 34 40
        E 122 99 24 64
        E 0 99 2c 64
        E 118 89 24 40
        E 0 89 2c 40
        E 122 99 24 64
        E 0 99 2e 64
        E 0 99 2c 64
        E 118 89 24 40
        E 0 89 2e 40
        E 0 89 2c 40
        E 122 99 24 64
        E 0 99 2c 64
        E 118 89 24 40
        E 0 89 2c 40
        E 122 99 26 64
        E 0 99 2c 64
        E 0 99 24 64
        E 0 99 2e 64
        E 118 89 26 40
        E 0 89 2c 40
        E 0 89 24 40
        E 0 89 2e 40
        E 122 99 2c 64
        E 118 89 2c 40
        E 122 99 2e 64
        E 0 99 26 64
        E 0 99 2c 64
        E 118 89 2e 40
        E 0 89 26 40
        E 0 89 2c 40
        E 122 99 2c 64
        E 118 89 2c 40
        E 122 99 2c 64
        E 0 99 2e 64
        E 118 89 2c 40
        E 0 89 2e 40
        E 122 99 24 64
        E 0 99 2c 64
        E 118 89 24 40
        E 0 89 2c 40
        E 122 99 24 64
        E 0 99 2e 64
        E 0 99 2c 64
        E 118 89 24 40
        E 0 89 2e 40
        E 0 89 2c 40
        E 122 99 24 64
        E 0 99 2c 64
        E 118 89 24 40
        E 0 89 2c 40
        E 122 99 2c 64
        E 0 99 24 64
        E 0 99 2e 64
        E 118 89 2c 40
        E 0 89 24 40
        E 0 89 2e 40
        E 122 99 24 64
        E 0 99 2c 64
        E 118 89 24 40
        E 0 89 2c 40
        E 122 99 24 64
        E 0 99 2e 64
        E 0 99 2c 64
        E 118 89 24 40
        E 0 89 2e 40
        E 0 89 2c 40
        E 122 99 24 64
        E 0 99 2c 64
        E 118 89 24 40
        E 0 89 2c 40
        E 122 99 26 64
        E 0 99 2c 64
        E 0 99 24 64
        E 0 99 2e 64
        E 118 89 26 40
        E 0 89 2c 40
        E 0 89 24 40
        E 0 89 2e 40
        E 122 99 2c 64
        E 118 89 2c 40
        E 122 99 2e 64
        E 0 99 26 64
        E 0 99 2c 64
        E 118 89 2e 40
        E 0 89 26 40
        E 0 89 2c 40
        E 122 99 2c 64
        E 118 89 2c 40
        E 122 99 2c 64
        E 0 99 2e 64
        E 118 89 2c 40
        E 0 89 2e 40
        E 122 99 24 64
        E 0 99 26 37
        E 0 99 2c 64
        E 118 89 24 40
        E 0 89 26 40
        E 0 89 2c 40
        E 122 99 24 64
        E 0 99 2e 64
        E 118 89 24 40
        E 0 89 2e 40
        E 362 99 2c 64
        E 118 89 2c 40
        E 122 99 24 64
        E 0 99 2c 64
        E 118 89 24 40
        E 0 89 2c 40
        E 122 99 24 64
        E 0 99 2e 64
        E 118 89 24 40
        E 0 89 2e 40
        E 362 99 26 64
        E 0 99 2c 64
        E 118 89 26 40
        E 0 89 2c 40
        E 122 99 2c 64
        E 118 89 2c 40
        E 122 99 2e 64
        E 118 89 2e 40
        E 362 99 2c 64
        E 118 89 2c 40
        E 122 99 24 64
        E 0 99 2c 64
        E 118 89 24 40
        E 0 89 2c 40
        E 122 99 24 64
        E 0 99 2e 64
        E 118 89 24 40
        E 0 89 2e 40
        E 362 99 2c 64
        E 118 89 2c 40
        E 122 99 24 64
        E 0 99 2c 64
        E 118 89 24 40
        E 0 89 2c 40
        E 122 99 24 64
        E 0 99 2e 64
        E 118 89 24 40
        E 0 89 2e 40
        E 362 99 26 64
        E 0 99 2c 64
        E 118 89 26 40
        E 0 89 2c 40
        E 122 99 2c 64
        E 118 89 2c 40
        E 122 99 2e 64
        E 118 89 2e 40
        E 362 99 2c 64
        E 118 89 2c 40
        E 122 99 24 64
        E 0 99 26 37
        E 0 99 2c 64
        E 118 89 24 40
        E 0 89 26 40
        E 0 89 2c 40
        E 122 99 24 64
        E 0 99 2e 64
        E 118 89 24 40
        E 0 89 2e 40
        E 362 99 2c 64
        E 118 89 2c 40
        E 122 99 24 64
        E 0 99 2c 64
        E 118 89 24 40
        E 0 89 2c 40
        E 122 99 24 64
        E 0 99 2e 64
        E 118 89 24 40
        E 0 89 2e 40
        E 362 99 26 64
        E 0 99 2c 64
        E 118 89 26 40
        E 0 89 2c 40
        E 122 99 2c 64
        E 118 89 2c 40
        E 122 99 2e 64
        E 118 89 2e 40
        E 362 99 2c 64
        E 118 89 2c 40
        E 122 99 24 64
        E 0 99 2c 64
        E 118 89 24 40
        E 0 89 2c 40
        E 122 99 24 64
        E 0 99 2e 6e
        E 118 89 24 40
        E 0 89 2e 40
        E 362 99 2e 7f
        E 118 89 2e 40
        E 122 99 24 64
        E 118 89 24 40
        E 122 99 24 64
        E 0 99 2e 7f
        E 118 89 24 40
        E 0 89 2e 40
        E 362 99 26 71
        E 118 89 26 40
        E 122 99 26 6e
        E 118 89 26 40
        E 2 99 26 5d
        E 118 89 26 40
        E 2 99 26 6e
        E 118 89 26 40
        E 122 99 26 71
        E 118 89 26 40
        E 122 99 30 73
        E 118 89 30 40
        E 122 99 24 64
        E 0 99 2b 76
        E 118 89 24 40
        E 0 89 2b 40
        E 122 99 24 64
        E 0 99 2c 64
        E 0 99 31 71
        E 118 89 24 40
        E 0 89 2c 40
        E 0 89 31 40
        E 362 99 24 64
        E 0 99 2c 64
        E 0 99 31 64
        E 118 89 24 40
        E 0 89 2c 40
        E 0 89 31 40
        E 122 99 24 64
        E 118 89 24 40
        E 122 99 2c 64
        E 0 99 31 64
        E 118 89 2c 40
        E 0 89 31 40
        E 122 99 24 64
        E 118 89 24 40
        E 2 99 24 64
        E 118 89 24 40
        E 2 99 26 64
        E 0 99 2c 64
        E 0 99 31 64
        E 118 89 26 40
        E 0 89 2c 40
        E 0 89 31 40
        E 122 99 24 64
        E 118 89 24 40
        E 122 99 2c 64
        E 0 99 31 64
        E 118 89 2c 40
        E 0 89 31 40
        E 122 99 24 64
        E 0 99 2e 64
        E 118 89 24 40
        E 0 89 2e 40
        E 122 99 2c 64
        E 0 99 31 64
        E 118 89 2c 40
        E 0 89 31 40
        E 122 99 24 64
        E 0 99 2e 64
        E 118 89 24 40
        E 0 89 2e 40
        E 122 99 24 64
        E 0 99 2c 64
        E 0 99 31 64
        E 118 89 24 40
        E 0 89 2c 40
        E 0 89 31 40
        E 362 99 24 64
        E 0 99 2c 64
        E 0 99 31 64
        E 118 89 24 40
        E 0 89 2c 40
        E 0 89 31 40
        E 122 99 24 64
        E 118 89 24 40
        E 122 99 2c 64
        E 0 99 31 64
        E 118 89 2c 40
        E 0 89 31 40
        E 122 99 24 64
        E 118 89 24 40
        E 122 99 26 64
        E 0 99 2c 64
        E 0 99 31 64
        E 118 89 26 40
        E 0 89 2c 40
        E 0 89 31 40
        E 122 99 24 64
        E 0 99 26 64
        E 118 89 24 40
        E 0 89 26 40
        E 2 99 26 64
        E 118 89 26 40
        E 2 99 2c 64
        E 0 99 31 64
        E 118 89 2c 40
        E 0 89 31 40
        E 2 99 26 64
        E 118 89 26 40
        E 2 99 24 64
        E 0 99 26 64
        E 118 89 24 40
        E 0 89 26 40
        E 2 99 26 64
        E 118 89 26 40
        E 2 99 2c 64
        E 0 99 31 64
        E 118 89 2c 40
        E 0 89 31 40
        E 2 99 26 64
        E 118 89 26 40
        E 2 99 24 64
        E 0 99 34 79
        E 118 89 24 40
        E 0 89 34 40
        E 122 99 24 64
        E 0 99 2c 64
        E 0 99 31 71
        E 118 89 24 40
        E 0 89 2c 40
        E 0 89 31 40
        E 122 99 30 76
        E 118 89 30 40
        E 122 99 24 64
        E 0 99 2c 64
        E 0 99 31 64
        E 118 89 24 40
        E 0 89 2c 40
        E 0 89 31 40
        E 122 99 24 64
        E 118 89 24 40
        E 122 99 2c 64
        E 0 99 31 64
        E 118 89 2c 40
        E 0 89 31 40
        E 122 99 24 64
        E 118 89 24 40
        E 2 99 24 64
        E 118 89 24 40
        E 2 99 26 64
        E 0 99 2c 64
        E 0 99 31 64
        E 118 89 26 40
        E 0 89 2c 40
        E 0 89 31 40
        E 122 99 24 64
        E 118 89 24 40
        E 122 99 2c 64
        E 0 99 31 64
        E 118 89 2c 40
        E 0 89 31 40
        E 122 99 24 64
        E 0 99 2e 64
        E 118 89 24 40
        E 0 89 2e 40
        E 122 99 2c 64
        E 0 99 31 64
        E 118 89 2c 40
        E 0 89 31 40
        E 122 99 24 64
        E 0 99 2e 64
        E 118 89 24 40
        E 0 89 2e 40
        E 122 99 24 64
        E 0 99 2c 64
        E 0 99 31 64
        E 118 89 24 40
        E 0 89 2c 40
        E 0 89 31 40
        E 362 99 24 64
        E 0 99 2c 64
        E 0 99 31 64
        E 118 89 24 40
        E 0 89 2c 40
        E 0 89 31 40
        E 122 99 24 64
        E 118 89 24 40
        E 122 99 2c 64
        E 0 99 31 64
        E 118 89 2c 40
        E 0 89 31 40
        E 122 99 24 64
        E 118 89 24 40
        E 2 99 24 64
        E 118 89 24 40
        E 2 99 26 64
        E 0 99 2c 64
        E 0 99 31 64
        E 118 89 26 40
        E 0 89 2c 40
        E 0 89 31 40
        E 122 99 24 64
        E 118 89 24 40
        E 92 99 29 64
        E 30 99 30 64
        E 0 99 2b 64
        E 88 89 29 40
        E 30 89 30 40
        E 0 89 2b 40
        E 122 99 24 64
        E 118 89 24 40
        E 92 99 2b 64
        E 30 99 2f 64
        E 88 89 2b 40
        E 30 89 2f 40
        E 122 99 24 64
        E 118 89 24 40
        E 122 99 24 64
        E 0 99 2c 64
        E 0 99 31 71
        E 118 89 24 40
        E 0 89 2c 40
        E 0 89 31 40
        E 362 99 24 64
        E 0 99 2c 64
        E 0 99 31 64
        E 118 89 24 40
        E 0 89 2c 40
        E 0 89 31 40
        E 122 99 24 64
        E 118 89 24 40
        E 122 99 2c 64
        E 0 99 31 64
        E 118 89 2c 40
        E 0 89 31 40
        E 122 99 24 64
        E 118 89 24 40
        E 2 99 24 64
        E 118 89 24 40
        E 2 99 26 64
        E 0 99 2c 64
        E 0 99 31 64
        E 118 89 26 40
        E 0 89 2c 40
        E 0 89 31 40
        E 122 99 24 64
        E 118 89 24 40
        E 122 99 2c 64
        E 0 99 31 64
        E 118 89 2c 40
        E 0 89 31 40
        E 122 99 24 64
        E 0 99 2e 64
        E 118 89 24 40
        E 0 89 2e 40
        E 122 99 2c 64
        E 0 99 31 64
        E 118 89 2c 40
        E 0 89 31 40
        E 122 99 24 64
        E 0 99 2e 64
        E 118 89 24 40
        E 0 89 2e 40
        E 122 99 24 64
        E 0 99 2c 64
        E 0 99 31 64
        E 118 89 24 40
        E 0 89 2c 40
        E 0 89 31 40
        E 362 99 24 64
        E 0 99 2c 64
        E 0 99 31 64
        E 118 89 24 40
        E 0 89 2c 40
        E 0 89 31 40
        E 122 99 24 64
        E 118 89 24 40
        E 122 99 2c 64
        E 0 99 31 64
        E 118 89 2c 40
        E 0 89 31 40
        E 122 99 24 64
        E 118 89 24 40
        E 122 99 26 64
        E 0 99 2c 64
        E 0 99 31 64
        E 118 89 26 40
        E 0 89 2c 40
        E 0 89 31 40
        E 122 99 24 64
        E 0 99 26 64
        E 118 89 24 40
        E 0 89 26 40
        E 2 99 26 64
        E 118 89 26 40
        E 2 99 2c 64
        E 0 99 31 64
        E 118 89 2c 40
        E 0 89 31 40
        E 2 99 26 64
        E 118 89 26 40
        E 2 99 24 64
        E 0 99 26 64
        E 118 89 24 40
        E 0 89 26 40
        E 2 99 26 64
        E 118 89 26 40
        E 2 99 2c 64
        E 0 99 31 64
        E 118 89 2c 40
        E 0 89 31 40
        E 2 99 26 64
        E 118 89 26 40
        E 2 99 24 64
        E 0 99 34 79
        E 118 89 24 40
        E 0 89 34 40
        E 122 99 24 64
        E 0 99 2c 64
        E 0 99 31 64
        E 118 89 24 40
        E 0 89 2c 40
        E 0 89 31 40
        E 362 99 24 64
        E 0 99 2c 64
        E 0 99 31 64
        E 118 89 24 40
        E 0 89 2c 40
        E 0 89 31 40
        E 122 99 24 64
        E 118 89 24 40
        E 122 99 2c 64
        E 0 99 31 64
        E 118 89 2c 40
        E 0 89 31 40
        E 122 99 24 64
        E 118 89 24 40
        E 2 99 24 64
        E 118 89 24 40
        E 2 99 26 64
        E 0 99 2c 64
        E 0 99 31 64
        E 118 89 26 40
        E 0 89 2c 40
        E 0 89 31 40
        E 122 99 24 64
        E 118 89 24 40
        E 122 99 2c 64
        E 0 99 31 64
        E 118 89 2c 40
        E 0 89 31 40
        E 122 99 24 64
        E 0 99 2e 64
        E 118 89 24 40
        E 0 89 2e 40
        E 122 99 2c 64
        E 0 99 31 64
        E 118 89 2c 40
        E 0 89 31 40
        E 122 99 24 64
        E 0 99 2e 64
        E 118 89 24 40
        E 0 89 2e 40
        E 122 99 24 64
        E 0 99 2c 64
        E 0 99 31 64
        E 118 89 24 40
        E 0 89 2c 40
        E 0 89 31 40
        E 362 99 24 64
        E 0 99 2c 64
        E 0 99 31 64
        E 118 89 24 40
        E 0 89 2c 40
        E 0 89 31 40
        E 122 99 24 64
        E 118 89 24 40
        E 122 99 2c 64
        E 0 99 31 64
        E 118 89 2c 40
        E 0 89 31 40
        E 122 99 24 64
        E 118 89 24 40
        E 122 99 2e 64
        E 0 99 31 64
        E 118 89 2e 40
        E 0 89 31 40
        E 2 99 2c 64
        E 118 89 2c 40
        E 2 99 24 64
        E 0 99 26 47
        E 118 89 24 40
        E 0 89 26 40
        E 2 99 26 55
        E 118 89 26 40
        E 2 99 2c 64
        E 0 99 26 64
        E 0 99 31 64
        E 118 89 2c 40
        E 0 89 26 40
        E 0 89 31 40
        E 2 99 30 64
        E 118 89 30 40
        E 2 99 24 64
        E 0 99 30 64
        E 118 89 24 40
        E 0 89 30 40
        E 2 99 2f 64
        E 118 89 2f 40
        E 2 99 2c 64
        E 0 99 2f 64
        E 0 99 31 64
        E 118 89 2c 40
        E 0 89 2f 40
        E 0 89 31 40
        E 2 99 29 64
        E 118 89 29 40
        E 2 99 24 64
        E 0 99 29 64
        E 118 89 24 40
        E 0 89 29 40
        E 2 99 29 64
        E 118 89 29 40
        E 11522 99 4c 64
        E 118 89 4c 40
        E 2 99 4c 3f
        E 118 89 4c 40
        E 2 99 4c 64
        E 118 89 4c 40
        E 2 99 4c 3f
        E 118 89 4c 40
        E 2 99 4c 64
        E 118 89 4c 40
        E 122 99 4c 52
        E 118 89 4c 40
        E 122 99 4c 45
        E 118 89 4c 40
        E 122 99 4c 52
        E 118 89 4c 40
        E 122 99 4c 7f
        E 118 89 4c 40
        E 122 99 4c 2e
        E 118 89 4c 40
        E 2 99 4c 50
        E 118 89 4c 40
        E 2 99 4c 64
        E 118 89 4c 40
        E 122 99 4c 64
        E 118 89 4c 40
        E 122 99 4c 6e
        E 118 89 4c 40
        E 122 99 4c 76
        E 118 89 4c 40
        E 122 99 4c 64
        E 118 89 4c 40
        E 2 99 4c 3f
        E 118 89 4c 40
        E 2 99 4c 64
        E 118 89 4c 40
        E 2 99 4c 3f
        E 118 89 4c 40
        E 2 99 4c 64
        E 118 89 4c 40
        E 122 99 4c 52
        E 118 89 4c 40
        E 122 99 4c 45
        E 118 89 4c 40
        E 122 99 4c 52
        E 118 89 4c 40
        E 122 99 4c 7f
        E 118 89 4c 40
        E 122 99 4c 2e
        E 118 89 4c 40
        E 2 99 4c 7f
        E 118 89 4c 40
        E 122 99 4c 64
        E 118 89 4c 40
        E 2 99 4c 7c
        E 118 89 4c 40
        E 122 99 4c 6e
        E 118 89 4c 40
        E 122 99 4c 76
        E 118 89 4c 40
        E 122 99 4c 64
        E 118 89 4c 40
        E 2 99 4c 3f
        E 118 89 4c 40
        E 2 99 4c 64
        E 118 89 4c 40
        E 2 99 4c 3f
        E 118 89 4c 40
        E 2 99 4c 64
        E 118 89 4c 40
        E 122 99 4c 52
        E 118 89 4c 40
        E 122 99 4c 45
        E 118 89 4c 40
        E 122 99 4c 52
        E 118 89 4c 40
        E 122 99 4c 7f
        E 118 89 4c 40
        E 122 99 4c 2e
        E 118 89 4c 40
        E 2 99 4c 50
        E 118 89 4c 40
        E 2 99 4c 64
        E 118 89 4c 40
        E 122 99 4c 64
        E 118 89 4c 40
        E 122 99 4c 6e
        E 118 89 4c 40
        E 122 99 4c 76
        E 118 89 4c 40
        E 122 99 4c 64
        E 118 89 4c 40
        E 2 99 4c 3f
        E 118 89 4c 40
        E 2 99 4c 64
        E 118 89 4c 40
        E 2 99 4c 3f
        E 118 89 4c 40
        E 2 99 4c 64
        E 118 89 4c 40
        E 122 99 4c 52
        E 118 89 4c 40
        E 122 99 4c 45
        E 118 89 4c 40
        E 122 99 4c 52
        E 118 89 4c 40
        E 122 99 4c 7f
        E 118 89 4c 40
        E 122 99 4c 2e
        E 118 89 4c 40
        E 2 99 4c 7f
        E 118 89 4c 40
        E 122 99 4c 64
        E 118 89 4c 40
        E 2 99 4c 7c
        E 118 89 4c 40
        E 122 99 4c 6e
        E 118 89 4c 40
        E 122 99 4c 76
        E 118 89 4c 40
        E 122 99 4c 64
        E 118 89 4c 40
        E 2 99 4c 3f
        E 118 89 4c 40
        E 2 99 4c 64
        E 118 89 4c 40
        E 2 99 4c 3f
        E 118 89 4c 40
        E 2 99 4c 64
        E 118 89 4c 40
        E 122 99 4c 52
        E 118 89 4c 40
        E 122 99 4c 45
        E 118 89 4c 40
        E 122 99 4c 52
        E 118 89 4c 40
        E 122 99 4c 7f
        E 118 89 4c 40
        E 122 99 4c 2e
        E 118 89 4c 40
        E 2 99 4c 50
        E 118 89 4c 40
        E 2 99 4c 64
        E 118 89 4c 40
        E 122 99 4c 64
        E 118 89 4c 40
        E 122 99 4c 6e
        E 118 89 4c 40
        E 122 99 4c 76
        E 118 89 4c 40
        E 114 99 30 7f
        E 45 99 30 79
        E 82 99 30 00
        E 22 99 30 00
        E 119 99 30 79
        E 163 99 30 00
        E 290 99 2f 79
        E 195 99 2f 00
        E 52 99 2f 7f
        E 126 99 2f 00
        E 114 99 2f 7f
        E 147 99 2f 00
        E 351 99 2b 7f
        E 92 99 2b 00
        E 2 99 2b 7f
        E 91 99 2b 00
        E 36 99 2b 7f
        E 103 99 2b 00
        E 162 99 2d 7f
        E 103 99 2d 00
        E 113 99 2d 7f
        E 118 89 2d 40
        E 108 99 2d 7f
        E 77 99 2d 00
        E 177 99 24 64
        E 0 99 37 73
        E 118 89 24 40
        E 0 89 37 40
        E 122 99 24 64
        E 118 89 24 40
        E 122 99 35 64
        E 118 89 35 40
        E 122 99 24 64
        E 118 89 24 40
        E 122 99 35 64
        E 118 89 35 40
        E 122 99 24 64
        E 118 89 24 40
        E 122 99 26 64
        E 0 99 35 64
        E 118 89 26 40
        E 0 89 35 40
        E 362 99 24 64
        E 0 99 35 64
        E 118 89 24 40
        E 0 89 35 40
        E 122 99 26 4a
        E 118 89 26 40
        E 2 99 26 4c
        E 118 89 26 40
        E 2 99 35 64
        E 118 89 35 40
        E 122 99 24 64
        E 118 89 24 40
        E 122 99 35 64
        E 118 89 35 40
        E 122 99 26 47
        E 118 89 26 40
        E 122 99 24 64
        E 0 99 35 64
        E 118 89 24 40
        E 0 89 35 40
        E 362 99 24 64
        E 0 99 35 64
        E 118 89 24 40
        E 0 89 35 40
        E 122 99 26 52
        E 118 89 26 40
        E 122 99 24 64
        E 0 99 26 64
        E 0 99 35 64
        E 118 89 24 40
        E 0 89 26 40
        E 0 89 35 40
        E 362 99 35 64
        E 118 89 35 40
        E 362 99 35 64
        E 118 89 35 40
        E 362 99 24 64
        E 0 99 35 64
        E 118 89 24 40
        E 0 89 35 40
        E 122 99 24 64
        E 118 89 24 40
        E 122 99 35 64
        E 118 89 35 40
        E 122 99 24 64
        E 118 89 24 40
        E 122 99 35 64
        E 118 89 35 40
        E 122 99 24 64
        E 118 89 24 40
        E 122 99 26 64
        E 0 99 35 64
        E 118 89 26 40
        E 0 89 35 40
        E 362 99 24 64
        E 0 99 35 64
        E 118 89 24 40
        E 0 89 35 40
        E 122 99 26 4a
        E 118 89 26 40
        E 2 99 26 4c
        E 118 89 26 40
        E 2 99 35 64
        E 118 89 35 40
        E 122 99 24 64
        E 118 89 24 40
        E 122 99 35 64
        E 118 89 35 40
        E 122 99 26 47
        E 118 89 26 40
        E 122 99 24 64
        E 0 99 35 64
        E 118 89 24 40
        E 0 89 35 40
        E 362 99 24 64
        E 0 99 35 64
        E 118 89 24 40
        E 0 89 35 40
        E 122 99 26 52
        E 118 89 26 40
        E 122 99 24 64
        E 0 99 26 69
        E 0 99 35 64
        E 118 89 24 40
        E 0 89 26 40
        E 0 89 35 40
        E 42 99 26 32
        E 118 89 26 40
        E 42 99 26 4c
        E 118 89 26 40
        E 42 99 26 1d
        E 0 99 35 64
        E 118 89 26 40
        E 0 89 35 40
        E 42 99 26 42
        E 118 89 26 40
        E 42 99 26 1f
        E 118 89 26 40
        E 42 99 26 2f
        E 0 99 35 64
        E 118 89 26 40
        E 0 89 35 40
        E 42 99 26 17
        E 118 89 26 40
        E 42 99 26 25
        E 118 89 26 40
        E 42 99 24 64
        E 0 99 26 25
        E 0 99 35 64
        E 0 99 37 73
        E 118 89 24 40
        E 0 89 26 40
        E 0 89 35 40
        E 0 89 37 40
        E 122 99 24 64
        E 118 89 24 40
        E 122 99 35 64
        E 118 89 35 40
        E 122 99 24 64
        E 118 89 24 40
        E 122 99 35 64
        E 118 89 35 40
        E 122 99 24 64
        E 118 89 24 40
        E 122 99 26 64
        E 0 99 35 64
        E 118 89 26 40
        E 0 89 35 40
        E 362 99 24 64
        E 0 99 35 64
        E 118 89 24 40
        E 0 89 35 40
        E 122 99 26 4a
        E 118 89 26 40
        E 2 99 26 4c
        E 118 89 26 40
        E 2 99 35 64
        E 118 89 35 40
        E 122 99 24 64
        E 118 89 24 40
        E 122 99 35 64
        E 118 89 35 40
        E 122 99 26 47
        E 118 89 26 40
        E 122 99 24 64
        E 0 99 35 64
        E 118 89 24 40
        E 0 89 35 40
        E 362 99 24 64
        E 0 99 35 64
        E 118 89 24 40
        E 0 89 35 40
        E 122 99 26 52
        E 118 89 26 40
        E 122 99 24 64
        E 0 99 26 64
        E 0 99 35 64
        E 118 89 24 40
        E 0 89 26 40
        E 0 89 35 40
        E 362 99 35 64
        E 118 89 35 40
        E 362 99 35 64
        E 118 89 35 40
        E 362 99 24 64
        E 0 99 35 64
        E 118 89 24 40
        E 0 89 35 40
        E 122 99 24 64
        E 118 89 24 40
        E 122 99 35 64
        E 118 89 35 40
        E 122 99 24 64
        E 118 89 24 40
        E 122 99 35 64
        E 118 89 35 40
        E 122 99 24 64
        E 118 89 24 40
        E 122 99 26 64
        E 0 99 35 64
        E 118 89 26 40
        E 0 89 35 40
        E 362 99 24 64
        E 0 99 35 64
        E 118 89 24 40
        E 0 89 35 40
        E 122 99 26 4a
        E 118 89 26 40
        E 2 99 26 4c
        E 118 89 26 40
        E 2 99 35 64
        E 118 89 35 40
        E 122 99 24 64
        E 118 89 24 40
        E 122 99 2d 52
        E 0 99 30 52
        E 0 99 37 64
        E 118 89 2d 40
        E 0 89 30 40
        E 0 89 37 40
        E 122 99 2d 58
        E 0 99 30 68
        E 118 89 2d 40
        E 0 89 30 40
        E 122 99 2d 66
        E 0 99 30 6e
        E 118 89 2d 40
        E 0 89 30 40
        E 122 99 2d 68
        E 0 99 30 71
        E 118 89 2d 40
        E 0 89 30 40
        E 122 99 2d 6e
        E 0 99 30 7c
        E 118 89 2d 40
        E 0 89 30 40
        E 122 99 2d 71
        E 0 99 30 7f
        E 118 89 2d 40
        E 0 89 30 40
        E 122 99 2d 7f
        E 0 99 30 7f
        E 118 89 2d 40
        E 0 89 30 40
        E 122 99 2d 7f
        E 0 99 30 7f
        E 118 89 2d 40
        E 0 89 30 40
        E 122 99 2d 7f
        E 0 99 30 7f
        E 118 89 2d 40
        E 0 89 30 40
        E 122 99 2d 7f
        E 0 99 30 7f
        E 118 89 2d 40
        E 0 89 30 40
        E 122 99 2d 7f
        E 0 99 30 7f
        E 118 89 2d 40
        E 0 89 30 40
        E 122 99 2d 7f
        E 0 99 30 7f
        E 118 89 2d 40
        E 0 89 30 40
        E 122 99 31 64
        E 118 89 31 40
        E 122 99 31 26
        E 118 89 31 40
        E 122 99 24 61
        E 0 99 31 64
        E 104 99 24 00
        E 14 89 31 40
        E 122 99 24 61
        E 0 99 31 2c
        E 118 89 31 40
        E 98 99 24 00
        E 24 99 31 64
        E 118 89 31 40
        E 122 99 24 61
        E 0 99 31 2e
        E 118 89 31 40
        E 32 99 24 00
        E 90 99 28 61
        E 0 99 31 64
        E 114 99 28 00
        E 4 89 31 40
        E 122 99 31 2e
        E 118 89 31 40
        E 122 99 31 64
        E 118 89 31 40
        E 122 99 31 29
        E 118 89 31 40
        E 122 99 31 64
        E 118 89 31 40
        E 122 99 31 2e
        E 118 89 31 40
        E 122 99 24 61
        E 0 99 31 64
        E 118 89 31 40
        E 28 99 24 00
        E 94 99 31 2e
        E 118 89 31 40
        E 122 99 24 61
        E 0 99 31 64
        E 89 99 24 00
        E 29 89 31 40
        E 122 99 24 61
        E 0 99 31 2e
        E 118 89 31 40
        E 110 99 24 00
        E 12 99 31 64
        E 118 89 31 40
        E 122 99 24 61
        E 0 99 31 2e
        E 118 89 31 40
        E 20 99 24 00
        E 102 99 28 61
        E 0 99 31 64
        E 118 89 31 40
        E 19 99 28 00
        E 103 99 31 2e
        E 118 89 31 40
        E 122 99 31 64
        E 118 89 31 40
        E 122 99 31 34
        E 118 89 31 40
        E 122 99 31 64
        E 118 89 31 40
        E 122 99 31 34
        E 118 89 31 40
        E 122 99 24 61
        E 0 99 31 64
        E 104 99 24 00
        E 14 89 31 40
        E 122 99 31 37
        E 118 89 31 40
        E 122 99 24 61
        E 0 99 31 64
        E 90 99 24 00
        E 28 89 31 40
        E 122 99 24 61
        E 0 99 31 2c
        E 118 89 31 40
        E 54 99 24 00
        E 68 99 31 64
        E 118 89 31 40
        E 122 99 24 61
        E 0 99 31 34
        E 103 99 24 00
        E 15 89 31 40
        E 122 99 28 61
        E 0 99 31 64
        E 118 89 31 40
        E 19 99 28 00
        E 103 99 31 34
        E 118 89 31 40
        E 122 99 31 64
        E 118 89 31 40
        E 122 99 31 2e
        E 118 89 31 40
        E 122 99 31 64
        E 118 89 31 40
        E 122 99 31 37
        E 118 89 31 40
        E 122 99 31 64
        E 118 89 31 40
        E 122 99 31 2c
        E 118 89 31 40
        E 122 99 24 61
        E 0 99 31 64
        E 101 99 24 00
        E 17 89 31 40
        E 122 99 24 61
        E 0 99 31 34
        E 118 89 31 40
        E 43 99 24 00
        E 79 99 31 64
        E 118 89 31 40
        E 122 99 24 61
        E 0 99 31 34
        E 114 99 24 00
        E 4 89 31 40
        E 122 99 28 61
        E 0 99 31 64
        E 115 99 28 00
        E 3 89 31 40
        E 122 99 24 61
        E 0 99 31 2e
        E 118 89 31 40
        E 29 99 24 00
        E 333 99 24 61
        E 218 99 24 00
        E 262 99 24 61
        E 104 99 24 00
        E 136 99 31 64
        E 118 89 31 40
        E 122 99 31 26
        E 118 89 31 40
        E 122 99 24 61
        E 0 99 31 64
        E 104 99 24 00
        E 14 89 31 40
        E 122 99 24 61
        E 0 99 31 2c
        E 118 89 31 40
        E 98 99 24 00
        E 24 99 31 64
        E 118 89 31 40
        E 122 99 24 61
        E 0 99 31 2e
        E 118 89 31 40
        E 32 99 24 00
        E 90 99 28 61
        E 0 99 31 64
        E 114 99 28 00
        E 4 89 31 40
        E 122 99 31 2e
        E 118 89 31 40
        E 122 99 31 64
        E 118 89 31 40
        E 122 99 31 29
        E 118 89 31 40
        E 122 99 31 64
        E 118 89 31 40
        E 122 99 31 2e
        E 118 89 31 40
        E 122 99 24 61
        E 0 99 31 64
        E 118 89 31 40
        E 28 99 24 00
        E 94 99 31 2e
        E 118 89 31 40
        E 122 99 24 61
        E 0 99 31 64
        E 89 99 24 00
        E 29 89 31 40
        E 122 99 24 61
        E 0 99 31 2e
        E 118 89 31 40
        E 110 99 24 00
        E 12 99 31 64
        E 118 89 31 40
        E 122 99 24 61
        E 0 99 31 2e
        E 118 89 31 40
        E 20 99 24 00
        E 102 99 28 61
        E 0 99 31 64
        E 118 89 31 40
        E 19 99 28 00
        E 103 99 31 2e
        E 118 89 31 40
        E 122 99 31 64
        E 118 89 31 40
        E 122 99 31 34
        E 118 89 31 40
        E 122 99 31 64
        E 118 89 31 40
        E 122 99 31 34
        E 118 89 31 40
        E 122 99 24 61
        E 0 99 31 64
        E 104 99 24 00
        E 14 89 31 40
        E 122 99 31 37
        E 118 89 31 40
        E 122 99 24 61
        E 0 99 31 64
        E 90 99 24 00
        E 28 89 31 40
        E 122 99 24 61
        E 0 99 31 2c
        E 118 89 31 40
        E 54 99 24 00
        E 68 99 31 64
        E 118 89 31 40
        E 122 99 24 61
        E 0 99 31 34
        E 103 99 24 00
        E 15 89 31 40
        E 122 99 28 61
        E 0 99 31 64
        E 118 89 31 40
        E 19 99 28 00
        E 103 99 31 34
        E 118 89 31 40
        E 122 99 31 64
        E 118 89 31 40
        E 122 99 31 2e
        E 118 89 31 40
        E 122 99 31 64
        E 118 89 31 40
        E 122 99 31 37
        E 118 89 31 40
        E 122 99 31 64
        E 118 89 31 40
        E 122 99 31 2c
        E 118 89 31 40
        E 122 99 24 61
        E 0 99 31 64
        E 101 99 24 00
        E 17 89 31 40
        E 122 99 24 61
        E 0 99 31 34
        E 118 89 31 40
        E 43 99 24 00
        E 79 99 31 64
        E 118 89 31 40
        E 122 99 24 61
        E 0 99 31 34
        E 114 99 24 00
        E 4 89 31 40
        E 122 99 28 61
        E 0 99 31 64
        E 115 99 28 00
        E 3 89 31 40
        E 122 99 24 61
        E 0 99 31 2e
        E 118 89 31 40
        E 29 99 24 00
        E 333 99 24 61
        E 218 99 24 00
        E 262 99 24 61
        E 104 99 24 00
        E 136 99 31 64
        E 118 89 31 40
        E 122 99 31 26
        E 118 89 31 40
        E 122 99 24 61
        E 0 99 31 64
        E 104 99 24 00
        E 14 89 31 40
        E 122 99 24 61
        E 0 99 31 2c
        E 118 89 31 40
        E 98 99 24 00
        E 24 99 31 64
        E 118 89 31 40
        E 122 99 24 61
        E 0 99 31 2e
        E 118 89 31 40
        E 32 99 24 00
        E 90 99 28 61
        E 0 99 31 64
        E 114 99 28 00
        E 4 89 31 40
        E 122 99 31 2e
        E 118 89 31 40
        E 122 99 31 64
        E 118 89 31 40
        E 122 99 31 29
        E 118 89 31 40
        E 122 99 31 64
        E 118 89 31 40
        E 122 99 31 2e
        E 118 89 31 40
        E 122 99 24 61
        E 0 99 31 64
        E 118 89 31 40
        E 28 99 24 00
        E 94 99 31 2e
        E 118 89 31 40
        E 122 99 24 61
        E 0 99 31 64
        E 89 99 24 00
        E 29 89 31 40
        E 122 99 24 61
        E 0 99 31 2e
        E 118 89 31 40
        E 110 99 24 00
        E 12 99 31 64
        E 118 89 31 40
        E 122 99 24 61
        E 0 99 31 2e
        E 118 89 31 40
        E 20 99 24 00
        E 102 99 28 61
        E 0 99 31 64
        E 118 89 31 40
        E 19 99 28 00
        E 103 99 31 2e
        E 118 89 31 40
        E 122 99 31 64
        E 118 89 31 40
        E 122 99 31 34
        E 118 89 31 40
        E 122 99 31 64
        E 118 89 31 40
        E 122 99 31 34
        E 118 89 31 40
        E 122 99 24 61
        E 0 99 31 64
        E 104 99 24 00
        E 14 89 31 40
        E 122 99 31 37
        E 118 89 31 40
        E 122 99 24 61
        E 0 99 31 64
        E 90 99 24 00
        E 28 89 31 40
        E 122 99 24 61
        E 0 99 31 2c
        E 118 89 31 40
        E 54 99 24 00
        E 68 99 31 64
        E 118 89 31 40
        E 122 99 24 61
        E 0 99 31 34
        E 103 99 24 00
        E 15 89 31 40
        E 122 99 28 61
        E 0 99 31 64
        E 118 89 31 40
        E 19 99 28 00
        E 103 99 31 34
        E 118 89 31 40
        E 122 99 31 64
        E 118 89 31 40
        E 122 99 31 2e
        E 118 89 31 40
        E 122 99 31 64
        E 118 89 31 40
        E 122 99 31 37
        E 118 89 31 40
        E 122 99 31 64
        E 118 89 31 40
        E 122 99 31 2c
        E 118 89 31 40
        E 122 99 24 61
        E 0 99 31 64
        E 101 99 24 00
        E 17 89 31 40
        E 122 99 24 61
        E 0 99 31 34
        E 118 89 31 40
        E 43 99 24 00
        E 79 99 31 64
        E 118 89 31 40
        E 122 99 24 61
        E 0 99 31 34
        E 114 99 24 00
        E 4 89 31 40
        E 122 99 28 61
        E 0 99 31 64
        E 115 99 28 00
        E 3 89 31 40
        E 122 99 24 61
        E 0 99 31 2e
        E 118 89 31 40
        E 29 99 24 00
        E 333 99 24 61
        E 218 99 24 00
        E 262 99 24 61
        E 104 99 24 00
        E 136 99 31 64
        E 118 89 31 40
        E 122 99 31 26
        E 118 89 31 40
        E 122 99 24 61
        E 0 99 31 64
        E 104 99 24 00
        E 14 89 31 40
        E 122 99 24 61
        E 0 99 31 2c
        E 118 89 31 40
        E 98 99 24 00
        E 24 99 31 64
        E 118 89 31 40
        E 122 99 24 61
        E 0 99 31 2e
        E 118 89 31 40
        E 32 99 24 00
        E 90 99 28 61
        E 0 99 31 64
        E 114 99 28 00
        E 4 89 31 40
        E 122 99 31 2e
        E 118 89 31 40
        E 122 99 31 64
        E 118 89 31 40
        E 122 99 31 29
        E 118 89 31 40
        E 122 99 31 64
        E 118 89 31 40
        E 122 99 31 2e
        E 118 89 31 40
        E 122 99 24 61
        E 0 99 31 64
        E 118 89 31 40
        E 28 99 24 00
        E 94 99 31 2e
        E 118 89 31 40
        E 122 99 24 61
        E 0 99 31 64
        E 89 99 24 00
        E 29 89 31 40
        E 122 99 24 61
        E 0 99 31 2e
        E 118 89 31 40
        E 110 99 24 00
        E 12 99 31 64
        E 118 89 31 40
        E 122 99 24 61
        E 0 99 31 2e
        E 118 89 31 40
        E 20 99 24 00
        E 102 99 28 61
        E 0 99 31 64
        E 118 89 31 40
        E 19 99 28 00
        E 103 99 31 2e
        E 118 89 31 40
        E 122 99 31 64
        E 118 89 31 40
        E 122 99 31 34
        E 118 89 31 40
        E 122 99 31 64
        E 118 89 31 40
        E 122 99 31 34
        E 118 89 31 40
        E 122 99 24 61
        E 0 99 31 64
        E 104 99 24 00
        E 14 89 31 40
        E 122 99 31 37
        E 118 89 31 40
        E 122 99 24 61
        E 0 99 31 64
        E 90 99 24 00
        E 28 89 31 40
        E 122 99 24 61
        E 0 99 31 2c
        E 118 89 31 40
        E 54 99 24 00
        E 68 99 31 64
        E 118 89 31 40
        E 122 99 24 61
        E 0 99 31 34
        E 103 99 24 00
        E 15 89 31 40
        E 122 99 28 61
        E 0 99 31 64
        E 118 89 31 40
        E 19 99 28 00
        E 103 99 31 34
        E 118 89 31 40
        E 122 99 31 64
        E 118 89 31 40
        E 122 99 31 2e
        E 118 89 31 40
        E 122 99 31 64
        E 118 89 31 40
        E 122 99 31 37
        E 118 89 31 40
        E 122 99 31 64
        E 118 89 31 40
        E 122 99 31 2c
        E 118 89 31 40
        E 122 99 24 61
        E 0 99 31 64
        E 101 99 24 00
        E 17 89 31 40
        E 122 99 24 61
        E 0 99 31 34
        E 118 89 31 40
        E 43 99 24 00
        E 79 99 31 64
        E 118 89 31 40
        E 122 99 24 61
        E 0 99 31 34
        E 114 99 24 00
        E 4 89 31 40
        E 122 99 28 61
        E 0 99 31 64
        E 115 99 28 00
        E 3 89 31 40
        E 122 99 24 61
        E 0 99 31 2e
        E 118 89 31 40
        E 29 99 24 00
        E 333 99 24 61
        E 218 99 24 00
        E 262 99 24 61
        E 104 99 24 00
        E 136 99 31 64
        E 118 89 31 40
        E 122 99 31 26
        E 118 89 31 40
        E 122 99 24 61
        E 0 99 31 64
        E 104 99 24 00
        E 14 89 31 40
        E 122 99 24 61
        E 0 99 31 2c
        E 118 89 31 40
        E 98 99 24 00
        E 24 99 31 64
        E 118 89 31 40
        E 122 99 24 61
        E 0 99 31 2e
        E 118 89 31 40
        E 32 99 24 00
        E 90 99 28 61
        E 0 99 31 64
        E 114 99 28 00
        E 4 89 31 40
        E 122 99 31 2e
        E 118 89 31 40
        E 122 99 31 64
        E 118 89 31 40
        E 122 99 31 29
        E 118 89 31 40
        E 122 99 31 64
        E 118 89 31 40
        E 122 99 31 2e
        E 118 89 31 40
        E 122 99 24 61
        E 0 99 31 64
        E 118 89 31 40
        E 28 99 24 00
        E 94 99 31 2e
        E 118 89 31 40
        E 122 99 24 61
        E 0 99 31 64
        E 89 99 24 00
        E 29 89 31 40
        E 122 99 24 61
        E 0 99 31 2e
        E 118 89 31 40
        E 110 99 24 00
        E 12 99 31 64
        E 118 89 31 40
        E 122 99 24 61
        E 0 99 31 2e
        E 118 89 31 40
        E 20 99 24 00
        E 102 99 28 61
        E 0 99 31 64
        E 118 89 31 40
        E 19 99 28 00
        E 103 99 31 2e
        E 118 89 31 40
        E 122 99 31 64
        E 118 89 31 40
        E 122 99 31 34
        E 118 89 31 40
        E 122 99 31 64
        E 118 89 31 40
        E 122 99 31 34
        E 118 89 31 40
        E 122 99 24 61
        E 0 99 31 64
        E 104 99 24 00
        E 14 89 31 40
        E 122 99 31 37
        E 118 89 31 40
        E 122 99 24 61
        E 0 99 31 64
        E 90 99 24 00
        E 28 89 31 40
        E 122 99 24 61
        E 0 99 31 2c
        E 118 89 31 40
        E 54 99 24 00
        E 68 99 31 64
        E 118 89 31 40
        E 122 99 24 61
        E 0 99 31 34
        E 103 99 24 00
        E 15 89 31 40
        E 122 99 28 61
        E 0 99 31 64
        E 118 89 31 40
        E 19 99 28 00
        E 103 99 31 34
        E 118 89 31 40
        E 122 99 31 64
        E 118 89 31 40
        E 122 99 31 2e
        E 118 89 31 40
        E 122 99 31 64
        E 118 89 31 40
        E 122 99 31 37
        E 118 89 31 40
        E 122 99 31 64
        E 118 89 31 40
        E 122 99 31 2c
        E 118 89 31 40
        E 122 99 24 61
        E 0 99 31 64
        E 101 99 24 00
        E 17 89 31 40
        E 122 99 24 61
        E 0 99 31 34
        E 118 89 31 40
        E 43 99 24 00
        E 79 99 31 64
        E 118 89 31 40
        E 122 99 24 61
        E 0 99 31 34
        E 114 99 24 00
        E 4 89 31 40
        E 122 99 28 61
        E 0 99 31 64
        E 115 99 28 00
        E 3 89 31 40
        E 122 99 24 61
        E 0 99 31 2e
        E 118 89 31 40
        E 29 99 24 00
        E 333 99 24 61
        E 218 99 24 00
        E 262 99 24 61
        E 104 99 24 00
        E 136 99 31 64
        E 118 89 31 40
        E 122 99 31 26
        E 118 89 31 40
        E 122 99 24 61
        E 0 99 31 64
        E 104 99 24 00
        E 14 89 31 40
        E 122 99 24 61
        E 0 99 31 2c
        E 118 89 31 40
        E 98 99 24 00
        E 24 99 31 64
        E 118 89 31 40
        E 122 99 24 61
        E 0 99 31 2e
        E 118 89 31 40
        E 32 99 24 00
        E 90 99 28 61
        E 0 99 31 64
        E 114 99 28 00
        E 4 89 31 40
        E 122 99 31 2e
        E 118 89 31 40
        E 122 99 31 64
        E 118 89 31 40
        E 122 99 31 29
        E 118 89 31 40
        E 122 99 31 64
        E 118 89 31 40
        E 122 99 31 2e
        E 118 89 31 40
        E 122 99 24 61
        E 0 99 31 64
        E 118 89 31 40
        E 28 99 24 00
        E 94 99 31 2e
        E 118 89 31 40
        E 122 99 24 61
        E 0 99 31 64
        E 89 99 24 00
        E 29 89 31 40
        E 122 99 24 61
        E 0 99 31 2e
        E 118 89 31 40
        E 110 99 24 00
        E 12 99 31 64
        E 118 89 31 40
        E 122 99 24 61
        E 0 99 31 2e
        E 118 89 31 40
        E 20 99 24 00
        E 102 99 28 61
        E 0 99 31 64
        E 118 89 31 40
        E 19 99 28 00
        E 103 99 31 2e
        E 118 89 31 40
        E 122 99 31 64
        E 118 89 31 40
        E 122 99 31 34
        E 118 89 31 40
        E 122 99 31 64
        E 118 89 31 40
        E 122 99 31 34
        E 118 89 31 40
        E 122 99 24 61
        E 0 99 31 64
        E 104 99 24 00
        E 14 89 31 40
        E 122 99 31 37
        E 118 89 31 40
        E 122 99 24 61
        E 0 99 31 64
        E 90 99 24 00
        E 28 89 31 40
        E 122 99 24 61
        E 0 99 31 2c
        E 118 89 31 40
        E 54 99 24 00
        E 68 99 31 64
        E 118 89 31 40
        E 122 99 24 61
        E 0 99 31 34
        E 103 99 24 00
        E 15 89 31 40
        E 122 99 28 61
        E 0 99 31 64
        E 118 89 31 40
        E 19 99 28 00
        E 103 99 31 34
        E 118 89 31 40
        E 122 99 31 64
        E 118 89 31 40
        E 122 99 31 2e
        E 118 89 31 40
        E 122 99 31 64
        E 118 89 31 40
        E 122 99 31 37
        E 118 89 31 40
        E 122 99 31 64
        E 118 89 31 40
        E 122 99 31 2c
        E 118 89 31 40
        E 122 99 24 61
        E 0 99 31 64
        E 101 99 24 00
        E 17 89 31 40
        E 122 99 24 61
        E 0 99 31 34
        E 118 89 31 40
        E 43 99 24 00
        E 79 99 31 64
        E 118 89 31 40
        E 122 99 24 61
        E 0 99 31 34
        E 114 99 24 00
        E 4 89 31 40
        E 122 99 28 61
        E 0 99 31 64
        E 115 99 28 00
        E 3 89 31 40
        E 122 99 24 61
        E 0 99 31 2e
        E 118 89 31 40
        E 29 99 24 00
        E 333 99 24 61
        E 218 99 24 00
        E 262 99 24 61
        E 104 99 24 00
        E 136 99 31 64
        E 118 89 31 40
        E 122 99 31 26
        E 118 89 31 40
        E 122 99 24 61
        E 0 99 31 64
        E 104 99 24 00
        E 14 89 31 40
        E 122 99 24 61
        E 0 99 31 2c
        E 118 89 31 40
        E 98 99 24 00
        E 24 99 31 64
        E 118 89 31 40
        E 122 99 24 61
        E 0 99 31 2e
        E 118 89 31 40
        E 32 99 24 00
        E 90 99 28 61
        E 0 99 31 64
        E 114 99 28 00
        E 4 89 31 40
        E 122 99 31 2e
        E 118 89 31 40
        E 122 99 31 64
        E 118 89 31 40
        E 122 99 31 29
        E 118 89 31 40
        E 122 99 31 64
        E 118 89 31 40
        E 122 99 31 2e
        E 118 89 31 40
        E 122 99 24 61
        E 0 99 31 64
        E 118 89 31 40
        E 28 99 24 00
        E 94 99 31 2e
        E 118 89 31 40
        E 122 99 24 61
        E 0 99 31 64
        E 89 99 24 00
        E 29 89 31 40
        E 122 99 24 61
        E 0 99 31 2e
        E 118 89 31 40
        E 110 99 24 00
        E 12 99 31 64
        E 118 89 31 40
        E 122 99 24 61
        E 0 99 31 2e
        E 118 89 31 40
        E 20 99 24 00
        E 102 99 28 61
        E 0 99 31 64
        E 118 89 31 40
        E 19 99 28 00
        E 103 99 31 2e
        E 118 89 31 40
        E 122 99 31 64
        E 118 89 31 40
        E 122 99 31 34
        E 118 89 31 40
        E 122 99 31 64
        E 118 89 31 40
        E 122 99 31 34
        E 118 89 31 40
        E 122 99 24 61
        E 0 99 31 64
        E 104 99 24 00
        E 14 89 31 40
        E 122 99 31 37
        E 118 89 31 40
        E 122 99 24 61
        E 0 99 31 64
        E 90 99 24 00
        E 28 89 31 40
        E 122 99 24 61
        E 0 99 31 2c
        E 118 89 31 40
        E 54 99 24 00
        E 68 99 31 64
        E 118 89 31 40
        E 122 99 24 61
        E 0 99 31 34
        E 103 99 24 00
        E 15 89 31 40
        E 122 99 28 61
        E 0 99 31 64
        E 118 89 31 40
        E 19 99 28 00
        E 103 99 31 34
        E 118 89 31 40
        E 122 99 31 64
        E 118 89 31 40
        E 122 99 31 2e
        E 118 89 31 40
        E 122 99 31 64
        E 118 89 31 40
        E 122 99 31 37
        E 118 89 31 40
        E 122 99 31 64
        E 118 89 31 40
        E 122 99 31 2c
        E 118 89 31 40
        E 122 99 24 61
        E 0 99 31 64
        E 101 99 24 00
        E 17 89 31 40
        E 122 99 24 61
        E 0 99 31 34
        E 118 89 31 40
        E 43 99 24 00
        E 79 99 31 64
        E 118 89 31 40
        E 122 99 24 61
        E 0 99 31 34
        E 114 99 24 00
        E 4 89 31 40
        E 122 99 28 61
        E 0 99 31 64
        E 115 99 28 00
        E 3 89 31 40
        E 122 99 24 61
        E 0 99 31 2e
        E 118 89 31 40
        E 29 99 24 00
        E 333 99 24 61
        E 218 99 24 00
        E 262 99 24 61
        E 104 99 24 00
        E 136 99 31 64
        E 118 89 31 40
        E 122 99 31 26
        E 118 89 31 40
        E 122 99 24 61
        E 0 99 31 64
        E 104 99 24 00
        E 14 89 31 40
        E 122 99 24 61
        E 0 99 31 2c
        E 118 89 31 40
        E 98 99 24 00
        E 24 99 31 64
        E 118 89 31 40
        E 122 99 24 61
        E 0 99 31 2e
        E 118 89 31 40
        E 32 99 24 00
        E 90 99 28 61
        E 0 99 31 64
        E 114 99 28 00
        E 4 89 31 40
        E 122 99 31 2e
        E 118 89 31 40
        E 122 99 31 64
        E 118 89 31 40
        E 122 99 31 29
        E 118 89 31 40
        E 122 99 31 64
        E 118 89 31 40
        E 122 99 31 2e
        E 118 89 31 40
        E 122 99 24 61
        E 0 99 31 64
        E 118 89 31 40
        E 28 99 24 00
        E 94 99 31 2e
        E 118 89 31 40
        E 122 99 24 61
        E 0 99 31 64
        E 89 99 24 00
        E 29 89 31 40
        E 122 99 24 61
        E 0 99 31 2e
        E 118 89 31 40
        E 110 99 24 00
        E 12 99 31 64
        E 118 89 31 40
        E 122 99 24 61
        E 0 99 31 2e
        E 118 89 31 40
        E 20 99 24 00
        E 102 99 28 61
        E 0 99 31 64
        E 118 89 31 40
        E 19 99 28 00
        E 103 99 31 2e
        E 118 89 31 40
        E 122 99 31 64
        E 118 89 31 40
        E 122 99 31 34
        E 118 89 31 40
        E 122 99 31 64
        E 118 89 31 40
        E 122 99 31 34
        E 118 89 31 40
        E 122 99 24 61
        E 0 99 31 64
        E 104 99 24 00
        E 14 89 31 40
        E 122 99 31 37
        E 118 89 31 40
        E 122 99 24 61
        E 0 99 31 64
        E 90 99 24 00
        E 28 89 31 40
        E 122 99 24 61
        E 0 99 31 2c
        E 118 89 31 40
        E 54 99 24 00
        E 68 99 31 64
        E 118 89 31 40
        E 122 99 24 61
        E 0 99 31 34
        E 103 99 24 00
        E 15 89 31 40
        E 122 99 28 61
        E 0 99 31 64
        E 118 89 31 40
        E 19 99 28 00
        E 103 99 31 34
        E 118 89 31 40
        E 122 99 31 64
        E 118 89 31 40
        E 122 99 31 2e
        E 118 89 31 40
        E 122 99 31 64
        E 118 89 31 40
        E 122 99 31 37
        E 118 89 31 40
        E 122 99 31 64
        E 118 89 31 40
        E 122 99 31 2c
        E 118 89 31 40
        E 122 99 24 61
        E 0 99 31 64
        E 101 99 24 00
        E 17 89 31 40
        E 122 99 24 61
        E 0 99 31 34
        E 118 89 31 40
        E 43 99 24 00
        E 79 99 31 64
        E 118 89 31 40
        E 122 99 24 61
        E 0 99 31 34
        E 114 99 24 00
        E 4 89 31 40
        E 122 99 28 61
        E 0 99 31 64
        E 115 99 28 00
        E 3 89 31 40
        E 122 99 24 61
        E 0 99 31 2e
        E 118 89 31 40
        E 29 99 24 00
        E 333 99 24 61
        E 218 99 24 00
        E 262 99 24 61
        E 104 99 24 00
        E 391816 99 37 17
        E 70 89 37 40
        E 60 99 37 14
        E 58 89 37 40
        E 50 99 37 19
        E 58 89 37 40
        E 60 99 37 1a
        E 58 89 37 40
        E 56 99 37 25
        E 58 89 37 40
        E 62 99 37 1e
        E 58 89 37 40
        E 62 99 37 27
        E 58 89 37 40
        E 60 99 37 34
        E 58 89 37 40
        E 54 99 37 44
        E 58 89 37 40
        E 60 99 37 3e
        E 58 89 37 40
        E 54 99 37 52
        E 58 89 37 40
        E 64 99 37 4d
        E 58 89 37 40
        E 60 99 37 5f
        E 58 89 37 40
        E 70 99 37 53
        E 58 89 37 40
        E 58 99 37 6b
        E 58 89 37 40
        E 72 99 37 64
        E 58 89 37 40
        E 60 99 37 1b
        E 18 99 37 16
        E 58 89 37 40
        E 14 99 37 12
        E 26 99 37 3e
        E 32 89 37 40
        E 24 99 37 1b
        E 2 89 37 40
        E 54 99 37 52
        E 2 89 37 40
        E 28 99 37 0e
        E 28 89 37 40
        E 30 89 37 40
        E 30 99 37 21
        E 4 99 37 4d
        E 54 89 37 40
        E 4 89 37 40
        E 18 99 37 1a
        E 42 99 37 5f
        E 16 89 37 40
        E 24 99 37 24
        E 18 89 37 40
        E 40 89 37 40
        E 16 99 37 1a
        E 14 99 37 53
        E 44 89 37 40
        E 14 89 37 40
        E 10 99 37 23
        E 48 99 37 6b
        E 10 89 37 40
        E 26 99 37 19
        E 22 89 37 40
        E 36 89 37 40
        E 22 99 37 23
        E 14 99 37 64
        E 44 89 37 40
        E 12 99 37 28
        E 2 89 37 40
        E 56 89 37 40
        E 4 99 37 1b
        E 972 89 37 40
        E 960 89 37 40
        E 4806 99 24 7e
        E 8 99 19 7c
        E 50 89 24 40
        E 8 89 19 40
        E 175 99 26 28
        E 1 99 19 25
        E 57 89 26 40
        E 1 89 19 40
        E 182 99 19 77
        E 58 89 19 40
        E 174 99 26 22
        E 58 89 26 40
        E 190 99 26 7e
        E 5 99 19 7c
        E 53 89 26 40
        E 5 89 19 40
        E 182 99 19 37
        E 58 89 19 40
        E 176 99 19 7c
        E 58 89 19 40
        E 181 99 26 2b
        E 4 99 24 7a
        E 0 99 19 27
        E 54 89 26 40
        E 4 89 24 40
        E 0 89 19 40
        E 184 99 19 7c
        E 58 89 19 40
        E 181 99 26 43
        E 58 89 26 40
        E 176 99 24 7b
        E 6 99 19 73
        E 52 89 24 40
        E 6 89 19 40
        E 180 99 26 2f
        E 58 89 26 40
        E 176 99 26 7e
        E 6 99 19 7c
        E 52 89 26 40
        E 6 89 19 40
        E 186 99 19 39
        E 58 89 19 40
        E 179 99 19 77
        E 58 89 19 40
        E 178 99 24 5b
        E 5 99 26 2a
        E 3 99 19 37
        E 50 89 24 40
        E 5 89 26 40
        E 3 89 19 40
        E 174 99 24 7e
        E 4 99 19 7c
        E 54 89 24 40
        E 4 89 19 40
        E 177 99 26 25
        E 6 99 19 17
        E 52 89 26 40
        E 6 89 19 40
        E 180 99 19 74
        E 58 89 19 40
        E 178 99 26 28
        E 58 89 26 40
        E 186 99 26 7e
        E 2 99 19 7c
        E 56 89 26 40
        E 2 89 19 40
        E 182 99 19 39
        E 58 89 19 40
        E 184 99 19 79
        E 58 89 19 40
        E 177 99 26 2c
        E 3 99 19 31
        E 1 99 24 71
        E 54 89 26 40
        E 3 89 19 40
        E 1 89 24 40
        E 175 99 19 7c
        E 58 89 19 40
        E 178 99 26 2c
        E 1 99 19 31
        E 57 89 26 40
        E 1 89 19 40
        E 186 99 24 7e
        E 3 99 19 78
        E 55 89 24 40
        E 3 89 19 40
        E 187 99 26 2a
        E 58 89 26 40
        E 63 99 26 2f
        E 58 89 26 40
        E 52 99 26 5a
        E 58 89 26 40
        E 174 99 26 78
        E 58 89 26 40
        E 186 99 26 75
        E 58 89 26 40
        E 182 99 26 7b
        E 2 99 24 61
        E 56 89 26 40
        E 2 89 24 40
        E 185 99 24 7e
        E 3 99 15 47
        E 0 99 31 7e
        E 55 89 24 40
        E 3 89 15 40
        E 0 89 31 40
        E 183 99 26 2a
        E 58 89 26 40
        E 182 99 19 76
        E 58 89 19 40
        E 189 99 19 1d
        E 58 89 19 40
        E 172 99 26 7e
        E 7 99 19 7c
        E 51 89 26 40
        E 7 89 19 40
        E 177 99 19 2f
        E 2 99 26 23
        E 56 89 19 40
        E 2 89 26 40
        E 178 99 19 7a
        E 58 89 19 40
        E 182 99 24 65
        E 9 99 19 15
        E 49 89 24 40
        E 9 89 19 40
        E 174 99 19 7c
        E 58 89 19 40
        E 181 99 26 28
        E 5 99 19 4a
        E 53 89 26 40
        E 5 89 19 40
        E 180 99 24 7b
        E 2 99 19 7c
        E 56 89 24 40
        E 2 89 19 40
        E 177 99 19 27
        E 58 89 19 40
        E 184 99 26 7e
        E 4 99 19 7c
        E 54 89 26 40
        E 4 89 19 40
        E 176 99 19 19
        E 58 89 19 40
        E 182 99 19 78
        E 58 89 19 40
        E 185 99 24 5a
        E 1 99 26 2a
        E 5 99 19 1f
        E 52 89 24 40
        E 1 89 26 40
        E 5 89 19 40
        E 173 99 24 7e
        E 2 99 19 7c
        E 56 89 24 40
        E 2 89 19 40
        E 177 99 26 24
        E 5 99 19 1f
        E 53 89 26 40
        E 5 89 19 40
        E 177 99 26 23
        E 4 99 19 73
        E 54 89 26 40
        E 4 89 19 40
        E 191 99 26 10
        E 58 89 26 40
        E 175 99 26 7e
        E 5 99 19 7c
        E 53 89 26 40
        E 5 89 19 40
        E 175 99 19 40
        E 58 89 19 40
        E 184 99 19 7a
        E 58 89 19 40
        E 180 99 24 72
        E 3 99 19 27
        E 4 99 26 27
        E 51 89 24 40
        E 3 89 19 40
        E 4 89 26 40
        E 170 99 19 7c
        E 58 89 19 40
        E 186 99 26 34
        E 6 99 19 40
        E 52 89 26 40
        E 6 89 19 40
        E 167 99 24 7e
        E 5 99 19 7c
        E 53 89 24 40
        E 5 89 19 40
        E 184 99 26 26
        E 1 99 19 1d
        E 57 89 26 40
        E 1 89 19 40
        E 182 99 26 7e
        E 9 99 19 7c
        E 49 89 26 40
        E 9 89 19 40
        E 183 99 19 37
        E 58 89 19 40
        E 175 99 19 78
        E 58 89 19 40
        E 178 99 26 27
        E 1 99 24 65
        E 2 99 19 1f
        E 55 89 26 40
        E 1 89 24 40
        E 2 89 19 40
        E 180 99 24 7e
        E 8 99 19 7c
        E 50 89 24 40
        E 8 89 19 40
        E 175 99 26 28
        E 1 99 19 25
        E 57 89 26 40
        E 1 89 19 40
        E 182 99 19 77
        E 58 89 19 40
        E 174 99 26 22
        E 58 89 26 40
        E 190 99 26 7e
        E 5 99 19 7c
        E 53 89 26 40
        E 5 89 19 40
        E 182 99 19 37
        E 58 89 19 40
        E 176 99 19 7c
        E 58 89 19 40
        E 181 99 26 2b
        E 4 99 24 7a
        E 0 99 19 27
        E 54 89 26 40
        E 4 89 24 40
        E 0 89 19 40
        E 184 99 19 7c
        E 58 89 19 40
        E 181 99 26 43
        E 58 89 26 40
        E 176 99 24 7b
        E 6 99 19 73
        E 52 89 24 40
        E 6 89 19 40
        E 180 99 26 2f
        E 58 89 26 40
        E 176 99 26 7e
        E 6 99 19 7c
        E 52 89 26 40
        E 6 89 19 40
        E 186 99 19 39
        E 58 89 19 40
        E 179 99 19 77
        E 58 89 19 40
        E 178 99 24 5b
        E 5 99 26 2a
        E 3 99 19 37
        E 50 89 24 40
        E 5 89 26 40
        E 3 89 19 40
        E 174 99 24 7e
        E 4 99 19 7c
        E 54 89 24 40
        E 4 89 19 40
        E 177 99 26 25
        E 6 99 19 17
        E 52 89 26 40
        E 6 89 19 40
        E 180 99 19 74
        E 58 89 19 40
        E 178 99 26 28
        E 58 89 26 40
        E 186 99 26 7e
        E 2 99 19 7c
        E 56 89 26 40
        E 2 89 19 40
        E 182 99 19 39
        E 58 89 19 40
        E 184 99 19 79
        E 58 89 19 40
        E 177 99 26 2c
        E 3 99 19 31
        E 1 99 24 71
        E 54 89 26 40
        E 3 89 19 40
        E 1 89 24 40
        E 175 99 19 7c
        E 58 89 19 40
        E 178 99 26 2c
        E 1 99 19 31
        E 57 89 26 40
        E 1 89 19 40
        E 186 99 24 7e
        E 3 99 19 78
        E 55 89 24 40
        E 3 89 19 40
        E 187 99 26 2a
        E 58 89 26 40
        E 63 99 26 2f
        E 58 89 26 40
        E 52 99 26 5a
        E 58 89 26 40
        E 174 99 26 78
        E 58 89 26 40
        E 186 99 26 75
        E 58 89 26 40
        E 182 99 26 7b
        E 2 99 24 61
        E 56 89 26 40
        E 2 89 24 40
        E 185 99 24 7e
        E 3 99 15 47
        E 0 99 31 7e
        E 55 89 24 40
        E 3 89 15 40
        E 0 89 31 40
        E 183 99 26 2a
        E 58 89 26 40
        E 182 99 19 76
        E 58 89 19 40
        E 189 99 19 1d
        E 58 89 19 40
        E 172 99 26 7e
        E 7 99 19 7c
        E 51 89 26 40
        E 7 89 19 40
        E 177 99 19 2f
        E 2 99 26 23
        E 56 89 19 40
        E 2 89 26 40
        E 178 99 19 7a
        E 58 89 19 40
        E 182 99 24 65
        E 9 99 19 15
        E 49 89 24 40
        E 9 89 19 40
        E 174 99 19 7c
        E 58 89 19 40
        E 181 99 26 28
        E 5 99 19 4a
        E 53 89 26 40
        E 5 89 19 40
        E 180 99 24 7b
        E 2 99 19 7c
        E 56 89 24 40
        E 2 89 19 40
        E 177 99 19 27
        E 58 89 19 40
        E 184 99 26 7e
        E 4 99 19 7c
        E 54 89 26 40
        E 4 89 19 40
        E 176 99 19 19
        E 58 89 19 40
        E 182 99 19 78
        E 58 89 19 40
        E 185 99 24 5a
        E 1 99 26 2a
        E 5 99 19 1f
        E 52 89 24 40
        E 1 89 26 40
        E 5 89 19 40
        E 173 99 24 7e
        E 2 99 19 7c
        E 56 89 24 40
        E 2 89 19 40
        E 177 99 26 24
        E 5 99 19 1f
        E 53 89 26 40
        E 5 89 19 40
        E 177 99 26 23
        E 4 99 19 73
        E 54 89 26 40
        E 4 89 19 40
        E 191 99 26 10
        E 58 89 26 40
        E 175 99 26 7e
        E 5 99 19 7c
        E 53 89 26 40
        E 5 89 19 40
        E 175 99 19 40
        E 58 89 19 40
        E 184 99 19 7a
        E 58 89 19 40
        E 180 99 24 72
        E 3 99 19 27
        E 4 99 26 27
        E 51 89 24 40
        E 3 89 19 40
        E 4 89 26 40
        E 170 99 19 7c
        E 58 89 19 40
        E 186 99 26 34
        E 6 99 19 40
        E 52 89 26 40
        E 6 89 19 40
        E 167 99 24 7e
        E 5 99 19 7c
        E 53 89 24 40
        E 5 89 19 40
        E 184 99 26 26
        E 1 99 19 1d
        E 57 89 26 40
        E 1 89 19 40
        E 182 99 26 7e
        E 9 99 19 7c
        E 49 89 26 40
        E 9 89 19 40
        E 183 99 19 37
        E 58 89 19 40
        E 175 99 19 78
        E 58 89 19 40
        E 178 99 26 27
        E 1 99 24 65
        E 2 99 19 1f
        E 55 89 26 40
        E 1 89 24 40
        E 2 89 19 40
        E 180 99 24 7e
        E 8 99 19 7c
        E 50 89 24 40
        E 8 89 19 40
        E 175 99 26 28
        E 1 99 19 25
        E 57 89 26 40
        E 1 89 19 40
        E 182 99 19 77
        E 58 89 19 40
        E 174 99 26 22
        E 58 89 26 40
        E 190 99 26 7e
        E 5 99 19 7c
        E 53 89 26 40
        E 5 89 19 40
        E 182 99 19 37
        E 58 89 19 40
        E 176 99 19 7c
        E 58 89 19 40
        E 181 99 26 2b
        E 4 99 24 7a
        E 0 99 19 27
        E 54 89 26 40
        E 4 89 24 40
        E 0 89 19 40
        E 184 99 19 7c
        E 58 89 19 40
        E 181 99 26 43
        E 58 89 26 40
        E 176 99 24 7b
        E 6 99 19 73
        E 52 89 24 40
        E 6 89 19 40
        E 180 99 26 2f
        E 58 89 26 40
        E 176 99 26 7e
        E 6 99 19 7c
        E 52 89 26 40
        E 6 89 19 40
        E 186 99 19 39
        E 58 89 19 40
        E 179 99 19 77
        E 58 89 19 40
        E 178 99 24 5b
        E 5 99 26 2a
        E 3 99 19 37
        E 50 89 24 40
        E 5 89 26 40
        E 3 89 19 40
        E 174 99 24 7e
        E 4 99 19 7c
        E 54 89 24 40
        E 4 89 19 40
        E 177 99 26 25
        E 6 99 19 17
        E 52 89 26 40
        E 6 89 19 40
        E 180 99 19 74
        E 58 89 19 40
        E 178 99 26 28
        E 58 89 26 40
        E 186 99 26 7e
        E 2 99 19 7c
        E 56 89 26 40
        E 2 89 19 40
        E 182 99 19 39
        E 58 89 19 40
        E 184 99 19 79
        E 58 89 19 40
        E 177 99 26 2c
        E 3 99 19 31
        E 1 99 24 71
        E 54 89 26 40
        E 3 89 19 40
        E 1 89 24 40
        E 175 99 19 7c
        E 58 89 19 40
        E 178 99 26 2c
        E 1 99 19 31
        E 57 89 26 40
        E 1 89 19 40
        E 186 99 24 7f
        E 3 99 19 78
        E 55 89 24 40
        E 3 89 19 40
        E 419 99 24 68
        E 0 99 26 7f
        E 118 89 24 40
        E 0 89 26 40
        E 122 99 24 18
        E 0 99 26 42
        E 118 89 24 40
        E 0 89 26 40
        E 122 99 24 7f
        E 0 99 26 7f
        E 118 89 24 40
        E 0 89 26 40
        E 119 99 24 61
        E 3 99 26 4a
        E 0 99 2e 7f
        E 55 89 24 40
        E 63 89 26 40
        E 0 89 2e 40
        E 2 99 24 64
        E 0 99 26 42
        E 118 89 24 40
        E 0 89 26 40
        E 2 99 24 7f
        E 9 99 39 7f
        E 7 99 31 7f
        E 3 99 15 6b
        E 39 89 24 40
        E 8 89 39 40
        E 8 89 31 40
        E 2 89 15 40
        E 44 99 07 64
        E 118 89 07 40
        E 7 99 24 7d
        E 58 89 24 40
        E 57 99 07 64
        E 10 99 26 44
        E 49 89 26 40
        E 59 89 07 40
        E 2 99 07 64
        E 5 99 19 7f
        E 58 89 19 40
        E 55 89 07 40
        E 122 99 24 7a
        E 11 99 19 28
        E 47 89 24 40
        E 11 89 19 40
        E 179 99 26 7f
        E 4 99 19 7f
        E 53 89 26 40
        E 5 89 19 40
        E 167 99 24 7b
        E 9 99 1a 37
        E 49 89 24 40
        E 9 89 1a 40
        E 60 99 26 09
        E 58 89 26 40
        E 69 99 24 7f
        E 5 99 1a 7f
        E 53 89 24 40
        E 5 89 1a 40
        E 56 99 26 43
        E 58 89 26 40
        E 49 99 26 59
        E 58 89 26 40
        E 75 99 26 72
        E 58 89 26 40
        E 44 99 24 7f
        E 8 99 39 7f
        E 4 99 15 7f
        E 46 89 24 40
        E 8 89 39 40
        E 4 89 15 40
        E 193 99 24 74
        E 58 89 24 40
        E 170 99 19 7f
        E 58 89 19 40
        E 166 99 24 7e
        E 12 99 19 42
        E 46 89 24 40
        E 11 89 19 40
        E 183 99 26 7f
        E 14 99 19 7f
        E 43 89 26 40
        E 15 89 19 40
        E 166 99 24 7f
        E 7 99 19 34
        E 51 89 24 40
        E 7 89 19 40
        E 66 99 26 1d
        E 58 89 26 40
        E 47 99 1a 7f
        E 57 89 1a 40
        E 84 99 26 38
        E 58 89 26 40
        E 43 99 26 6f
        E 58 89 26 40
        E 71 99 26 7c
        E 58 89 26 40
        E 58 99 24 7c
        E 3 99 31 7f
        E 55 89 24 40
        E 3 89 31 40
        E 191 99 24 7f
        E 58 89 24 40
        E 66 99 26 20
        E 46 89 26 40
        E 61 99 19 7f
        E 59 89 19 40
        E 178 99 24 7b
        E 16 99 19 31
        E 42 89 24 40
        E 16 89 19 40
        E 165 99 26 7f
        E 6 99 1a 7f
        E 52 89 26 40
        E 6 89 1a 40
        E 69 99 26 35
        E 58 89 26 40
        E 44 99 24 7b
        E 13 99 1a 36
        E 45 89 24 40
        E 13 89 1a 40
        E 175 99 26 7f
        E 14 99 1a 7f
        E 44 89 26 40
        E 14 89 1a 40
        E 169 99 24 7f
        E 8 99 3c 7f
        E 50 89 24 40
        E 8 89 3c 40
        E 171 99 24 79
        E 10 99 26 34
        E 4 99 19 7f
        E 44 89 24 40
        E 9 89 26 40
        E 5 89 19 40
        E 167 99 24 7b
        E 9 99 1a 37
        E 49 89 24 40
        E 9 89 1a 40
        E 60 99 26 09
        E 58 89 26 40
        E 69 99 24 7f
        E 5 99 1a 21
        E 53 89 24 40
        E 5 89 1a 40
        E 56 99 26 43
        E 58 89 26 40
        E 49 99 26 59
        E 58 89 26 40
        E 75 99 26 72
        E 58 89 26 40
        E 44 99 24 7f
        E 12 99 24 7f
        E 24 99 2f 7b
        E 22 89 24 40
        E 13 89 24 40
        E 24 89 2f 40
        E 43 99 2f 71
        E 58 89 2f 40
        E 52 99 26 64
        E 6 99 24 78
        E 18 99 2d 62
        E 40 89 24 40
        E 1 89 24 40
        E 17 89 2d 40
        E 36 89 26 40
        E 115 99 24 7f
        E 7 99 26 64
        E 2 99 2f 71
        E 6 99 24 7f
        E 13 99 2d 7f
        E 30 89 24 40
        E 10 89 2f 40
        E 5 89 24 40
        E 14 89 2d 40
        E 38 89 26 40
        E 117 99 24 77
        E 5 99 26 7f
        E 4 99 24 71
        E 10 99 39 7c
        E 4 99 2f 79
        E 35 89 24 40
        E 9 89 24 40
        E 10 89 39 40
        E 4 89 2f 40
        E 42 89 26 40
        E 122 99 24 7f
        E 13 99 31 7f
        E 45 89 24 40
        E 13 89 31 40
        E 181 99 24 75
        E 58 89 24 40
        E 170 99 1d 64
        E 118 89 1d 40
        E 122 99 1d 64
        E 14 99 24 7e
        E 58 89 24 40
        E 46 89 1d 40
        E 122 99 1d 64
        E 12 99 26 7f
        E 58 89 26 40
        E 48 89 1d 40
        E 122 99 1d 64
        E 13 99 24 7f
        E 58 89 24 40
        E 47 89 1d 40
        E 14 99 26 1e
        E 58 89 26 40
        E 50 99 1d 64
        E 5 99 24 7f
        E 3 99 3c 7f
        E 55 89 24 40
        E 3 89 3c 40
        E 52 89 1d 40
        E 21 99 26 41
        E 58 89 26 40
        E 43 99 1d 64
        E 10 99 26 7c
        E 58 89 26 40
        E 50 89 1d 40
        E 22 99 26 72
        E 58 89 26 40
        E 42 99 1d 64
        E 2 99 39 7f
        E 7 99 15 7f
        E 3 99 24 7f
        E 48 89 39 40
        E 7 89 15 40
        E 3 89 24 40
        E 48 89 1d 40
        E 122 99 1d 64
        E 2 99 24 7f
        E 58 89 24 40
        E 58 89 1d 40
        E 17 99 26 2b
        E 58 89 26 40
        E 47 99 1d 64
        E 109 99 26 09
        E 9 89 1d 40
        E 49 89 26 40
        E 73 99 1d 64
        E 3 99 24 7f
        E 58 89 24 40
        E 57 89 1d 40
        E 122 99 1d 64
        E 3 99 26 7f
        E 58 89 26 40
        E 57 89 1d 40
        E 122 99 1d 64
        E 1 99 24 71
        E 58 89 24 40
        E 59 89 1d 40
        E 15 99 26 0b
        E 58 89 26 40
        E 49 99 1d 64
        E 6 99 3c 7d
        E 15 99 24 7f
        E 43 89 3c 40
        E 15 89 24 40
        E 39 89 1d 40
        E 31 99 26 38
        E 57 89 26 40
        E 34 99 1d 64
        E 16 99 26 61
        E 58 89 26 40
        E 44 89 1d 40
        E 1 99 26 7c
        E 58 89 26 40
        E 63 99 1d 64
        E 0 99 24 7f
        E 2 99 31 7f
        E 13 99 15 6e
        E 43 89 24 40
        E 2 89 31 40
        E 14 89 15 40
        E 44 89 1d 40
        E 122 99 1d 64
        E 3 99 24 79
        E 58 89 24 40
        E 57 89 1d 40
        E 122 99 1d 64
        E 116 99 26 12
        E 2 89 1d 40
        E 56 89 26 40
        E 64 99 24 7a
        E 2 99 1d 64
        E 56 89 24 40
        E 62 89 1d 40
        E 119 99 26 7f
        E 3 99 1d 64
        E 55 89 26 40
        E 63 89 1d 40
        E 8 99 26 2a
        E 59 89 26 40
        E 53 99 24 7f
        E 2 99 1d 64
        E 56 89 24 40
        E 62 89 1d 40
        E 122 99 1d 64
        E 3 99 26 7f
        E 59 89 26 40
        E 56 89 1d 40
        E 122 99 1d 64
        E 7 99 24 7f
        E 58 89 24 40
        E 53 89 1d 40
        E 5 99 26 25
        E 58 89 26 40
        E 59 99 1d 64
        E 3 99 1d 7f
        E 102 89 1d 40
        E 13 89 1d 40
        E 2 99 26 4b
        E 103 89 26 40
        E 20 99 1d 3d
        E 100 89 1d 40
        E 14 99 26 46
        E 101 89 26 40
        E 23 99 24 7f
        E 2 99 1d 7f
        E 99 89 24 40
        E 6 89 1d 40
        E 11 99 26 52
        E 102 89 26 40
        E 18 99 1d 4a
        E 100 89 1d 40
        E 147 99 26 7f
        E 1 99 1d 7f
        E 98 89 26 40
        E 2 89 1d 40
        E 135 99 1d 3d
        E 0 99 24 7f
        E 106 89 1d 40
        E 1 89 24 40
        E 17 99 26 54
        E 99 89 26 40
        E 20 99 1d 7f
        E 101 89 1d 40
        E 19 99 26 70
        E 99 89 26 40
        E 21 99 2f 66
        E 102 89 2f 40
        E 18 99 2f 7f
        E 112 89 2f 40
        E 3 99 24 7e
        E 0 99 3c 7f
        E 3 99 15 47
        E 0 99 31 7e
        E 55 89 24 40
        E 3 89 15 40
        E 0 89 31 40
        E 57 89 3c 40
        E 126 99 26 2a
        E 58 89 26 40
        E 178 99 3c 7f
        E 4 99 19 76
        E 58 89 19 40
        E 56 89 3c 40
        E 133 99 19 1d
        E 58 89 19 40
        E 171 99 3c 64
        E 1 99 26 7e
        E 7 99 19 7c
        E 51 89 26 40
        E 7 89 19 40
        E 52 89 3c 40
        E 2 99 24 64
        E 118 89 24 40
        E 5 99 19 2f
        E 2 99 26 23
        E 56 89 19 40
        E 2 89 26 40
        E 177 99 3c 7f
        E 1 99 19 7a
        E 58 89 19 40
        E 59 89 3c 40
        E 122 99 31 7f
        E 0 99 3c 7c
        E 1 99 24 65
        E 9 99 19 15
        E 49 89 24 40
        E 9 89 19 40
        E 50 89 31 40
        E 0 89 3c 40
        E 122 99 3c 7f
        E 2 99 19 7c
        E 58 89 19 40
        E 58 89 3c 40
        E 123 99 26 28
        E 5 99 19 4a
        E 53 89 26 40
        E 5 89 19 40
        E 176 99 3c 7f
        E 4 99 24 7b
        E 2 99 19 7c
        E 56 89 24 40
        E 2 89 19 40
        E 54 89 3c 40
        E 123 99 19 27
        E 58 89 19 40
        E 61 99 24 64
        E 118 89 24 40
        E 2 99 24 64
        E 0 99 31 7f
        E 0 99 3c 7f
        E 3 99 26 7e
        E 4 99 19 7c
        E 54 89 26 40
        E 4 89 19 40
        E 53 89 24 40
        E 0 89 31 40
        E 0 89 3c 40
        E 122 99 26 64
        E 1 99 19 19
        E 58 89 19 40
        E 59 89 26 40
        E 122 99 24 64
        E 0 99 26 64
        E 0 99 28 64
        E 0 99 31 7f
        E 0 99 3c 7f
        E 1 99 19 78
        E 58 89 19 40
        E 59 89 24 40
        E 0 89 26 40
        E 0 89 28 40
        E 0 89 31 40
        E 0 89 3c 40
        E 126 99 24 5a
        E 6 99 19 1f
        E 52 89 24 40
        E 6 89 19 40
        E 172 99 31 7f
        E 0 99 3c 7f
        E 1 99 24 7e
        E 2 99 19 7c
        E 56 89 24 40
        E 2 89 19 40
        E 57 89 31 40
        E 0 89 3c 40
        E 120 99 26 24
        E 5 99 19 1f
        E 53 89 26 40
        E 5 89 19 40
        E 177 99 26 23
        E 2 99 3c 7f
        E 2 99 19 73
        E 54 89 26 40
        E 4 89 19 40
        E 58 89 3c 40
        E 133 99 26 10
        E 58 89 26 40
        E 51 99 24 64
        E 118 89 24 40
        E 2 99 3c 7f
        E 4 99 26 7e
        E 5 99 19 7c
        E 53 89 26 40
        E 5 89 19 40
        E 51 89 3c 40
        E 122 99 24 64
        E 2 99 19 40
        E 58 89 19 40
        E 58 89 24 40
        E 122 99 3c 7f
        E 4 99 19 7a
        E 58 89 19 40
        E 56 89 3c 40
        E 122 99 31 7f
        E 2 99 24 72
        E 3 99 19 27
        E 4 99 26 27
        E 51 89 24 40
        E 3 89 19 40
        E 4 89 26 40
        E 51 89 31 40
        E 119 99 19 7c
        E 3 99 3c 7f
        E 55 89 19 40
        E 63 89 3c 40
        E 123 99 26 34
        E 6 99 19 40
        E 52 89 26 40
        E 6 89 19 40
        E 167 99 24 7e
        E 5 99 19 7c
        E 3 99 3c 7f
        E 50 89 24 40
        E 5 89 19 40
        E 63 89 3c 40
        E 121 99 26 26
        E 1 99 19 1d
        E 57 89 26 40
        E 1 89 19 40
        E 62 99 24 64
        E 118 89 24 40
        E 2 99 24 64
        E 0 99 31 7f
        E 0 99 26 7e
        E 9 99 19 7c
        E 49 89 26 40
        E 9 89 19 40
        E 51 89 24 40
        E 0 89 31 40
        E 132 99 19 37
        E 58 89 19 40
        E 172 99 24 64
        E 0 99 26 7f
        E 0 99 31 7f
        E 3 99 19 78
        E 58 89 19 40
        E 57 89 24 40
        E 0 89 26 40
        E 0 89 31 40
        E 121 99 26 27
        E 1 99 24 65
        E 2 99 19 1f
        E 55 89 26 40
        E 1 89 24 40
        E 2 89 19 40
        E 180 99 24 7f
        E 13 99 31 7f
        E 45 89 24 40
        E 13 89 31 40
        E 181 99 24 75
        E 58 89 24 40
        E 170 99 1d 64
        E 118 89 1d 40
        E 122 99 1d 64
        E 14 99 24 7e
        E 58 89 24 40
        E 46 89 1d 40
        E 122 99 1d 64
        E 12 99 26 7f
        E 58 89 26 40
        E 48 89 1d 40
        E 122 99 1d 64
        E 13 99 24 7f
        E 58 89 24 40
        E 47 89 1d 40
        E 14 99 26 1e
        E 58 89 26 40
        E 50 99 1d 64
        E 5 99 24 7f
        E 3 99 3c 7f
        E 55 89 24 40
        E 3 89 3c 40
        E 52 89 1d 40
        E 21 99 26 41
        E 58 89 26 40
        E 43 99 1d 64
        E 10 99 26 7c
        E 58 89 26 40
        E 50 89 1d 40
        E 22 99 26 72
        E 58 89 26 40
        E 42 99 1d 64
        E 2 99 39 7f
        E 7 99 15 7f
        E 3 99 24 7f
        E 48 89 39 40
        E 7 89 15 40
        E 3 89 24 40
        E 48 89 1d 40
        E 122 99 1d 64
        E 2 99 24 7f
        E 58 89 24 40
        E 58 89 1d 40
        E 17 99 26 2b
        E 58 89 26 40
        E 47 99 1d 64
        E 109 99 26 09
        E 9 89 1d 40
        E 49 89 26 40
        E 73 99 1d 64
        E 3 99 24 7f
        E 58 89 24 40
        E 57 89 1d 40
        E 122 99 1d 64
        E 3 99 26 7f
        E 58 89 26 40
        E 57 89 1d 40
        E 122 99 1d 64
        E 1 99 24 71
        E 58 89 24 40
        E 59 89 1d 40
        E 15 99 26 0b
        E 58 89 26 40
        E 49 99 1d 64
        E 6 99 3c 7d
        E 15 99 24 7f
        E 43 89 3c 40
        E 15 89 24 40
        E 39 89 1d 40
        E 31 99 26 38
        E 57 89 26 40
        E 34 99 1d 64
        E 16 99 26 61
        E 58 89 26 40
        E 44 89 1d 40
        E 1 99 26 7c
        E 58 89 26 40
        E 63 99 1d 64
        E 0 99 24 7f
        E 2 99 31 7f
        E 13 99 15 6e
        E 43 89 24 40
        E 2 89 31 40
        E 14 89 15 40
        E 44 89 1d 40
        E 122 99 1d 64
        E 3 99 24 79
        E 58 89 24 40
        E 57 89 1d 40
        E 122 99 1d 64
        E 116 99 26 12
        E 2 89 1d 40
        E 56 89 26 40
        E 64 99 24 7a
        E 2 99 1d 64
        E 56 89 24 40
        E 62 89 1d 40
        E 119 99 26 7f
        E 3 99 1d 64
        E 55 89 26 40
        E 63 89 1d 40
        E 8 99 26 2a
        E 59 89 26 40
        E 53 99 24 7f
        E 2 99 1d 64
        E 56 89 24 40
        E 62 89 1d 40
        E 122 99 1d 64
        E 3 99 26 7f
        E 59 89 26 40
        E 56 89 1d 40
        E 122 99 1d 64
        E 7 99 24 7f
        E 58 89 24 40
        E 53 89 1d 40
        E 5 99 26 25
        E 58 89 26 40
        E 59 99 1d 64
        E 3 99 1d 7f
        E 102 89 1d 40
        E 13 89 1d 40
        E 2 99 26 4b
        E 103 89 26 40
        E 20 99 1d 3d
        E 100 89 1d 40
        E 14 99 26 46
        E 101 89 26 40
        E 23 99 24 7f
        E 2 99 1d 7f
        E 99 89 24 40
        E 6 89 1d 40
        E 11 99 26 52
        E 102 89 26 40
        E 18 99 1d 4a
        E 100 89 1d 40
        E 147 99 26 7f
        E 1 99 1d 7f
        E 98 89 26 40
        E 2 89 1d 40
        E 135 99 1d 3d
        E 0 99 24 7f
        E 106 89 1d 40
        E 1 89 24 40
        E 17 99 26 54
        E 99 89 26 40
        E 20 99 1d 7f
        E 101 89 1d 40
        E 19 99 26 70
        E 99 89 26 40
        E 16 99 24 64
        E 5 99 27 71
        E 102 89 27 40
        E 11 89 24 40
        E 2 99 24 64
        E 5 99 27 7f
        E 112 89 27 40
        E 1 89 24 40
        E 2 99 24 7e
        E 3 99 15 47
        E 0 99 31 7e
        E 55 89 24 40
        E 3 89 15 40
        E 0 89 31 40
        E 183 99 26 2a
        E 58 89 26 40
        E 182 99 19 76
        E 58 89 19 40
        E 189 99 19 1d
        E 58 89 19 40
        E 172 99 26 7e
        E 7 99 19 7c
        E 51 89 26 40
        E 7 89 19 40
        E 177 99 19 2f
        E 2 99 26 23
        E 56 89 19 40
        E 2 89 26 40
        E 178 99 19 7a
        E 58 89 19 40
        E 182 99 24 65
        E 9 99 19 15
        E 49 89 24 40
        E 9 89 19 40
        E 172 99 2f 7f
        E 2 99 19 7c
        E 58 89 19 40
        E 58 89 2f 40
        E 122 99 30 7f
        E 1 99 26 28
        E 5 99 19 4a
        E 53 89 26 40
        E 5 89 19 40
        E 54 89 30 40
        E 126 99 24 7b
        E 2 99 19 7c
        E 56 89 24 40
        E 2 89 19 40
        E 177 99 19 27
        E 58 89 19 40
        E 184 99 26 7e
        E 4 99 19 7c
        E 54 89 26 40
        E 4 89 19 40
        E 176 99 19 19
        E 58 89 19 40
        E 182 99 19 78
        E 58 89 19 40
        E 181 99 30 79
        E 4 99 24 5a
        E 6 99 19 1f
        E 52 89 24 40
        E 6 89 19 40
        E 50 89 30 40
        E 122 99 2f 7f
        E 1 99 24 7e
        E 2 99 19 7c
        E 56 89 24 40
        E 2 89 19 40
        E 57 89 2f 40
        E 120 99 26 24
        E 5 99 19 1f
        E 53 89 26 40
        E 5 89 19 40
        E 177 99 26 23
        E 4 99 19 73
        E 54 89 26 40
        E 4 89 19 40
        E 191 99 26 10
        E 58 89 26 40
        E 175 99 26 7e
        E 5 99 19 7c
        E 53 89 26 40
        E 5 89 19 40
        E 175 99 19 40
        E 58 89 19 40
        E 184 99 19 7a
        E 58 89 19 40
        E 178 99 2f 64
        E 2 99 24 72
        E 3 99 19 27
        E 4 99 26 27
        E 51 89 24 40
        E 3 89 19 40
        E 4 89 26 40
        E 51 89 2f 40
        E 119 99 19 7c
        E 58 89 19 40
        E 186 99 26 34
        E 6 99 19 40
        E 52 89 26 40
        E 6 89 19 40
        E 167 99 24 7e
        E 5 99 19 7c
        E 3 99 30 64
        E 50 89 24 40
        E 5 89 19 40
        E 63 89 30 40
        E 121 99 26 26
        E 1 99 19 1d
        E 57 89 26 40
        E 1 89 19 40
        E 182 99 26 7e
        E 9 99 19 7c
        E 49 89 26 40
        E 9 89 19 40
        E 183 99 19 37
        E 58 89 19 40
        E 175 99 19 78
        E 58 89 19 40
        E 178 99 26 27
        E 1 99 24 65
        E 0 99 2f 73
        E 2 99 19 1f
        E 55 89 26 40
        E 1 89 24 40
        E 2 89 19 40
        E 58 89 2f 40
        E 122 99 24 7e
        E 0 99 2f 7f
        E 0 99 37 64
        E 8 99 19 7c
        E 50 89 24 40
        E 8 89 19 40
        E 52 89 2f 40
        E 0 89 37 40
        E 123 99 26 28
        E 1 99 19 25
        E 57 89 26 40
        E 1 89 19 40
        E 182 99 19 77
        E 58 89 19 40
        E 174 99 26 22
        E 58 89 26 40
        E 190 99 26 7e
        E 5 99 19 7c
        E 53 89 26 40
        E 5 89 19 40
        E 182 99 19 37
        E 58 89 19 40
        E 176 99 19 7c
        E 58 89 19 40
        E 181 99 2f 7f
        E 0 99 26 2b
        E 4 99 24 7a
        E 0 99 19 27
        E 54 89 26 40
        E 4 89 24 40
        E 0 89 19 40
        E 56 89 2f 40
        E 128 99 19 7c
        E 58 89 19 40
        E 181 99 26 43
        E 58 89 26 40
        E 176 99 24 7b
        E 6 99 19 73
        E 52 89 24 40
        E 6 89 19 40
        E 180 99 26 2f
        E 58 89 26 40
        E 176 99 26 7e
        E 6 99 19 7c
        E 52 89 26 40
        E 6 89 19 40
        E 186 99 19 39
        E 58 89 19 40
        E 179 99 19 77
        E 58 89 19 40
        E 178 99 2f 7f
        E 0 99 24 5b
        E 5 99 26 2a
        E 3 99 19 37
        E 50 89 24 40
        E 5 89 26 40
        E 3 89 19 40
        E 52 89 2f 40
        E 122 99 24 7f
        E 0 99 26 30
        E 0 99 2b 25
        E 0 99 31 7f
        E 0 99 39 7f
        E 118 89 24 40
        E 0 89 26 40
        E 0 89 2b 40
        E 0 89 31 40
        E 0 89 39 40
        E 122 99 24 10
        E 0 99 26 32
        E 0 99 2b 25
        E 118 89 24 40
        E 0 89 26 40
        E 0 89 2b 40
        E 122 99 24 21
        E 0 99 26 44
        E 0 99 2b 21
        E 118 89 24 40
        E 0 89 26 40
        E 0 89 2b 40
        E 122 99 24 29
        E 0 99 26 2c
        E 0 99 2b 2c
        E 118 89 24 40
        E 0 89 26 40
        E 0 89 2b 40
        E 122 99 24 29
        E 0 99 26 31
        E 0 99 2b 3c
        E 118 89 24 40
        E 0 89 26 40
        E 0 89 2b 40
        E 122 99 24 2c
        E 0 99 26 42
        E 0 99 2b 54
        E 118 89 24 40
        E 0 89 26 40
        E 0 89 2b 40
        E 122 99 24 13
        E 0 99 26 4d
        E 0 99 2b 57
        E 118 89 24 40
        E 0 89 26 40
        E 0 89 2b 40
        E 122 99 24 10
        E 0 99 26 55
        E 0 99 2b 59
        E 118 89 24 40
        E 0 89 26 40
        E 0 89 2b 40
        E 122 99 24 18
        E 0 99 26 66
        E 0 99 2b 67
        E 100 89 2b 40
        E 18 89 24 40
        E 0 89 26 40
        E 0 89 2b 40
        E 122 99 24 18
        E 0 99 26 73
        E 0 99 2d 64
        E 118 89 24 40
        E 0 89 26 40
        E 0 89 2d 40
        E 120 99 2d 64
        E 2 99 24 18
        E 0 99 26 76
        E 0 99 2b 79
        E 98 89 2d 40
        E 20 89 24 40
        E 0 89 26 40
        E 0 89 2b 40
        E 60 99 2d 72
        E 48 89 2d 40
        E 14 99 24 31
        E 0 99 26 7f
        E 0 99 2b 6d
        E 118 89 24 40
        E 0 89 26 40
        E 0 89 2b 40
        E 122 99 24 5b
        E 0 99 26 7f
        E 0 99 27 64
        E 0 99 2b 75
        E 118 89 24 40
        E 0 89 26 40
        E 0 89 27 40
        E 0 89 2b 40
        E 122 99 24 6e
        E 0 99 26 7f
        E 0 99 27 64
        E 0 99 2b 7f
        E 118 89 24 40
        E 0 89 26 40
        E 0 89 27 40
        E 0 89 2b 40
        E 122 99 24 64
        E 0 99 26 7f
        E 0 99 27 64
        E 0 99 2b 7f
        E 90 99 24 64
        E 28 89 24 40
        E 0 89 26 40
        E 0 89 27 40
        E 0 89 2b 40
        E 2 99 24 64
        E 88 89 24 40
        E 30 89 24 40
        E 2 99 24 64
        E 0 99 26 7f
        E 0 99 27 64
        E 0 99 2b 7f
        E 118 89 24 40
        E 0 89 26 40
        E 0 89 27 40
        E 0 89 2b 40
        E 106 99 26 65
        E 16 99 24 7f
        E 0 99 37 7f
        E 0 99 3a 64
        E 0 99 3b 64
        E 8 99 20 7f
        E 8 89 26 40
        E 85 89 24 40
        E 8 89 20 40
        E 9 89 37 40
        E 0 89 3a 40
        E 0 89 3b 40
        E 122 99 3c 36
        E 101 89 3c 40
        E 13 99 26 3c
        E 100 89 26 40
        E 32 99 3c 7f
        E 101 89 3c 40
        E 17 99 26 6e
        E 100 89 26 40
        E 20 99 3c 27
        E 3 99 24 7f
        E 99 89 3c 40
        E 7 89 24 40
        E 127 99 28 39
        E 4 99 26 7f
        E 4 99 3c 7f
        E 96 89 26 40
        E 10 89 3c 40
        E 4 89 28 40
        E 117 99 3c 36
        E 101 89 3c 40
        E 11 99 26 3f
        E 101 89 26 40
        E 25 99 24 7f
        E 0 99 3c 7d
        E 101 89 24 40
        E 1 89 3c 40
        E 13 99 26 44
        E 100 89 26 40
        E 17 99 3c 49
        E 106 89 3c 40
        E 11 99 26 63
        E 101 89 26 40
        E 21 99 3c 7f
        E 5 99 26 66
        E 99 89 3c 40
        E 2 89 26 40
        E 138 99 3c 3e
        E 7 99 24 7f
        E 5 99 26 64
        E 0 99 37 7f
        E 89 89 3c 40
        E 9 89 24 40
        E 5 99 26 38
        E 15 89 26 40
        E 0 89 37 40
        E 86 89 26 40
        E 28 99 3c 6c
        E 103 89 3c 40
        E 10 99 26 37
        E 101 89 26 40
        E 28 99 3c 41
        E 6 99 24 7c
        E 96 89 3c 40
        E 22 89 24 40
        E 120 99 26 7f
        E 2 99 28 37
        E 0 99 3c 7f
        E 97 89 26 40
        E 3 89 3c 40
        E 18 89 28 40
        E 118 99 24 7f
        E 2 99 3c 34
        E 99 89 24 40
        E 2 89 3c 40
        E 16 99 26 3b
        E 101 89 26 40
        E 16 99 3c 7f
        E 101 89 3c 40
        E 14 99 26 3d
        E 101 89 26 40
        E 23 99 3c 3c
        E 102 89 3c 40
        E 9 99 26 3b
        E 101 89 26 40
        E 32 99 3c 7a
        E 5 99 24 7f
        E 0 99 38 7c
        E 8 99 20 7f
        E 87 89 3c 40
        E 5 89 24 40
        E 5 99 26 3d
        E 4 89 20 40
        E 9 89 38 40
        E 2 99 24 48
        E 85 89 26 40
        E 20 99 3c 3d
        E 13 89 24 40
        E 2 99 24 64
        E 0 99 39 7f
        E 0 99 3c 36
        E 86 89 3c 40
        E 15 89 3c 40
        E 1 99 26 36
        E 12 99 26 3c
        E 4 89 24 40
        E 0 89 39 40
        E 84 89 26 40
        E 12 89 26 40
        E 12 99 3c 7f
        E 20 99 3c 7f
        E 79 89 3c 40
        E 17 99 26 4a
        E 5 89 3c 40
        E 17 99 26 6e
        E 78 89 26 40
        E 22 89 26 40
        E 7 99 3b 28
        E 4 99 24 7f
        E 9 99 3c 27
        E 87 89 3b 40
        E 9 89 24 40
        E 6 89 3c 40
        E 127 99 26 7f
        E 3 99 3c 7f
        E 4 99 24 64
        E 0 99 28 39
        E 0 99 39 7f
        E 4 99 26 76
        E 4 99 3c 7f
        E 87 89 26 40
        E 4 89 3c 40
        E 5 89 26 40
        E 10 89 3c 40
        E 4 89 24 40
        E 0 89 28 40
        E 0 89 39 40
        E 111 99 3c 3c
        E 6 99 3c 36
        E 95 89 3c 40
        E 6 89 3c 40
        E 11 99 26 3f
        E 2 99 26 41
        E 99 89 26 40
        E 1 89 26 40
        E 16 99 3c 7f
        E 8 99 24 7f
        E 0 99 3c 7d
        E 94 89 3c 40
        E 7 89 24 40
        E 1 89 3c 40
        E 13 99 26 3f
        E 100 89 26 40
        E 5 89 26 40
        E 12 99 3c 49
        E 4 99 3c 46
        E 3 99 24 7f
        E 8 99 39 64
        E 91 89 3c 40
        E 3 89 24 40
        E 8 99 26 63
        E 13 99 26 3c
        E 3 89 39 40
        E 85 89 26 40
        E 12 89 26 40
        E 9 99 3c 7f
        E 5 99 26 66
        E 3 99 3c 7e
        E 96 89 3c 40
        E 2 89 26 40
        E 4 89 3c 40
        E 15 99 26 44
        E 99 89 26 40
        E 20 99 3c 3e
        E 2 99 3c 39
        E 5 99 24 7f
        E 5 99 24 64
        E 0 99 26 64
        E 0 99 39 7f
        E 0 99 3a 7c
        E 89 89 3c 40
        E 9 89 24 40
        E 0 89 3c 40
        E 5 99 26 38
        E 5 99 26 3d
        E 10 89 24 40
        E 0 89 26 40
        E 0 89 39 40
        E 0 89 3a 40
        E 86 89 26 40
        E 4 89 26 40
        E 21 99 24 7f
        E 3 99 3c 6c
        E 5 99 3c 79
        E 94 89 24 40
        E 4 89 3c 40
        E 4 89 3c 40
        E 6 99 26 37
        E 9 99 26 55
        E 92 89 26 40
        E 8 89 26 40
        E 13 99 3c 3e
        E 7 99 3c 41
        E 6 99 24 7c
        E 89 89 3c 40
        E 7 89 3c 40
        E 22 89 24 40
        E 120 99 26 7f
        E 2 99 26 7f
        E 0 99 28 45
        E 0 99 3c 7f
        E 1 99 3c 7f
        E 96 89 26 40
        E 3 89 3c 40
        E 1 89 26 40
        E 0 89 3c 40
        E 17 89 28 40
        E 118 99 24 7f
        E 2 99 3c 34
        E 2 99 39 7f
        E 4 99 3c 2f
        E 93 89 24 40
        E 2 89 3c 40
        E 5 89 3c 40
        E 11 99 26 3b
        E 3 89 39 40
        E 2 99 24 64
        E 96 89 26 40
        E 16 99 3c 7f
        E 6 89 24 40
        E 2 99 26 64
        E 0 99 28 76
        E 92 89 3c 40
        E 1 89 3c 40
        E 14 99 26 3d
        E 11 89 26 40
        E 0 89 28 40
        E 90 89 26 40
        E 23 99 3c 3c
        E 12 99 3c 34
        E 90 89 3c 40
        E 9 99 26 3b
        E 2 89 3c 40
        E 99 89 26 40
        E 32 99 24 7f
        E 0 99 3c 7a
        E 1 99 24 7f
        E 4 99 24 7f
        E 0 99 37 7f
        E 8 99 20 7f
        E 87 89 24 40
        E 0 89 3c 40
        E 2 89 24 40
        E 4 89 24 40
        E 8 89 20 40
        E 9 89 37 40
        E 122 99 3c 36
        E 101 89 3c 40
        E 13 99 26 3c
        E 100 89 26 40
        E 32 99 3c 7f
        E 101 89 3c 40
        E 17 99 26 6e
        E 100 89 26 40
        E 20 99 3c 27
        E 3 99 24 7f
        E 99 89 3c 40
        E 7 89 24 40
        E 127 99 28 39
        E 4 99 26 7f
        E 4 99 3c 7f
        E 96 89 26 40
        E 10 89 3c 40
        E 4 89 28 40
        E 117 99 3c 36
        E 101 89 3c 40
        E 11 99 26 3f
        E 101 89 26 40
        E 25 99 24 7f
        E 0 99 3c 7d
        E 101 89 24 40
        E 1 89 3c 40
        E 13 99 26 44
        E 100 89 26 40
        E 17 99 3c 49
        E 106 89 3c 40
        E 11 99 26 63
        E 101 89 26 40
        E 21 99 3c 7f
        E 5 99 26 66
        E 99 89 3c 40
        E 2 89 26 40
        E 138 99 3c 3e
        E 7 99 24 7f
        E 5 99 26 64
        E 0 99 37 7f
        E 89 89 3c 40
        E 9 89 24 40
        E 5 99 26 38
        E 15 89 26 40
        E 0 89 37 40
        E 86 89 26 40
        E 28 99 3c 6c
        E 103 89 3c 40
        E 10 99 26 37
        E 101 89 26 40
        E 28 99 3c 41
        E 6 99 24 7c
        E 96 89 3c 40
        E 22 89 24 40
        E 120 99 26 7f
        E 2 99 28 37
        E 0 99 3c 7f
        E 97 89 26 40
        E 3 89 3c 40
        E 18 89 28 40
        E 118 99 24 7f
        E 2 99 3c 34
        E 99 89 24 40
        E 2 89 3c 40
        E 16 99 26 3b
        E 101 89 26 40
        E 16 99 3c 7f
        E 101 89 3c 40
        E 14 99 26 3d
        E 101 89 26 40
        E 23 99 3c 3c
        E 102 89 3c 40
        E 9 99 26 3b
        E 101 89 26 40
        E 32 99 3c 7a
        E 5 99 24 7f
        E 0 99 38 7c
        E 8 99 20 7f
        E 87 89 3c 40
        E 5 89 24 40
        E 5 99 26 3d
        E 4 89 20 40
        E 9 89 38 40
        E 2 99 24 48
        E 85 89 26 40
        E 20 99 3c 3d
        E 13 89 24 40
        E 2 99 24 64
        E 0 99 39 7f
        E 0 99 3c 36
        E 86 89 3c 40
        E 15 89 3c 40
        E 1 99 26 36
        E 12 99 26 3c
        E 4 89 24 40
        E 0 89 39 40
        E 84 89 26 40
        E 12 89 26 40
        E 12 99 3c 7f
        E 20 99 3c 7f
        E 79 89 3c 40
        E 17 99 26 4a
        E 5 89 3c 40
        E 17 99 26 6e
        E 78 89 26 40
        E 22 89 26 40
        E 7 99 3b 28
        E 4 99 24 7f
        E 9 99 3c 27
        E 87 89 3b 40
        E 9 89 24 40
        E 6 89 3c 40
        E 127 99 26 7f
        E 3 99 3c 7f
        E 4 99 24 64
        E 0 99 28 39
        E 0 99 39 7f
        E 4 99 26 76
        E 4 99 3c 7f
        E 87 89 26 40
        E 4 89 3c 40
        E 5 89 26 40
        E 10 89 3c 40
        E 4 89 24 40
        E 0 89 28 40
        E 0 89 39 40
        E 111 99 3c 3c
        E 6 99 3c 36
        E 95 89 3c 40
        E 6 89 3c 40
        E 11 99 26 3f
        E 2 99 26 41
        E 99 89 26 40
        E 1 89 26 40
        E 16 99 3c 7f
        E 8 99 24 7f
        E 0 99 3c 7d
        E 94 89 3c 40
        E 7 89 24 40
        E 1 89 3c 40
        E 13 99 26 3f
        E 100 89 26 40
        E 5 89 26 40
        E 12 99 3c 49
        E 4 99 3c 46
        E 3 99 24 7f
        E 8 99 39 64
        E 91 89 3c 40
        E 3 89 24 40
        E 8 99 26 63
        E 13 99 26 3c
        E 3 89 39 40
        E 85 89 26 40
        E 12 89 26 40
        E 9 99 3c 7f
        E 5 99 26 66
        E 3 99 3c 7e
        E 96 89 3c 40
        E 2 89 26 40
        E 4 89 3c 40
        E 15 99 26 44
        E 99 89 26 40
        E 20 99 3c 3e
        E 2 99 3c 39
        E 5 99 24 7f
        E 5 99 24 64
        E 0 99 26 64
        E 0 99 39 7f
        E 0 99 3a 7c
        E 89 89 3c 40
        E 9 89 24 40
        E 0 89 3c 40
        E 5 99 26 38
        E 5 99 26 3d
        E 10 89 24 40
        E 0 89 26 40
        E 0 89 39 40
        E 0 89 3a 40
        E 86 89 26 40
        E 4 89 26 40
        E 21 99 24 7f
        E 3 99 3c 6c
        E 5 99 3c 79
        E 94 89 24 40
        E 4 89 3c 40
        E 4 89 3c 40
        E 6 99 26 37
        E 9 99 26 55
        E 92 89 26 40
        E 8 89 26 40
        E 13 99 3c 3e
        E 7 99 3c 41
        E 6 99 24 7c
        E 89 89 3c 40
        E 7 89 3c 40
        E 22 89 24 40
        E 120 99 26 7f
        E 2 99 26 7f
        E 0 99 28 45
        E 0 99 3c 7f
        E 1 99 3c 7f
        E 96 89 26 40
        E 3 89 3c 40
        E 1 89 26 40
        E 0 89 3c 40
        E 17 89 28 40
        E 118 99 24 7f
        E 2 99 3c 34
        E 2 99 39 7f
        E 4 99 3c 2f
        E 93 89 24 40
        E 2 89 3c 40
        E 5 89 3c 40
        E 11 99 26 3b
        E 3 89 39 40
        E 2 99 24 64
        E 96 89 26 40
        E 16 99 3c 7f
        E 6 89 24 40
        E 2 99 26 64
        E 0 99 28 76
        E 92 89 3c 40
        E 1 89 3c 40
        E 14 99 26 3d
        E 11 89 26 40
        E 0 89 28 40
        E 90 89 26 40
        E 23 99 3c 3c
        E 12 99 3c 34
        E 90 89 3c 40
        E 9 99 26 3b
        E 2 89 3c 40
        E 99 89 26 40
        E 32 99 24 7f
        E 0 99 3c 7a
        E 1 99 24 7f
        E 4 99 24 7f
        E 0 99 37 7f
        E 8 99 20 7f
        E 87 89 24 40
        E 0 89 3c 40
        E 2 89 24 40
        E 4 89 24 40
        E 8 89 20 40
        E 9 89 37 40
        E 122 99 3c 36
        E 101 89 3c 40
        E 13 99 26 3c
        E 100 89 26 40
        E 32 99 3c 7f
        E 101 89 3c 40
        E 17 99 26 6e
        E 100 89 26 40
        E 20 99 3c 27
        E 3 99 24 7f
        E 99 89 3c 40
        E 7 89 24 40
        E 127 99 28 39
        E 4 99 26 7f
        E 4 99 3c 7f
        E 96 89 26 40
        E 10 89 3c 40
        E 4 89 28 40
        E 117 99 3c 36
        E 101 89 3c 40
        E 11 99 26 3f
        E 101 89 26 40
        E 25 99 24 7f
        E 0 99 3c 7d
        E 101 89 24 40
        E 1 89 3c 40
        E 13 99 26 44
        E 100 89 26 40
        E 17 99 3c 49
        E 106 89 3c 40
        E 11 99 26 63
        E 101 89 26 40
        E 21 99 3c 7f
        E 5 99 26 66
        E 99 89 3c 40
        E 2 89 26 40
        E 138 99 3c 3e
        E 7 99 24 7f
        E 5 99 26 64
        E 0 99 37 7f
        E 89 89 3c 40
        E 9 89 24 40
        E 5 99 26 38
        E 15 89 26 40
        E 0 89 37 40
        E 86 89 26 40
        E 28 99 3c 6c
        E 103 89 3c 40
        E 10 99 26 37
        E 101 89 26 40
        E 28 99 3c 41
        E 6 99 24 7c
        E 96 89 3c 40
        E 22 89 24 40
        E 120 99 26 7f
        E 2 99 28 37
        E 0 99 3c 7f
        E 97 89 26 40
        E 3 89 3c 40
        E 18 89 28 40
        E 118 99 24 7f
        E 2 99 3c 34
        E 99 89 24 40
        E 2 89 3c 40
        E 16 99 26 3b
        E 101 89 26 40
        E 16 99 3c 7f
        E 101 89 3c 40
        E 14 99 26 3d
        E 101 89 26 40
        E 23 99 3c 3c
        E 102 89 3c 40
        E 9 99 26 3b
        E 101 89 26 40
        E 32 99 3c 7a
        E 5 99 24 7f
        E 0 99 38 7c
        E 8 99 20 7f
        E 87 89 3c 40
        E 5 89 24 40
        E 5 99 26 3d
        E 4 89 20 40
        E 9 89 38 40
        E 2 99 24 48
        E 85 89 26 40
        E 20 99 3c 3d
        E 13 89 24 40
        E 2 99 24 64
        E 0 99 39 7f
        E 0 99 3c 36
        E 86 89 3c 40
        E 15 89 3c 40
        E 1 99 26 36
        E 12 99 26 3c
        E 4 89 24 40
        E 0 89 39 40
        E 84 89 26 40
        E 12 89 26 40
        E 12 99 3c 7f
        E 20 99 3c 7f
        E 79 89 3c 40
        E 17 99 26 4a
        E 5 89 3c 40
        E 17 99 26 6e
        E 78 89 26 40
        E 22 89 26 40
        E 7 99 3b 28
        E 4 99 24 7f
        E 9 99 3c 27
        E 87 89 3b 40
        E 9 89 24 40
        E 6 89 3c 40
        E 127 99 26 7f
        E 3 99 3c 7f
        E 4 99 24 64
        E 0 99 28 39
        E 0 99 39 7f
        E 4 99 26 76
        E 4 99 3c 7f
        E 87 89 26 40
        E 4 89 3c 40
        E 5 89 26 40
        E 10 89 3c 40
        E 4 89 24 40
        E 0 89 28 40
        E 0 89 39 40
        E 111 99 3c 3c
        E 6 99 3c 36
        E 95 89 3c 40
        E 6 89 3c 40
        E 11 99 26 3f
        E 2 99 26 41
        E 99 89 26 40
        E 1 89 26 40
        E 16 99 3c 7f
        E 8 99 24 7f
        E 0 99 3c 7d
        E 94 89 3c 40
        E 7 89 24 40
        E 1 89 3c 40
        E 13 99 26 3f
        E 100 89 26 40
        E 5 89 26 40
        E 12 99 3c 49
        E 4 99 3c 46
        E 3 99 24 7f
        E 8 99 39 64
        E 91 89 3c 40
        E 3 89 24 40
        E 8 99 26 63
        E 13 99 26 3c
        E 3 89 39 40
        E 85 89 26 40
        E 12 89 26 40
        E 9 99 3c 7f
        E 5 99 26 66
        E 3 99 3c 7e
        E 96 89 3c 40
        E 2 89 26 40
        E 4 89 3c 40
        E 15 99 26 44
        E 99 89 26 40
        E 20 99 3c 3e
        E 2 99 3c 39
        E 5 99 24 7f
        E 5 99 24 64
        E 0 99 26 64
        E 0 99 39 7f
        E 0 99 3a 7c
        E 89 89 3c 40
        E 9 89 24 40
        E 0 89 3c 40
        E 5 99 26 38
        E 5 99 26 3d
        E 10 89 24 40
        E 0 89 26 40
        E 0 89 39 40
        E 0 89 3a 40
        E 86 89 26 40
        E 4 89 26 40
        E 21 99 24 7f
        E 3 99 3c 6c
        E 5 99 3c 79
        E 94 89 24 40
        E 4 89 3c 40
        E 4 89 3c 40
        E 6 99 26 37
        E 9 99 26 55
        E 92 89 26 40
        E 8 89 26 40
        E 13 99 3c 3e
        E 7 99 3c 41
        E 6 99 24 7c
        E 89 89 3c 40
        E 7 89 3c 40
        E 22 89 24 40
        E 120 99 26 7f
        E 2 99 26 7f
        E 0 99 28 45
        E 0 99 3c 7f
        E 1 99 3c 7f
        E 96 89 26 40
        E 3 89 3c 40
        E 1 89 26 40
        E 0 89 3c 40
        E 17 89 28 40
        E 118 99 24 7f
        E 2 99 3c 34
        E 2 99 39 7f
        E 4 99 3c 2f
        E 93 89 24 40
        E 2 89 3c 40
        E 5 89 3c 40
        E 11 99 26 3b
        E 3 89 39 40
        E 2 99 24 64
        E 96 89 26 40
        E 16 99 3c 7f
        E 6 89 24 40
        E 2 99 26 64
        E 0 99 28 76
        E 92 89 3c 40
        E 1 89 3c 40
        E 14 99 26 3d
        E 11 89 26 40
        E 0 89 28 40
        E 90 89 26 40
        E 23 99 3c 3c
        E 12 99 3c 34
        E 90 89 3c 40
        E 9 99 26 3b
        E 2 89 3c 40
        E 99 89 26 40
        E 32 99 24 7f
        E 0 99 3c 7a
        E 1 99 24 7f
        E 4 99 24 7f
        E 0 99 37 7f
        E 8 99 20 7f
        E 87 89 24 40
        E 0 89 3c 40
        E 2 89 24 40
        E 4 89 24 40
        E 8 89 20 40
        E 9 89 37 40
        E 122 99 3c 36
        E 101 89 3c 40
        E 13 99 26 3c
        E 100 89 26 40
        E 32 99 3c 7f
        E 101 89 3c 40
        E 17 99 26 6e
        E 100 89 26 40
        E 20 99 3c 27
        E 3 99 24 7f
        E 99 89 3c 40
        E 7 89 24 40
        E 127 99 28 39
        E 4 99 26 7f
        E 4 99 3c 7f
        E 96 89 26 40
        E 10 89 3c 40
        E 4 89 28 40
        E 117 99 3c 36
        E 101 89 3c 40
        E 11 99 26 3f
        E 101 89 26 40
        E 25 99 24 7f
        E 0 99 3c 7d
        E 101 89 24 40
        E 1 89 3c 40
        E 13 99 26 44
        E 100 89 26 40
        E 17 99 3c 49
        E 106 89 3c 40
        E 11 99 26 63
        E 101 89 26 40
        E 21 99 3c 7f
        E 5 99 26 66
        E 99 89 3c 40
        E 2 89 26 40
        E 138 99 3c 3e
        E 7 99 24 7f
        E 5 99 26 64
        E 0 99 37 7f
        E 89 89 3c 40
        E 9 89 24 40
        E 5 99 26 38
        E 15 89 26 40
        E 0 89 37 40
        E 86 89 26 40
        E 28 99 3c 6c
        E 103 89 3c 40
        E 10 99 26 37
        E 101 89 26 40
        E 28 99 3c 41
        E 6 99 24 7c
        E 96 89 3c 40
        E 22 89 24 40
        E 120 99 26 7f
        E 2 99 28 37
        E 0 99 3c 7f
        E 97 89 26 40
        E 3 89 3c 40
        E 18 89 28 40
        E 118 99 24 7f
        E 2 99 3c 34
        E 99 89 24 40
        E 2 89 3c 40
        E 16 99 26 3b
        E 101 89 26 40
        E 16 99 3c 7f
        E 101 89 3c 40
        E 14 99 26 3d
        E 101 89 26 40
        E 23 99 3c 3c
        E 102 89 3c 40
        E 9 99 26 3b
        E 101 89 26 40
        E 32 99 3c 7a
        E 5 99 24 7f
        E 0 99 38 7c
        E 8 99 20 7f
        E 87 89 3c 40
        E 5 89 24 40
        E 5 99 26 3d
        E 4 89 20 40
        E 9 89 38 40
        E 2 99 24 48
        E 85 89 26 40
        E 20 99 3c 3d
        E 13 89 24 40
        E 2 99 24 64
        E 0 99 39 7f
        E 0 99 3c 36
        E 86 89 3c 40
        E 15 89 3c 40
        E 1 99 26 36
        E 12 99 26 3c
        E 4 89 24 40
        E 0 89 39 40
        E 84 89 26 40
        E 12 89 26 40
        E 12 99 3c 7f
        E 20 99 3c 7f
        E 79 89 3c 40
        E 17 99 26 4a
        E 5 89 3c 40
        E 17 99 26 6e
        E 78 89 26 40
        E 22 89 26 40
        E 7 99 3b 28
        E 4 99 24 7f
        E 9 99 3c 27
        E 87 89 3b 40
        E 9 89 24 40
        E 6 89 3c 40
        E 127 99 26 7f
        E 3 99 3c 7f
        E 4 99 24 64
        E 0 99 28 39
        E 0 99 39 7f
        E 4 99 26 76
        E 4 99 3c 7f
        E 87 89 26 40
        E 4 89 3c 40
        E 5 89 26 40
        E 10 89 3c 40
        E 4 89 24 40
        E 0 89 28 40
        E 0 89 39 40
        E 111 99 3c 3c
        E 6 99 3c 36
        E 95 89 3c 40
        E 6 89 3c 40
        E 11 99 26 3f
        E 2 99 26 41
        E 99 89 26 40
        E 1 89 26 40
        E 16 99 3c 7f
        E 8 99 24 7f
        E 0 99 3c 7d
        E 94 89 3c 40
        E 7 89 24 40
        E 1 89 3c 40
        E 13 99 26 3f
        E 100 89 26 40
        E 5 89 26 40
        E 12 99 3c 49
        E 4 99 3c 46
        E 3 99 24 7f
        E 8 99 39 64
        E 91 89 3c 40
        E 3 89 24 40
        E 8 99 26 63
        E 13 99 26 3c
        E 3 89 39 40
        E 85 89 26 40
        E 12 89 26 40
        E 9 99 3c 7f
        E 5 99 26 66
        E 3 99 3c 7e
        E 96 89 3c 40
        E 2 89 26 40
        E 4 89 3c 40
        E 15 99 26 44
        E 99 89 26 40
        E 20 99 3c 3e
        E 2 99 3c 39
        E 5 99 24 7f
        E 5 99 24 64
        E 0 99 26 64
        E 0 99 39 7f
        E 0 99 3a 7c
        E 89 89 3c 40
        E 9 89 24 40
        E 0 89 3c 40
        E 5 99 26 38
        E 5 99 26 3d
        E 10 89 24 40
        E 0 89 26 40
        E 0 89 39 40
        E 0 89 3a 40
        E 86 89 26 40
        E 4 89 26 40
        E 21 99 24 7f
        E 3 99 3c 6c
        E 5 99 3c 79
        E 3 99 26 7c
        E 91 89 24 40
        E 4 89 3c 40
        E 4 89 3c 40
        E 19 89 26 40
        E 2 99 27 64
        E 107 99 3c 3e
        E 7 99 3c 41
        E 4 89 27 40
        E 2 99 26 7f
        E 0 99 24 7c
        E 89 89 3c 40
        E 7 89 3c 40
        E 22 89 26 40
        E 0 89 24 40
        E 2 99 27 64
        E 118 89 27 40
        E 2 99 26 7f
        E 0 99 3c 7f
        E 1 99 3c 7f
        E 99 89 3c 40
        E 1 89 3c 40
        E 17 89 26 40
        E 2 99 27 64
        E 116 99 24 7f
        E 2 89 27 40
        E 0 99 3c 34
        E 2 99 26 7f
        E 0 99 39 7f
        E 4 99 3c 2f
        E 93 89 24 40
        E 2 89 3c 40
        E 5 89 3c 40
        E 14 89 26 40
        E 0 89 39 40
        E 2 99 27 64
        E 0 99 24 64
        E 112 99 3c 7f
        E 6 89 27 40
        E 0 89 24 40
        E 2 99 24 64
        E 0 99 26 7f
        E 92 89 3c 40
        E 1 89 3c 40
        E 25 89 24 40
        E 0 89 26 40
        E 2 99 24 64
        E 0 99 27 64
        E 111 99 3c 3c
        E 7 89 24 40
        E 0 89 27 40
        E 2 99 26 7f
        E 3 99 3c 34
        E 90 89 3c 40
        E 11 89 3c 40
        E 14 89 26 40
        E 2 99 27 64
        E 115 99 24 7f
        E 0 99 37 7a
        E 1 99 24 7f
        E 2 89 27 40
        E 97 89 24 40
        E 0 89 37 40
        E 2 89 24 40
        E 1343 99 24 7f
        E 0 99 37 7f
        E 8 99 20 7f
        E 93 89 24 40
        E 8 89 20 40
        E 1 99 24 5e
        E 8 89 37 40
        E 86 89 24 40
        E 22 99 26 74
        E 0 99 35 6c
        E 14 99 3c 36
        E 80 89 26 40
        E 6 89 35 40
        E 15 89 3c 40
        E 3 99 24 64
        E 10 99 26 3c
        E 84 89 24 40
        E 16 89 26 40
        E 12 99 35 5d
        E 20 99 3c 7f
        E 76 89 35 40
        E 18 99 24 61
        E 7 89 3c 40
        E 89 89 24 40
        E 32 99 26 7b
        E 0 99 35 73
        E 16 99 3c 27
        E 3 99 24 7f
        E 75 89 35 40
        E 4 89 26 40
        E 18 99 24 61
        E 2 89 3c 40
        E 7 89 24 40
        E 85 89 24 40
        E 30 99 35 76
        E 12 99 28 39
        E 8 99 3c 7f
        E 76 89 35 40
        E 28 99 24 5f
        E 2 89 3c 40
        E 4 89 28 40
        E 86 89 24 40
        E 26 99 35 71
        E 2 99 26 73
        E 3 99 3c 36
        E 89 89 35 40
        E 2 89 26 40
        E 10 89 3c 40
        E 136 99 24 62
        E 1 99 24 7f
        E 0 99 3c 7d
        E 1 99 35 57
        E 92 89 24 40
        E 4 89 35 40
        E 4 89 24 40
        E 1 89 3c 40
        E 13 99 26 44
        E 4 99 24 63
        E 94 89 24 40
        E 2 89 26 40
        E 17 99 3c 49
        E 7 99 35 6f
        E 4 99 26 78
        E 90 89 35 40
        E 4 89 26 40
        E 1 89 3c 40
        E 11 99 26 63
        E 101 89 26 40
        E 21 99 3c 7f
        E 5 99 26 66
        E 7 99 35 6e
        E 2 99 24 5e
        E 90 89 3c 40
        E 2 89 35 40
        E 0 89 26 40
        E 2 89 24 40
        E 26 99 24 64
        E 94 89 24 40
        E 16 99 3c 3e
        E 2 99 26 75
        E 4 99 35 50
        E 1 99 24 7f
        E 5 99 26 64
        E 0 99 37 7f
        E 84 89 26 40
        E 5 89 3c 40
        E 3 89 35 40
        E 6 89 24 40
        E 5 99 26 38
        E 5 99 24 5f
        E 10 89 26 40
        E 0 89 37 40
        E 86 89 24 40
        E 0 89 26 40
        E 28 99 35 5d
        E 0 99 3c 6c
        E 92 89 35 40
        E 11 89 3c 40
        E 7 99 24 64
        E 3 99 26 37
        E 93 89 24 40
        E 8 89 26 40
        E 22 99 26 75
        E 2 99 35 62
        E 4 99 3c 41
        E 6 99 24 7c
        E 84 89 26 40
        E 0 89 35 40
        E 12 89 3c 40
        E 14 99 24 64
        E 8 89 24 40
        E 86 89 24 40
        E 24 99 35 4e
        E 10 99 26 7f
        E 2 99 28 37
        E 0 99 3c 7f
        E 88 89 35 40
        E 9 89 26 40
        E 3 89 3c 40
        E 4 99 24 5e
        E 14 89 28 40
        E 78 89 24 40
        E 30 99 26 79
        E 0 99 35 7f
        E 10 99 24 7f
        E 2 99 3c 34
        E 82 89 26 40
        E 0 89 35 40
        E 17 89 24 40
        E 2 89 3c 40
        E 125 99 24 5e
        E 2 99 35 61
        E 6 99 3c 7f
        E 86 89 24 40
        E 2 89 35 40
        E 13 89 3c 40
        E 13 99 24 64
        E 1 99 26 3d
        E 93 89 24 40
        E 8 89 26 40
        E 18 99 26 74
        E 2 99 35 6a
        E 3 99 3c 3c
        E 89 89 26 40
        E 4 89 35 40
        E 9 89 3c 40
        E 9 99 26 3b
        E 101 89 26 40
        E 25 99 24 64
        E 2 99 37 77
        E 5 99 3c 7a
        E 5 99 24 7f
        E 0 99 38 7c
        E 8 99 20 7f
        E 76 89 24 40
        E 0 89 37 40
        E 11 89 3c 40
        E 5 89 24 40
        E 5 99 26 3d
        E 4 89 20 40
        E 1 99 24 62
        E 8 89 38 40
        E 2 99 24 48
        E 85 89 26 40
        E 1 89 24 40
        E 19 99 3c 3d
        E 7 99 26 72
        E 0 99 35 7b
        E 6 89 24 40
        E 2 99 24 64
        E 0 99 39 7f
        E 0 99 3c 36
        E 84 89 35 40
        E 2 89 26 40
        E 0 89 3c 40
        E 15 89 3c 40
        E 1 99 26 36
        E 12 99 24 62
        E 0 99 26 3c
        E 4 89 24 40
        E 0 89 39 40
        E 84 89 26 40
        E 4 89 24 40
        E 8 89 26 40
        E 12 99 3c 7f
        E 10 99 35 69
        E 10 99 3c 7f
        E 79 89 3c 40
        E 5 89 35 40
        E 12 99 26 4a
        E 5 89 3c 40
        E 3 99 24 64
        E 14 99 26 6e
        E 78 89 26 40
        E 2 89 24 40
        E 20 89 26 40
        E 7 99 3b 28
        E 1 99 26 7b
        E 0 99 35 66
        E 3 99 24 7f
        E 9 99 3c 27
        E 86 89 26 40
        E 0 89 35 40
        E 1 89 3b 40
        E 9 89 24 40
        E 6 89 3c 40
        E 8 99 24 64
        E 98 89 24 40
        E 21 99 26 7f
        E 3 99 35 5a
        E 0 99 3c 7f
        E 4 99 24 64
        E 0 99 28 39
        E 0 99 39 7f
        E 4 99 26 76
        E 4 99 3c 7f
        E 84 89 35 40
        E 3 89 26 40
        E 4 89 3c 40
        E 5 89 26 40
        E 8 99 24 63
        E 2 89 3c 40
        E 4 89 24 40
        E 0 89 28 40
        E 0 89 39 40
        E 86 89 24 40
        E 25 99 3c 3c
        E 5 99 26 71
        E 1 99 3c 36
        E 1 99 35 6a
        E 94 89 3c 40
        E 0 89 26 40
        E 6 89 3c 40
        E 0 89 35 40
        E 11 99 26 3f
        E 2 99 26 41
        E 99 89 26 40
        E 1 89 26 40
        E 16 99 3c 7f
        E 5 99 24 61
        E 3 99 24 7f
        E 0 99 3c 7d
        E 3 99 35 3c
        E 88 89 24 40
        E 3 89 3c 40
        E 3 89 35 40
        E 4 89 24 40
        E 1 89 3c 40
        E 13 99 26 3f
        E 6 99 24 60
        E 94 89 26 40
        E 2 89 24 40
        E 3 89 26 40
        E 12 99 3c 49
        E 4 99 3c 46
        E 3 99 24 7f
        E 4 99 26 7b
        E 0 99 35 6b
        E 4 99 39 64
        E 90 89 35 40
        E 1 89 3c 40
        E 1 89 26 40
        E 2 89 24 40
        E 8 99 26 63
        E 13 99 26 3c
        E 3 89 39 40
        E 85 89 26 40
        E 12 89 26 40
        E 9 99 3c 7f
        E 5 99 26 66
        E 3 99 24 61
        E 0 99 3c 7e
        E 4 99 35 4c
        E 92 89 3c 40
        E 0 89 24 40
        E 2 89 35 40
        E 0 89 26 40
        E 4 89 3c 40
        E 15 99 26 44
        E 3 99 24 64
        E 96 89 26 40
        E 4 89 24 40
        E 16 99 3c 3e
        E 2 99 3c 39
        E 2 99 26 72
        E 2 99 35 58
        E 1 99 24 7f
        E 5 99 24 64
        E 0 99 26 64
        E 0 99 39 7f
        E 0 99 3a 7c
        E 89 89 3c 40
        E 1 89 26 40
        E 0 89 35 40
        E 8 89 24 40
        E 0 89 3c 40
        E 5 99 26 38
        E 3 99 24 60
        E 2 99 26 3d
        E 10 89 24 40
        E 0 89 26 40
        E 0 89 39 40
        E 0 89 3a 40
        E 84 89 24 40
        E 2 89 26 40
        E 4 89 26 40
        E 21 99 24 7f
        E 3 99 3c 6c
        E 4 99 35 3e
        E 1 99 3c 79
        E 94 89 24 40
        E 3 89 35 40
        E 1 89 3c 40
        E 4 89 3c 40
        E 1 99 24 61
        E 5 99 26 37
        E 9 99 26 55
        E 82 89 24 40
        E 10 89 26 40
        E 8 89 26 40
        E 13 99 3c 3e
        E 7 99 26 78
        E 0 99 35 6e
        E 0 99 3c 41
        E 6 99 24 7c
        E 88 89 26 40
        E 0 89 35 40
        E 1 89 3c 40
        E 7 89 3c 40
        E 18 99 24 5e
        E 4 89 24 40
        E 90 89 24 40
        E 24 99 35 7f
        E 6 99 26 7f
        E 2 99 26 7f
        E 0 99 28 37
        E 0 99 3c 7f
        E 1 99 3c 7f
        E 85 89 35 40
        E 11 89 26 40
        E 3 89 3c 40
        E 1 89 26 40
        E 0 89 3c 40
        E 17 89 28 40
        E 2 99 24 60
        E 96 89 24 40
        E 20 99 24 7f
        E 0 99 26 79
        E 0 99 35 5d
        E 2 99 3c 34
        E 2 99 39 7f
        E 4 99 3c 2f
        E 88 89 26 40
        E 0 89 35 40
        E 5 89 24 40
        E 2 89 3c 40
        E 5 89 3c 40
        E 11 99 26 3b
        E 3 89 39 40
        E 2 99 24 64
        E 96 89 26 40
        E 16 99 3c 7f
        E 2 99 24 62
        E 4 89 24 40
        E 0 99 35 65
        E 2 99 26 64
        E 0 99 28 76
        E 0 99 30 7f
        E 58 89 30 40
        E 32 89 24 40
        E 2 89 3c 40
        E 1 89 3c 40
        E 1 89 35 40
        E 13 99 26 3d
        E 9 99 24 60
        E 2 89 26 40
        E 0 89 28 40
        E 2 99 26 47
        E 58 89 26 40
        E 30 89 26 40
        E 2 89 24 40
        E 21 99 3c 3c
        E 7 99 26 7b
        E 2 99 30 6e
        E 0 99 35 62
        E 3 99 3c 34
        E 55 89 30 40
        E 35 89 3c 40
        E 1 89 26 40
        E 2 89 35 40
        E 6 99 26 3b
        E 2 89 3c 40
        E 16 99 26 78
        E 58 89 26 40
        E 25 89 26 40
        E 27 99 24 60
        E 5 99 24 7f
        E 0 99 3c 7a
        E 1 99 24 7f
        E 4 99 24 7f
        E 0 99 37 7f
        E 8 99 20 7f
        E 76 89 24 40
        E 11 89 24 40
        E 0 89 3c 40
        E 2 89 24 40
        E 4 89 24 40
        E 8 89 20 40
        E 1 99 24 5e
        E 8 89 37 40
        E 86 89 24 40
        E 22 99 26 74
        E 0 99 35 6c
        E 14 99 3c 36
        E 80 89 26 40
        E 6 89 35 40
        E 15 89 3c 40
        E 3 99 24 64
        E 10 99 26 3c
        E 84 89 24 40
        E 16 89 26 40
        E 12 99 35 5d
        E 20 99 3c 7f
        E 76 89 35 40
        E 18 99 24 61
        E 7 89 3c 40
        E 89 89 24 40
        E 32 99 26 7b
        E 0 99 35 73
        E 16 99 3c 27
        E 3 99 24 7f
        E 75 89 35 40
        E 4 89 26 40
        E 18 99 24 61
        E 2 89 3c 40
        E 7 89 24 40
        E 85 89 24 40
        E 30 99 35 76
        E 12 99 28 39
        E 8 99 3c 7f
        E 76 89 35 40
        E 28 99 24 5f
        E 2 89 3c 40
        E 4 89 28 40
        E 86 89 24 40
        E 26 99 35 71
        E 2 99 26 73
        E 3 99 3c 36
        E 89 89 35 40
        E 2 89 26 40
        E 10 89 3c 40
        E 136 99 24 62
        E 1 99 24 7f
        E 0 99 3c 7d
        E 1 99 35 57
        E 92 89 24 40
        E 4 89 35 40
        E 4 89 24 40
        E 1 89 3c 40
        E 13 99 26 44
        E 4 99 24 63
        E 94 89 24 40
        E 2 89 26 40
        E 17 99 3c 49
        E 7 99 35 6f
        E 4 99 26 78
        E 90 89 35 40
        E 4 89 26 40
        E 1 89 3c 40
        E 11 99 26 63
        E 101 89 26 40
        E 21 99 3c 7f
        E 5 99 26 66
        E 7 99 35 6e
        E 2 99 24 5e
        E 90 89 3c 40
        E 2 89 35 40
        E 0 89 26 40
        E 2 89 24 40
        E 26 99 24 64
        E 94 89 24 40
        E 16 99 3c 3e
        E 2 99 26 75
        E 4 99 35 50
        E 1 99 24 7f
        E 5 99 26 64
        E 0 99 37 7f
        E 84 89 26 40
        E 5 89 3c 40
        E 3 89 35 40
        E 6 89 24 40
        E 5 99 26 38
        E 5 99 24 5f
        E 10 89 26 40
        E 0 89 37 40
        E 86 89 24 40
        E 0 89 26 40
        E 28 99 35 5d
        E 0 99 3c 6c
        E 92 89 35 40
        E 11 89 3c 40
        E 7 99 24 64
        E 3 99 26 37
        E 93 89 24 40
        E 8 89 26 40
        E 22 99 26 75
        E 2 99 35 62
        E 4 99 3c 41
        E 6 99 24 7c
        E 84 89 26 40
        E 0 89 35 40
        E 12 89 3c 40
        E 14 99 24 64
        E 8 89 24 40
        E 86 89 24 40
        E 24 99 35 4e
        E 10 99 26 7f
        E 2 99 28 37
        E 0 99 3c 7f
        E 88 89 35 40
        E 9 89 26 40
        E 3 89 3c 40
        E 4 99 24 5e
        E 14 89 28 40
        E 78 89 24 40
        E 30 99 26 79
        E 0 99 35 7f
        E 10 99 24 7f
        E 2 99 3c 34
        E 82 89 26 40
        E 0 89 35 40
        E 17 89 24 40
        E 2 89 3c 40
        E 125 99 24 5e
        E 2 99 35 61
        E 6 99 3c 7f
        E 86 89 24 40
        E 2 89 35 40
        E 13 89 3c 40
        E 13 99 24 64
        E 1 99 26 3d
        E 93 89 24 40
        E 8 89 26 40
        E 18 99 26 74
        E 2 99 35 6a
        E 3 99 3c 3c
        E 89 89 26 40
        E 4 89 35 40
        E 9 89 3c 40
        E 9 99 26 3b
        E 101 89 26 40
        E 25 99 24 64
        E 2 99 37 77
        E 5 99 3c 7a
        E 89 89 24 40
        E 0 89 37 40
        E 11 89 3c 40
        E 13825 99 24 75
        E 58 89 24 40
        E 59 99 2f 7f
        E 58 89 2f 40
        E 59 99 26 4a
        E 58 89 26 40
        E 62 99 2f 72
        E 58 89 2f 40
        E 61 99 26 7f
        E 58 89 26 40
        E 69 99 24 75
        E 58 89 24 40
        E 54 99 2e 7f
        E 58 89 2e 40
        E 190 99 26 7f
        E 118 89 26 40
        E 242 99 24 75
        E 58 89 24 40
        E 59 99 30 7f
        E 58 89 30 40
        E 59 99 26 4a
        E 58 89 26 40
        E 62 99 30 72
        E 58 89 30 40
        E 61 99 26 7f
        E 58 89 26 40
        E 69 99 24 75
        E 58 89 24 40
        E 54 99 2e 7f
        E 58 89 2e 40
        E 190 99 26 7f
        E 118 89 26 40
        E 122 99 26 64
        E 118 89 26 40
        E 86202 99 24 64
        E 0 99 2c 64
        E 0 99 31 71
        E 118 89 24 40
        E 0 89 2c 40
        E 0 89 31 40
        E 362 99 24 64
        E 0 99 2c 64
        E 0 99 31 64
        E 118 89 24 40
        E 0 89 2c 40
        E 0 89 31 40
        E 122 99 24 64
        E 118 89 24 40
        E 122 99 2c 64
        E 0 99 31 64
        E 118 89 2c 40
        E 0 89 31 40
        E 122 99 24 64
        E 118 89 24 40
        E 2 99 24 64
        E 118 89 24 40
        E 2 99 26 64
        E 0 99 2c 64
        E 0 99 31 64
        E 118 89 26 40
        E 0 89 2c 40
        E 0 89 31 40
        E 122 99 24 64
        E 118 89 24 40
        E 122 99 2c 64
        E 0 99 31 64
        E 118 89 2c 40
        E 0 89 31 40
        E 122 99 24 64
        E 0 99 2e 64
        E 118 89 24 40
        E 0 89 2e 40
        E 122 99 2c 64
        E 0 99 31 64
        E 118 89 2c 40
        E 0 89 31 40
        E 122 99 24 64
        E 0 99 2e 64
        E 118 89 24 40
        E 0 89 2e 40
        E 122 99 24 64
        E 0 99 2c 64
        E 0 99 31 64
        E 118 89 24 40
        E 0 89 2c 40
        E 0 89 31 40
        E 362 99 24 64
        E 0 99 2c 64
        E 0 99 31 64
        E 118 89 24 40
        E 0 89 2c 40
        E 0 89 31 40
        E 122 99 24 64
        E 118 89 24 40
        E 122 99 2c 64
        E 0 99 31 64
        E 118 89 2c 40
        E 0 89 31 40
        E 122 99 24 64
        E 118 89 24 40
        E 122 99 26 64
        E 0 99 2c 64
        E 0 99 31 64
        E 118 89 26 40
        E 0 89 2c 40
        E 0 89 31 40
        E 122 99 24 64
        E 0 99 26 64
        E 118 89 24 40
        E 0 89 26 40
        E 2 99 26 64
        E 118 89 26 40
        E 2 99 2c 64
        E 0 99 31 64
        E 118 89 2c 40
        E 0 89 31 40
        E 2 99 26 64
        E 118 89 26 40
        E 2 99 24 64
        E 0 99 26 64
        E 118 89 24 40
        E 0 89 26 40
        E 2 99 26 64
        E 118 89 26 40
        E 2 99 2c 64
        E 0 99 31 64
        E 118 89 2c 40
        E 0 89 31 40
        E 2 99 26 64
        E 118 89 26 40
        E 2 99 24 64
        E 0 99 34 79
        E 118 89 24 40
        E 0 89 34 40
        E 122 99 24 64
        E 0 99 2c 64
        E 0 99 31 71
        E 118 89 24 40
        E 0 89 2c 40
        E 0 89 31 40
        E 122 99 30 76
        E 118 89 30 40
        E 122 99 24 64
        E 0 99 2c 64
        E 0 99 31 64
        E 118 89 24 40
        E 0 89 2c 40
        E 0 89 31 40
        E 122 99 24 64
        E 118 89 24 40
        E 122 99 2c 64
        E 0 99 31 64
        E 118 89 2c 40
        E 0 89 31 40
        E 122 99 24 64
        E 118 89 24 40
        E 2 99 24 64
        E 118 89 24 40
        E 2 99 26 64
        E 0 99 2c 64
        E 0 99 31 64
        E 118 89 26 40
        E 0 89 2c 40
        E 0 89 31 40
        E 122 99 24 64
        E 118 89 24 40
        E 122 99 2c 64
        E 0 99 31 64
        E 118 89 2c 40
        E 0 89 31 40
        E 122 99 24 64
        E 0 99 2e 64
        E 118 89 24 40
        E 0 89 2e 40
        E 122 99 2c 64
        E 0 99 31 64
        E 118 89 2c 40
        E 0 89 31 40
        E 122 99 24 64
        E 0 99 2e 64
        E 118 89 24 40
        E 0 89 2e 40
        E 122 99 24 64
        E 0 99 2c 64
        E 0 99 31 64
        E 118 89 24 40
        E 0 89 2c 40
        E 0 89 31 40
        E 362 99 24 64
        E 0 99 2c 64
        E 0 99 31 64
        E 118 89 24 40
        E 0 89 2c 40
        E 0 89 31 40
        E 122 99 24 64
        E 118 89 24 40
        E 122 99 2c 64
        E 0 99 31 64
        E 118 89 2c 40
        E 0 89 31 40
        E 122 99 24 64
        E 118 89 24 40
        E 2 99 24 64
        E 118 89 24 40
        E 2 99 26 64
        E 0 99 2c 64
        E 0 99 31 64
        E 118 89 26 40
        E 0 89 2c 40
        E 0 89 31 40
        E 122 99 24 64
        E 118 89 24 40
        E 92 99 29 64
        E 30 99 30 64
        E 0 99 2b 64
        E 88 89 29 40
        E 30 89 30 40
        E 0 89 2b 40
        E 122 99 24 64
        E 118 89 24 40
        E 92 99 2b 64
        E 30 99 2f 64
        E 88 89 2b 40
        E 30 89 2f 40
        E 122 99 24 64
        E 118 89 24 40
        E 122 99 24 64
        E 0 99 2c 64
        E 0 99 31 71
        E 118 89 24 40
        E 0 89 2c 40
        E 0 89 31 40
        E 362 99 24 64
        E 0 99 2c 64
        E 0 99 31 64
        E 118 89 24 40
        E 0 89 2c 40
        E 0 89 31 40
        E 122 99 24 64
        E 118 89 24 40
        E 122 99 2c 64
        E 0 99 31 64
        E 118 89 2c 40
        E 0 89 31 40
        E 122 99 24 64
        E 118 89 24 40
        E 2 99 24 64
        E 118 89 24 40
        E 2 99 26 64
        E 0 99 2c 64
        E 0 99 31 64
        E 118 89 26 40
        E 0 89 2c 40
        E 0 89 31 40
        E 122 99 24 64
        E 118 89 24 40
        E 122 99 2c 64
        E 0 99 31 64
        E 118 89 2c 40
        E 0 89 31 40
        E 122 99 24 64
        E 0 99 2e 64
        E 118 89 24 40
        E 0 89 2e 40
        E 122 99 2c 64
        E 0 99 31 64
        E 118 89 2c 40
        E 0 89 31 40
        E 122 99 24 64
        E 0 99 2e 64
        E 118 89 24 40
        E 0 89 2e 40
        E 122 99 24 64
        E 0 99 2c 64
        E 0 99 31 64
        E 118 89 24 40
        E 0 89 2c 40
        E 0 89 31 40
        E 362 99 24 64
        E 0 99 2c 64
        E 0 99 31 64
        E 118 89 24 40
        E 0 89 2c 40
        E 0 89 31 40
        E 122 99 24 64
        E 118 89 24 40
        E 122 99 2c 64
        E 0 99 31 64
        E 118 89 2c 40
        E 0 89 31 40
        E 122 99 24 64
        E 118 89 24 40
        E 122 99 26 64
        E 0 99 2c 64
        E 0 99 31 64
        E 118 89 26 40
        E 0 89 2c 40
        E 0 89 31 40
        E 122 99 24 64
        E 0 99 26 64
        E 118 89 24 40
        E 0 89 26 40
        E 2 99 26 64
        E 118 89 26 40
        E 2 99 2c 64
        E 0 99 31 64
        E 118 89 2c 40
        E 0 89 31 40
        E 2 99 26 64
        E 118 89 26 40
        E 2 99 24 64
        E 0 99 26 64
        E 118 89 24 40
        E 0 89 26 40
        E 2 99 26 64
        E 118 89 26 40
        E 2 99 2c 64
        E 0 99 31 64
        E 118 89 2c 40
        E 0 89 31 40
        E 2 99 26 64
        E 118 89 26 40
        E 2 99 24 64
        E 0 99 34 79
        E 118 89 24 40
        E 0 89 34 40
        E 122 99 24 64
        E 0 99 2c 64
        E 0 99 31 64
        E 118 89 24 40
        E 0 89 2c 40
        E 0 89 31 40
        E 362 99 24 64
        E 0 99 2c 64
        E 0 99 31 64
        E 118 89 24 40
        E 0 89 2c 40
        E 0 89 31 40
        E 122 99 24 64
        E 118 89 24 40
        E 122 99 2c 64
        E 0 99 31 64
        E 118 89 2c 40
        E 0 89 31 40
        E 122 99 24 64
        E 118 89 24 40
        E 2 99 24 64
        E 118 89 24 40
        E 2 99 26 64
        E 0 99 2c 64
        E 0 99 31 64
        E 118 89 26 40
        E 0 89 2c 40
        E 0 89 31 40
        E 122 99 24 64
        E 118 89 24 40
        E 122 99 2c 64
        E 0 99 31 64
        E 118 89 2c 40
        E 0 89 31 40
        E 122 99 24 64
        E 0 99 2e 64
        E 118 89 24 40
        E 0 89 2e 40
        E 122 99 2c 64
        E 0 99 31 64
        E 118 89 2c 40
        E 0 89 31 40
        E 122 99 24 64
        E 0 99 2e 64
        E 118 89 24 40
        E 0 89 2e 40
        E 122 99 24 64
        E 0 99 2c 64
        E 0 99 31 64
        E 118 89 24 40
        E 0 89 2c 40
        E 0 89 31 40
        E 362 99 24 64
        E 0 99 2c 64
        E 0 99 31 64
        E 118 89 24 40
        E 0 89 2c 40
        E 0 89 31 40
        E 122 99 24 64
        E 118 89 24 40
        E 122 99 2c 64
        E 0 99 31 64
        E 118 89 2c 40
        E 0 89 31 40
        E 122 99 24 64
        E 118 89 24 40
        E 122 99 2e 64
        E 0 99 31 64
        E 118 89 2e 40
        E 0 89 31 40
        E 2 99 2c 64
        E 118 89 2c 40
        E 2 99 24 64
        E 0 99 26 47
        E 118 89 24 40
        E 0 89 26 40
        E 2 99 26 55
        E 118 89 26 40
        E 2 99 2c 64
        E 0 99 26 64
        E 0 99 31 64
        E 118 89 2c 40
        E 0 89 26 40
        E 0 89 31 40
        E 2 99 30 64
        E 118 89 30 40
        E 2 99 24 64
        E 0 99 30 64
        E 118 89 24 40
        E 0 89 30 40
        E 2 99 2f 64
        E 118 89 2f 40
        E 2 99 2c 64
        E 0 99 2f 64
        E 0 99 31 64
        E 118 89 2c 40
        E 0 89 2f 40
        E 0 89 31 40
        E 2 99 29 64
        E 118 89 29 40
        E 2 99 24 64
        E 0 99 29 64
        E 118 89 24 40
        E 0 89 29 40
        E 2 99 29 64
        E 118 89 29 40
        E 16660 99 24 64
        E 118 89 24 40
        E 2 99 24 64
        E 118 89 24 40
        E 2 99 2b 7f
        E 0 99 30 7f
        E 118 89 2b 40
        E 0 89 30 40
        E 122 99 24 76
        E 118 89 24 40
        E 92 99 2b 79
        E 30 99 2f 76
        E 88 89 2b 40
        E 30 89 2f 40
        E 122 99 24 7f
        E 118 89 24 40
        E 122 99 24 64
        E 0 99 2e 64
        E 0 99 34 64
        E 0 99 24 64
        E 0 99 2c 64
        E 0 99 31 71
        E 118 89 24 40
        E 0 89 2e 40
        E 0 89 34 40
        E 0 89 24 40
        E 0 89 2c 40
        E 0 89 31 40
        E 362 99 2c 64
        E 0 99 24 64
        E 0 99 2c 64
        E 0 99 31 64
        E 118 89 2c 40
        E 0 89 24 40
        E 0 89 2c 40
        E 0 89 31 40
        E 122 99 24 64
        E 0 99 2c 64
        E 0 99 24 64
        E 118 89 24 40
        E 0 89 2c 40
        E 0 89 24 40
        E 122 99 24 64
        E 0 99 2e 64
        E 0 99 2c 64
        E 0 99 31 64
        E 118 89 24 40
        E 0 89 2e 40
        E 0 89 2c 40
        E 0 89 31 40
        E 122 99 24 64
        E 118 89 24 40
        E 2 99 24 64
        E 118 89 24 40
        E 2 99 26 64
        E 0 99 2c 64
        E 0 99 26 64
        E 0 99 2c 64
        E 0 99 31 64
        E 118 89 26 40
        E 0 89 2c 40
        E 0 89 26 40
        E 0 89 2c 40
        E 0 89 31 40
        E 122 99 2c 64
        E 0 99 24 64
        E 118 89 2c 40
        E 0 89 24 40
        E 122 99 2e 64
        E 0 99 2c 64
        E 0 99 31 64
        E 118 89 2e 40
        E 0 89 2c 40
        E 0 89 31 40
        E 122 99 24 64
        E 0 99 2e 64
        E 118 89 24 40
        E 0 89 2e 40
        E 122 99 2c 64
        E 0 99 31 64
        E 118 89 2c 40
        E 0 89 31 40
        E 122 99 24 64
        E 0 99 2c 64
        E 0 99 24 64
        E 0 99 2e 64
        E 118 89 24 40
        E 0 89 2c 40
        E 0 89 24 40
        E 0 89 2e 40
        E 122 99 24 64
        E 0 99 2e 64
        E 0 99 24 64
        E 0 99 2c 64
        E 0 99 31 64
        E 118 89 24 40
        E 0 89 2e 40
        E 0 89 24 40
        E 0 89 2c 40
        E 0 89 31 40
        E 362 99 2c 64
        E 0 99 24 64
        E 0 99 2c 64
        E 0 99 31 64
        E 118 89 2c 40
        E 0 89 24 40
        E 0 89 2c 40
        E 0 89 31 40
        E 122 99 24 64
        E 0 99 2c 64
        E 0 99 24 64
        E 118 89 24 40
        E 0 89 2c 40
        E 0 89 24 40
        E 122 99 24 64
        E 0 99 2e 64
        E 0 99 2c 64
        E 0 99 31 64
        E 118 89 24 40
        E 0 89 2e 40
        E 0 89 2c 40
        E 0 89 31 40
        E 122 99 24 64
        E 118 89 24 40
        E 2 99 24 64
        E 118 89 24 40
        E 2 99 26 64
        E 0 99 2c 64
        E 0 99 26 64
        E 0 99 2c 64
        E 0 99 31 64
        E 118 89 26 40
        E 0 89 2c 40
        E 0 89 26 40
        E 0 89 2c 40
        E 0 89 31 40
        E 122 99 2c 64
        E 0 99 24 64
        E 118 89 2c 40
        E 0 89 24 40
        E 92 99 29 64
        E 30 99 2e 64
        E 0 99 2b 64
        E 0 99 30 64
        E 88 89 29 40
        E 30 89 2e 40
        E 0 89 2b 40
        E 0 89 30 40
        E 122 99 24 64
        E 118 89 24 40
        E 92 99 2b 64
        E 30 99 2c 64
        E 0 99 2f 64
        E 88 89 2b 40
        E 30 89 2c 40
        E 0 89 2f 40
        E 122 99 24 64
        E 0 99 26 37
        E 0 99 2c 64
        E 0 99 24 64
        E 118 89 24 40
        E 0 89 26 40
        E 0 89 2c 40
        E 0 89 24 40
        E 122 99 24 64
        E 0 99 2e 64
        E 0 99 34 64
        E 0 99 24 64
        E 0 99 2c 64
        E 0 99 31 71
        E 118 89 24 40
        E 0 89 2e 40
        E 0 89 34 40
        E 0 89 24 40
        E 0 89 2c 40
        E 0 89 31 40
        E 362 99 2c 64
        E 0 99 24 64
        E 0 99 2c 64
        E 0 99 31 64
        E 118 89 2c 40
        E 0 89 24 40
        E 0 89 2c 40
        E 0 89 31 40
        E 122 99 24 64
        E 0 99 2c 64
        E 0 99 24 64
        E 118 89 24 40
        E 0 89 2c 40
        E 0 89 24 40
        E 122 99 24 64
        E 0 99 2e 64
        E 0 99 2c 64
        E 0 99 31 64
        E 118 89 24 40
        E 0 89 2e 40
        E 0 89 2c 40
        E 0 89 31 40
        E 122 99 24 64
        E 118 89 24 40
        E 2 99 24 64
        E 118 89 24 40
        E 2 99 26 64
        E 0 99 2c 64
        E 0 99 26 64
        E 0 99 2c 64
        E 0 99 31 64
        E 118 89 26 40
        E 0 89 2c 40
        E 0 89 26 40
        E 0 89 2c 40
        E 0 89 31 40
        E 122 99 2c 64
        E 0 99 24 64
        E 118 89 2c 40
        E 0 89 24 40
        E 122 99 2e 64
        E 0 99 2c 64
        E 0 99 31 64
        E 118 89 2e 40
        E 0 89 2c 40
        E 0 89 31 40
        E 122 99 24 64
        E 0 99 2e 64
        E 118 89 24 40
        E 0 89 2e 40
        E 122 99 2c 64
        E 0 99 31 64
        E 118 89 2c 40
        E 0 89 31 40
        E 122 99 24 64
        E 0 99 2c 64
        E 0 99 24 64
        E 0 99 2e 64
        E 118 89 24 40
        E 0 89 2c 40
        E 0 89 24 40
        E 0 89 2e 40
        E 122 99 24 64
        E 0 99 2e 64
        E 0 99 24 64
        E 0 99 2c 64
        E 0 99 31 64
        E 118 89 24 40
        E 0 89 2e 40
        E 0 89 24 40
        E 0 89 2c 40
        E 0 89 31 40
        E 362 99 2c 64
        E 0 99 24 64
        E 0 99 2c 64
        E 0 99 31 64
        E 118 89 2c 40
        E 0 89 24 40
        E 0 89 2c 40
        E 0 89 31 40
        E 122 99 24 64
        E 0 99 2c 64
        E 0 99 24 64
        E 118 89 24 40
        E 0 89 2c 40
        E 0 89 24 40
        E 122 99 24 64
        E 0 99 2e 64
        E 0 99 2c 64
        E 0 99 31 64
        E 118 89 24 40
        E 0 89 2e 40
        E 0 89 2c 40
        E 0 89 31 40
        E 122 99 24 64
        E 118 89 24 40
        E 122 99 26 64
        E 0 99 2c 64
        E 0 99 26 64
        E 0 99 2c 64
        E 0 99 31 64
        E 118 89 26 40
        E 0 89 2c 40
        E 0 89 26 40
        E 0 89 2c 40
        E 0 89 31 40
        E 122 99 2c 64
        E 0 99 24 64
        E 0 99 26 64
        E 118 89 2c 40
        E 0 89 24 40
        E 0 89 26 40
        E 2 99 26 64
        E 118 89 26 40
        E 2 99 2e 64
        E 0 99 2c 64
        E 0 99 31 64
        E 118 89 2e 40
        E 0 89 2c 40
        E 0 89 31 40
        E 2 99 26 64
        E 118 89 26 40
        E 2 99 24 64
        E 0 99 26 64
        E 118 89 24 40
        E 0 89 26 40
        E 2 99 26 64
        E 118 89 26 40
        E 2 99 2c 64
        E 0 99 31 64
        E 118 89 2c 40
        E 0 89 31 40
        E 2 99 26 64
        E 118 89 26 40
        E 2 99 24 64
        E 0 99 26 37
        E 0 99 2c 64
        E 0 99 24 64
        E 0 99 34 79
        E 118 89 24 40
        E 0 89 26 40
        E 0 89 2c 40
        E 0 89 24 40
        E 0 89 34 40
        E 122 99 24 64
        E 0 99 2c 64
        E 0 99 31 71
        E 118 89 24 40
        E 0 89 2c 40
        E 0 89 31 40
        E 362 99 24 64
        E 0 99 2c 64
        E 0 99 31 64
        E 118 89 24 40
        E 0 89 2c 40
        E 0 89 31 40
        E 122 99 24 64
        E 118 89 24 40
        E 122 99 2c 64
        E 0 99 31 64
        E 118 89 2c 40
        E 0 89 31 40
        E 122 99 24 64
        E 118 89 24 40
        E 2 99 24 64
        E 118 89 24 40
        E 2 99 26 64
        E 0 99 2c 64
        E 0 99 31 64
        E 118 89 26 40
        E 0 89 2c 40
        E 0 89 31 40
        E 122 99 24 64
        E 118 89 24 40
        E 122 99 2c 64
        E 0 99 31 64
        E 118 89 2c 40
        E 0 89 31 40
        E 122 99 24 64
        E 0 99 2e 64
        E 118 89 24 40
        E 0 89 2e 40
        E 122 99 2c 64
        E 0 99 31 64
        E 118 89 2c 40
        E 0 89 31 40
        E 122 99 24 64
        E 0 99 2e 64
        E 118 89 24 40
        E 0 89 2e 40
        E 122 99 24 64
        E 0 99 2c 64
        E 0 99 31 64
        E 118 89 24 40
        E 0 89 2c 40
        E 0 89 31 40
        E 362 99 24 64
        E 0 99 2c 64
        E 0 99 31 64
        E 118 89 24 40
        E 0 89 2c 40
        E 0 89 31 40
        E 122 99 24 64
        E 118 89 24 40
        E 122 99 2c 64
        E 0 99 31 64
        E 118 89 2c 40
        E 0 89 31 40
        E 122 99 24 64
        E 118 89 24 40
        E 122 99 26 64
        E 0 99 2c 64
        E 0 99 31 64
        E 118 89 26 40
        E 0 89 2c 40
        E 0 89 31 40
        E 122 99 24 64
        E 0 99 26 64
        E 118 89 24 40
        E 0 89 26 40
        E 2 99 26 64
        E 118 89 26 40
        E 2 99 2c 64
        E 0 99 31 64
        E 118 89 2c 40
        E 0 89 31 40
        E 2 99 26 64
        E 118 89 26 40
        E 2 99 24 64
        E 0 99 26 64
        E 118 89 24 40
        E 0 89 26 40
        E 2 99 26 64
        E 118 89 26 40
        E 2 99 2c 64
        E 0 99 31 64
        E 118 89 2c 40
        E 0 89 31 40
        E 2 99 26 64
        E 118 89 26 40
        E 2 99 24 64
        E 0 99 34 79
        E 118 89 24 40
        E 0 89 34 40
        E 122 99 24 64
        E 0 99 2c 64
        E 0 99 31 64
        E 118 89 24 40
        E 0 89 2c 40
        E 0 89 31 40
        E 362 99 24 64
        E 0 99 2c 64
        E 0 99 31 64
        E 118 89 24 40
        E 0 89 2c 40
        E 0 89 31 40
        E 122 99 24 64
        E 118 89 24 40
        E 122 99 2c 64
        E 0 99 31 64
        E 118 89 2c 40
        E 0 89 31 40
        E 122 99 24 64
        E 118 89 24 40
        E 2 99 24 64
        E 118 89 24 40
        E 2 99 26 64
        E 0 99 2c 64
        E 0 99 31 64
        E 118 89 26 40
        E 0 89 2c 40
        E 0 89 31 40
        E 122 99 24 64
        E 118 89 24 40
        E 122 99 2c 64
        E 0 99 31 64
        E 118 89 2c 40
        E 0 89 31 40
        E 122 99 24 64
        E 0 99 2e 64
        E 118 89 24 40
        E 0 89 2e 40
        E 122 99 2c 64
        E 0 99 31 64
        E 118 89 2c 40
        E 0 89 31 40
        E 122 99 24 64
        E 0 99 2e 64
        E 118 89 24 40
        E 0 89 2e 40
        E 122 99 24 64
        E 0 99 2c 64
        E 0 99 31 64
        E 118 89 24 40
        E 0 89 2c 40
        E 0 89 31 40
        E 362 99 24 64
        E 0 99 2c 64
        E 0 99 31 64
        E 118 89 24 40
        E 0 89 2c 40
        E 0 89 31 40
        E 122 99 24 64
        E 118 89 24 40
        E 122 99 2c 64
        E 0 99 31 64
        E 118 89 2c 40
        E 0 89 31 40
        E 122 99 24 64
        E 118 89 24 40
        E 122 99 2e 64
        E 0 99 31 64
        E 118 89 2e 40
        E 0 89 31 40
        E 2 99 2c 64
        E 118 89 2c 40
        E 2 99 24 64
        E 0 99 26 47
        E 118 89 24 40
        E 0 89 26 40
        E 2 99 26 55
        E 118 89 26 40
        E 2 99 2c 64
        E 0 99 26 64
        E 0 99 31 64
        E 118 89 2c 40
        E 0 89 26 40
        E 0 89 31 40
        E 2 99 30 64
        E 118 89 30 40
        E 2 99 24 64
        E 0 99 30 64
        E 118 89 24 40
        E 0 89 30 40
        E 2 99 2f 64
        E 118 89 2f 40
        E 2 99 2c 64
        E 0 99 2f 64
        E 0 99 31 64
        E 118 89 2c 40
        E 0 89 2f 40
        E 0 89 31 40
        E 2 99 29 64
        E 118 89 29 40
        E 2 99 24 64
        E 0 99 29 64
        E 118 89 24 40
        E 0 89 29 40
        E 2 99 29 64
        E 118 89 29 40
        E 4673 99 24 7f
        E 15 99 39 7f
        E 43 89 24 40
        E 15 89 39 40
        E 56 99 26 0c
        E 58 89 26 40
        E 49 99 18 43
        E 58 89 18 40
        E 59 99 24 7a
        E 58 89 24 40
        E 69 99 26 7f
        E 16 99 18 7f
        E 42 89 26 40
        E 16 89 18 40
        E 150 99 24 7f
        E 19 99 18 43
        E 40 89 24 40
        E 18 89 18 40
        E 51 99 26 33
        E 58 89 26 40
        E 69 99 18 7f
        E 58 89 18 40
        E 53 99 24 7f
        E 10 99 26 24
        E 48 89 24 40
        E 10 89 26 40
        E 63 99 18 43
        E 58 89 18 40
        E 48 99 24 7a
        E 58 89 24 40
        E 68 99 26 7f
        E 15 99 18 7f
        E 43 89 26 40
        E 15 89 18 40
        E 43 99 24 7f
        E 9 99 26 0c
        E 49 89 24 40
        E 9 89 26 40
        E 64 99 18 43
        E 58 89 18 40
        E 54 99 26 3d
        E 58 89 26 40
        E 63 99 24 7f
        E 9 99 18 7f
        E 49 89 24 40
        E 9 89 18 40
        E 73 99 26 25
        E 58 89 26 40
        E 68 99 18 43
        E 58 89 18 40
        E 43 99 24 79
        E 58 89 24 40
        E 73 99 26 7f
        E 15 99 18 7f
        E 43 89 26 40
        E 15 89 18 40
        E 153 99 24 7f
        E 21 99 18 43
        E 37 89 24 40
        E 21 89 18 40
        E 63 99 26 3f
        E 58 89 26 40
        E 58 99 18 7f
        E 58 89 18 40
        E 58 99 24 7d
        E 58 89 24 40
        E 74 99 18 43
        E 58 89 18 40
        E 45 99 24 7f
        E 58 89 24 40
        E 70 99 26 7f
        E 7 99 18 7f
        E 52 89 26 40
        E 6 89 18 40
        E 54 99 24 7b
        E 10 99 26 13
        E 48 89 24 40
        E 10 89 26 40
        E 47 99 18 43
        E 59 89 18 40
        E 48 99 26 79
        E 58 89 26 40
        E 67 99 24 7f
        E 12 99 31 7f
        E 46 89 24 40
        E 12 89 31 40
        E 67 99 26 34
        E 58 89 26 40
        E 55 99 18 43
        E 58 89 18 40
        E 57 99 24 79
        E 58 89 24 40
        E 64 99 26 7f
        E 21 99 18 7f
        E 37 89 26 40
        E 21 89 18 40
        E 159 99 24 7f
        E 3 99 18 43
        E 55 89 24 40
        E 3 89 18 40
        E 49 99 26 38
        E 58 89 26 40
        E 76 99 18 7a
        E 58 89 18 40
        E 49 99 24 7f
        E 7 99 26 27
        E 51 89 24 40
        E 7 89 26 40
        E 68 99 18 43
        E 58 89 18 40
        E 56 99 24 7c
        E 58 89 24 40
        E 67 99 26 7f
        E 16 99 18 7f
        E 42 89 26 40
        E 16 89 18 40
        E 38 99 24 7e
        E 58 89 24 40
        E 45 99 26 09
        E 29 99 18 43
        E 29 89 26 40
        E 29 89 18 40
        E 46 99 26 33
        E 58 89 26 40
        E 55 99 24 7f
        E 14 99 18 7f
        E 44 89 24 40
        E 14 89 18 40
        E 64 99 26 27
        E 57 89 26 40
        E 22 99 26 22
        E 46 89 26 40
        E 10 99 18 43
        E 58 89 18 40
        E 36 99 24 78
        E 58 89 24 40
        E 70 99 26 7f
        E 14 99 18 7f
        E 44 89 26 40
        E 14 89 18 40
        E 58 99 26 35
        E 58 89 26 40
        E 31 99 24 7e
        E 24 99 18 43
        E 34 89 24 40
        E 24 89 18 40
        E 53 99 26 25
        E 41 89 26 40
        E 18 99 26 23
        E 30 89 26 40
        E 33 99 18 7f
        E 58 89 18 40
        E 58 99 26 78
        E 58 89 26 40
        E 21 99 26 2a
        E 45 99 18 43
        E 13 89 26 40
        E 45 89 18 40
        E 54 99 24 7d
        E 58 89 24 40
        E 65 99 26 7f
        E 15 99 18 7f
        E 43 89 26 40
        E 14 89 18 40
        E 43 99 24 7a
        E 58 89 24 40
        E 71 99 26 67
        E 58 89 26 40
        E 58 99 26 7b
        E 58 89 26 40
        E 69 99 24 7f
        E 12 99 34 7f
        E 46 89 24 40
        E 12 89 34 40
        E 56 99 26 2c
        E 58 89 26 40
        E 20 99 26 29
        E 48 99 18 43
        E 10 89 26 40
        E 48 89 18 40
        E 56 99 24 73
        E 58 89 24 40
        E 64 99 26 7f
        E 8 99 18 7f
        E 50 89 26 40
        E 8 89 18 40
        E 167 99 24 7e
        E 14 99 18 43
        E 44 89 24 40
        E 14 89 18 40
        E 175 99 18 7f
        E 58 89 18 40
        E 67 99 24 7b
        E 58 89 24 40
        E 61 99 18 50
        E 58 89 18 40
        E 61 99 24 7e
        E 58 89 24 40
        E 59 99 26 7f
        E 19 99 18 7f
        E 39 89 26 40
        E 19 89 18 40
        E 45 99 24 7a
        E 58 89 24 40
        E 64 99 18 43
        E 58 89 18 40
        E 58 99 26 56
        E 58 89 26 40
        E 60 99 24 7f
        E 7 99 18 7f
        E 51 89 24 40
        E 7 89 18 40
        E 67 99 26 40
        E 58 89 26 40
        E 53 99 26 2b
        E 10 99 18 43
        E 48 89 26 40
        E 10 89 18 40
        E 53 99 24 7c
        E 58 89 24 40
        E 60 99 26 7f
        E 11 99 18 7f
        E 47 89 26 40
        E 11 89 18 40
        E 59 99 26 06
        E 58 89 26 40
        E 60 99 24 7e
        E 14 99 18 43
        E 44 89 24 40
        E 14 89 18 40
        E 45 99 26 44
        E 58 89 26 40
        E 57 99 18 7f
        E 58 89 18 40
        E 63 99 24 7d
        E 7 99 26 35
        E 51 89 24 40
        E 7 89 26 40
        E 51 99 18 43
        E 58 89 18 40
        E 71 99 24 79
        E 58 89 24 40
        E 56 99 26 7f
        E 8 99 18 7f
        E 50 89 26 40
        E 8 89 18 40
        E 56 99 24 7d
        E 58 89 24 40
        E 60 99 19 43
        E 57 89 19 40
        E 63 99 26 53
        E 58 89 26 40
        E 56 99 24 7f
        E 9 99 19 7f
        E 49 89 24 40
        E 9 89 19 40
        E 60 99 26 27
        E 58 89 26 40
        E 11 99 26 1c
        E 56 99 19 44
        E 2 89 26 40
        E 56 89 19 40
        E 50 99 24 79
        E 58 89 24 40
        E 59 99 26 7f
        E 14 99 19 7f
        E 44 89 26 40
        E 14 89 19 40
        E 181 99 24 7f
        E 9 99 19 35
        E 49 89 24 40
        E 9 89 19 40
        E 165 99 19 7e
        E 58 89 19 40
        E 54 99 24 7f
        E 58 89 24 40
        E 58 99 26 12
        E 2 99 19 3d
        E 56 89 26 40
        E 2 89 19 40
        E 60 99 24 79
        E 58 89 24 40
        E 71 99 26 7f
        E 18 99 19 7f
        E 40 89 26 40
        E 18 89 19 40
        E 35 99 24 7d
        E 58 89 24 40
        E 70 99 1a 35
        E 58 89 1a 40
        E 50 99 26 32
        E 58 89 26 40
        E 9 99 26 37
        E 48 89 26 40
        E 15 99 24 7f
        E 6 99 3c 7f
        E 52 89 24 40
        E 6 89 3c 40
        E 50 99 26 26
        E 58 89 26 40
        E 67 99 3c 41
        E 58 89 3c 40
        E 58 99 24 78
        E 58 89 24 40
        E 58 99 26 7f
        E 10 99 3c 7f
        E 48 89 26 40
        E 10 89 3c 40
        E 174 99 24 7f
        E 11 99 3c 32
        E 47 89 24 40
        E 11 89 3c 40
        E 60 99 26 75
        E 53 89 26 40
        E 2 99 26 5a
        E 58 89 26 40
        E 4 99 26 7f
        E 58 89 26 40
        E 65 99 26 67
        E 58 89 26 40
        E 74 99 26 7f
        E 58 89 26 40
        E 66 99 26 62
        E 48 89 26 40
        E 2 99 26 6e
        E 56 89 26 40
        E 2 99 26 7c
        E 58 89 26 40
        E 67 99 26 73
        E 58 89 26 40
        E 67 99 26 78
        E 58 89 26 40
        E 56 99 26 7f
        E 58 89 26 40
        E 61487 99 24 7f
        E 15 99 39 7f
        E 43 89 24 40
        E 15 89 39 40
        E 56 99 26 0c
        E 58 89 26 40
        E 49 99 18 43
        E 58 89 18 40
        E 59 99 24 7a
        E 58 89 24 40
        E 69 99 26 7f
        E 16 99 18 7f
        E 42 89 26 40
        E 16 89 18 40
        E 150 99 24 7f
        E 19 99 18 43
        E 40 89 24 40
        E 18 89 18 40
        E 51 99 26 33
        E 58 89 26 40
        E 69 99 18 7f
        E 58 89 18 40
        E 53 99 24 7f
        E 10 99 26 24
        E 48 89 24 40
        E 10 89 26 40
        E 63 99 18 43
        E 58 89 18 40
        E 48 99 24 7a
        E 58 89 24 40
        E 68 99 26 7f
        E 15 99 18 7f
        E 43 89 26 40
        E 15 89 18 40
        E 43 99 24 7f
        E 9 99 26 0c
        E 49 89 24 40
        E 9 89 26 40
        E 64 99 18 43
        E 58 89 18 40
        E 54 99 26 3d
        E 58 89 26 40
        E 63 99 24 7f
        E 9 99 18 7f
        E 49 89 24 40
        E 9 89 18 40
        E 73 99 26 25
        E 58 89 26 40
        E 68 99 18 43
        E 58 89 18 40
        E 43 99 24 79
        E 58 89 24 40
        E 73 99 26 7f
        E 15 99 18 7f
        E 43 89 26 40
        E 15 89 18 40
        E 153 99 24 7f
        E 21 99 18 43
        E 37 89 24 40
        E 21 89 18 40
        E 63 99 26 3f
        E 58 89 26 40
        E 58 99 18 7f
        E 58 89 18 40
        E 58 99 24 7d
        E 58 89 24 40
        E 74 99 18 43
        E 58 89 18 40
        E 45 99 24 7f
        E 58 89 24 40
        E 70 99 26 7f
        E 7 99 18 7f
        E 52 89 26 40
        E 6 89 18 40
        E 54 99 24 7b
        E 10 99 26 13
        E 48 89 24 40
        E 10 89 26 40
        E 47 99 18 43
        E 59 89 18 40
        E 48 99 26 79
        E 58 89 26 40
        E 67 99 24 7f
        E 12 99 31 7f
        E 46 89 24 40
        E 12 89 31 40
        E 67 99 26 34
        E 58 89 26 40
        E 55 99 18 43
        E 58 89 18 40
        E 57 99 24 79
        E 58 89 24 40
        E 64 99 26 7f
        E 21 99 18 7f
        E 37 89 26 40
        E 21 89 18 40
        E 159 99 24 7f
        E 3 99 18 43
        E 55 89 24 40
        E 3 89 18 40
        E 49 99 26 38
        E 58 89 26 40
        E 76 99 18 7a
        E 58 89 18 40
        E 49 99 24 7f
        E 7 99 26 27
        E 51 89 24 40
        E 7 89 26 40
        E 68 99 18 43
        E 58 89 18 40
        E 56 99 24 7c
        E 58 89 24 40
        E 67 99 26 7f
        E 16 99 18 7f
        E 42 89 26 40
        E 16 89 18 40
        E 38 99 24 7e
        E 58 89 24 40
        E 45 99 26 09
        E 29 99 18 43
        E 29 89 26 40
        E 29 89 18 40
        E 46 99 26 33
        E 58 89 26 40
        E 55 99 24 7f
        E 14 99 18 7f
        E 44 89 24 40
        E 14 89 18 40
        E 64 99 26 27
        E 57 89 26 40
        E 22 99 26 22
        E 46 89 26 40
        E 10 99 18 43
        E 58 89 18 40
        E 36 99 24 78
        E 58 89 24 40
        E 70 99 26 7f
        E 14 99 18 7f
        E 44 89 26 40
        E 14 89 18 40
        E 58 99 26 35
        E 58 89 26 40
        E 31 99 24 7e
        E 24 99 18 43
        E 34 89 24 40
        E 24 89 18 40
        E 53 99 26 25
        E 41 89 26 40
        E 18 99 26 23
        E 30 89 26 40
        E 33 99 18 7f
        E 58 89 18 40
        E 58 99 26 78
        E 58 89 26 40
        E 21 99 26 2a
        E 45 99 18 43
        E 13 89 26 40
        E 45 89 18 40
        E 54 99 24 7d
        E 58 89 24 40
        E 65 99 26 7f
        E 15 99 18 7f
        E 43 89 26 40
        E 14 89 18 40
        E 43 99 24 7a
        E 58 89 24 40
        E 71 99 26 67
        E 58 89 26 40
        E 58 99 26 7b
        E 58 89 26 40
        E 69 99 19 7f
        E 58 89 19 40
        E 43 99 26 2d
        E 58 89 26 40
        E 63 99 24 7f
        E 12 99 19 2f
        E 46 89 24 40
        E 12 89 19 40
        E 173 99 26 7f
        E 5 99 19 7f
        E 53 89 26 40
        E 5 89 19 40
        E 55 99 24 7a
        E 58 89 24 40
        E 63 99 19 2f
        E 58 89 19 40
        E 64 99 24 6d
        E 58 89 24 40
        E 55 99 24 7f
        E 12 99 19 7f
        E 46 89 24 40
        E 12 89 19 40
        E 56 99 26 2e
        E 58 89 26 40
        E 73 99 19 2f
        E 58 89 19 40
        E 59 99 24 78
        E 58 89 24 40
        E 57 99 26 7f
        E 19 99 19 7f
        E 40 89 26 40
        E 18 89 19 40
        E 166 99 24 7f
        E 14 99 19 2f
        E 44 89 24 40
        E 14 89 19 40
        E 64 99 26 43
        E 54 89 26 40
        E 2 99 26 2b
        E 50 99 19 7f
        E 8 89 26 40
        E 50 89 19 40
        E 53 99 26 77
        E 58 89 26 40
        E 64 99 24 7f
        E 3 99 19 30
        E 55 89 24 40
        E 3 89 19 40
        E 184 99 26 7f
        E 7 99 19 7f
        E 51 89 26 40
        E 7 89 19 40
        E 51 99 24 7b
        E 49 99 26 18
        E 9 89 24 40
        E 49 89 26 40
        E 30 99 19 2c
        E 58 89 19 40
        E 50 99 26 76
        E 58 89 26 40
        E 58 99 24 7f
        E 18 99 19 7f
        E 40 89 24 40
        E 18 89 19 40
        E 43 99 26 77
        E 58 89 26 40
        E 60 99 19 2f
        E 58 89 19 40
        E 67 99 24 7b
        E 58 89 24 40
        E 67 99 26 7f
        E 17 99 19 7f
        E 42 89 26 40
        E 16 89 19 40
        E 166 99 24 7f
        E 5 99 26 11
        E 5 99 19 34
        E 48 89 24 40
        E 5 89 26 40
        E 5 89 19 40
        E 63 99 26 2d
        E 58 89 26 40
        E 55 99 19 7f
        E 58 89 19 40
        E 55 99 26 24
        E 58 89 26 40
        E 59 99 24 7e
        E 8 99 19 2f
        E 50 89 24 40
        E 8 89 19 40
        E 169 99 26 7f
        E 19 99 19 7f
        E 39 89 26 40
        E 19 89 19 40
        E 52 99 24 7c
        E 59 89 24 40
        E 68 99 19 2f
        E 58 89 19 40
        E 47 99 24 75
        E 7 99 26 35
        E 51 89 24 40
        E 7 89 26 40
        E 54 99 24 7f
        E 10 99 19 7f
        E 48 89 24 40
        E 10 89 19 40
        E 60 99 26 2d
        E 59 89 26 40
        E 82 99 19 2f
        E 59 89 19 40
        E 41 99 24 79
        E 58 89 24 40
        E 56 99 26 7f
        E 16 99 19 7f
        E 42 89 26 40
        E 16 89 19 40
        E 64 99 26 0c
        E 58 89 26 40
        E 50 99 24 7f
        E 16 99 19 31
        E 43 89 24 40
        E 15 89 19 40
        E 67 99 26 3f
        E 43 89 26 40
        E 6 99 26 30
        E 58 89 26 40
        E 15 99 19 7f
        E 58 89 19 40
        E 45 99 26 77
        E 58 89 26 40
        E 60 99 24 79
        E 15 99 19 2e
        E 43 89 24 40
        E 15 89 19 40
        E 49 99 24 7e
        E 58 89 24 40
        E 58 99 26 7f
        E 17 99 19 7f
        E 41 89 26 40
        E 17 89 19 40
        E 40 99 24 7b
        E 58 89 24 40
        E 91 99 19 2f
        E 58 89 19 40
        E 47 99 26 78
        E 58 89 26 40
        E 73 99 19 7f
        E 58 89 19 40
        E 47 99 26 7a
        E 58 89 26 40
        E 64 99 24 7f
        E 14 99 19 30
        E 44 89 24 40
        E 14 89 19 40
        E 43 99 24 7d
        E 58 89 24 40
        E 62 99 26 7f
        E 5 99 19 7f
        E 53 89 26 40
        E 5 89 19 40
        E 64 99 24 7b
        E 10 99 26 43
        E 48 89 24 40
        E 10 89 26 40
        E 48 99 26 5c
        E 58 89 26 40
        E 57 99 26 7f
        E 59 89 26 40
        E 65 99 24 7f
        E 15 99 39 7f
        E 43 89 24 40
        E 15 89 39 40
        E 56 99 26 0c
        E 58 89 26 40
        E 49 99 18 43
        E 58 89 18 40
        E 59 99 24 7a
        E 58 89 24 40
        E 69 99 26 7f
        E 16 99 18 7f
        E 42 89 26 40
        E 16 89 18 40
        E 150 99 24 7f
        E 19 99 18 43
        E 40 89 24 40
        E 18 89 18 40
        E 51 99 26 33
        E 58 89 26 40
        E 69 99 18 7f
        E 58 89 18 40
        E 53 99 24 7f
        E 10 99 26 24
        E 48 89 24 40
        E 10 89 26 40
        E 63 99 18 43
        E 58 89 18 40
        E 48 99 24 7a
        E 58 89 24 40
        E 68 99 26 7f
        E 15 99 18 7f
        E 43 89 26 40
        E 15 89 18 40
        E 43 99 24 7f
        E 9 99 26 0c
        E 49 89 24 40
        E 9 89 26 40
        E 64 99 18 43
        E 58 89 18 40
        E 54 99 26 3d
        E 58 89 26 40
        E 63 99 24 7f
        E 9 99 18 7f
        E 49 89 24 40
        E 9 89 18 40
        E 73 99 26 25
        E 58 89 26 40
        E 68 99 18 43
        E 58 89 18 40
        E 43 99 24 79
        E 58 89 24 40
        E 73 99 26 7f
        E 15 99 18 7f
        E 43 89 26 40
        E 15 89 18 40
        E 153 99 24 7f
        E 21 99 18 43
        E 37 89 24 40
        E 21 89 18 40
        E 63 99 26 3f
        E 58 89 26 40
        E 58 99 18 7f
        E 58 89 18 40
        E 58 99 24 7d
        E 58 89 24 40
        E 74 99 18 43
        E 58 89 18 40
        E 45 99 24 7f
        E 58 89 24 40
        E 70 99 26 7f
        E 7 99 18 7f
        E 52 89 26 40
        E 6 89 18 40
        E 54 99 24 7b
        E 10 99 26 13
        E 48 89 24 40
        E 10 89 26 40
        E 47 99 18 43
        E 59 89 18 40
        E 48 99 26 79
        E 58 89 26 40
        E 67 99 24 7f
        E 12 99 31 7f
        E 46 89 24 40
        E 12 89 31 40
        E 67 99 26 34
        E 58 89 26 40
        E 55 99 18 43
        E 58 89 18 40
        E 57 99 24 79
        E 58 89 24 40
        E 64 99 26 7f
        E 21 99 18 7f
        E 37 89 26 40
        E 21 89 18 40
        E 159 99 24 7f
        E 3 99 18 43
        E 55 89 24 40
        E 3 89 18 40
        E 49 99 26 38
        E 58 89 26 40
        E 76 99 18 7a
        E 58 89 18 40
        E 49 99 24 7f
        E 7 99 26 27
        E 51 89 24 40
        E 7 89 26 40
        E 68 99 18 43
        E 58 89 18 40
        E 56 99 24 7c
        E 58 89 24 40
        E 67 99 26 7f
        E 16 99 18 7f
        E 42 89 26 40
        E 16 89 18 40
        E 38 99 24 7e
        E 58 89 24 40
        E 45 99 26 09
        E 29 99 18 43
        E 29 89 26 40
        E 29 89 18 40
        E 46 99 26 33
        E 58 89 26 40
        E 55 99 24 7f
        E 14 99 18 7f
        E 44 89 24 40
        E 14 89 18 40
        E 64 99 26 27
        E 57 89 26 40
        E 22 99 26 22
        E 46 89 26 40
        E 10 99 18 43
        E 58 89 18 40
        E 36 99 24 78
        E 58 89 24 40
        E 70 99 26 7f
        E 14 99 18 7f
        E 44 89 26 40
        E 14 89 18 40
        E 58 99 26 35
        E 58 89 26 40
        E 31 99 24 7e
        E 24 99 18 43
        E 34 89 24 40
        E 24 89 18 40
        E 53 99 26 25
        E 41 89 26 40
        E 18 99 26 23
        E 30 89 26 40
        E 33 99 18 7f
        E 58 89 18 40
        E 58 99 26 78
        E 58 89 26 40
        E 21 99 26 2a
        E 45 99 18 43
        E 13 89 26 40
        E 45 89 18 40
        E 54 99 24 7d
        E 58 89 24 40
        E 65 99 26 7f
        E 15 99 18 7f
        E 43 89 26 40
        E 14 89 18 40
        E 43 99 24 7a
        E 58 89 24 40
        E 71 99 26 67
        E 58 89 26 40
        E 58 99 26 7b
        E 58 89 26 40
        E 69 99 19 7f
        E 58 89 19 40
        E 43 99 26 2d
        E 58 89 26 40
        E 63 99 24 7f
        E 12 99 19 2f
        E 46 89 24 40
        E 12 89 19 40
        E 173 99 26 7f
        E 5 99 19 7f
        E 53 89 26 40
        E 5 89 19 40
        E 55 99 24 7a
        E 58 89 24 40
        E 63 99 19 2f
        E 58 89 19 40
        E 64 99 24 6d
        E 58 89 24 40
        E 55 99 24 7f
        E 12 99 19 7f
        E 46 89 24 40
        E 12 89 19 40
        E 56 99 26 2e
        E 58 89 26 40
        E 73 99 19 2f
        E 58 89 19 40
        E 59 99 24 78
        E 58 89 24 40
        E 57 99 26 7f
        E 19 99 19 7f
        E 40 89 26 40
        E 18 89 19 40
        E 166 99 24 7f
        E 14 99 19 2f
        E 44 89 24 40
        E 14 89 19 40
        E 64 99 26 43
        E 54 89 26 40
        E 2 99 26 2b
        E 50 99 19 7f
        E 8 89 26 40
        E 50 89 19 40
        E 53 99 26 77
        E 58 89 26 40
        E 64 99 24 7f
        E 3 99 19 30
        E 55 89 24 40
        E 3 89 19 40
        E 184 99 26 7f
        E 7 99 19 7f
        E 51 89 26 40
        E 7 89 19 40
        E 51 99 24 7b
        E 49 99 26 18
        E 9 89 24 40
        E 49 89 26 40
        E 30 99 19 2c
        E 58 89 19 40
        E 50 99 26 76
        E 58 89 26 40
        E 58 99 24 7f
        E 18 99 19 7f
        E 40 89 24 40
        E 18 89 19 40
        E 43 99 26 77
        E 58 89 26 40
        E 60 99 19 2f
        E 58 89 19 40
        E 67 99 24 7b
        E 58 89 24 40
        E 67 99 26 7f
        E 17 99 19 7f
        E 42 89 26 40
        E 16 89 19 40
        E 166 99 24 7f
        E 5 99 26 11
        E 5 99 19 34
        E 48 89 24 40
        E 5 89 26 40
        E 5 89 19 40
        E 63 99 26 2d
        E 58 89 26 40
        E 55 99 19 7f
        E 58 89 19 40
        E 55 99 26 24
        E 58 89 26 40
        E 59 99 24 7e
        E 8 99 19 2f
        E 50 89 24 40
        E 8 89 19 40
        E 169 99 26 7f
        E 19 99 19 7f
        E 39 89 26 40
        E 19 89 19 40
        E 52 99 24 7c
        E 59 89 24 40
        E 68 99 19 2f
        E 58 89 19 40
        E 47 99 24 75
        E 7 99 26 35
        E 51 89 24 40
        E 7 89 26 40
        E 54 99 24 7f
        E 10 99 19 7f
        E 48 89 24 40
        E 10 89 19 40
        E 60 99 26 2d
        E 59 89 26 40
        E 82 99 19 2f
        E 59 89 19 40
        E 41 99 24 79
        E 58 89 24 40
        E 56 99 26 7f
        E 16 99 19 7f
        E 42 89 26 40
        E 16 89 19 40
        E 64 99 26 0c
        E 58 89 26 40
        E 50 99 24 7f
        E 16 99 19 31
        E 43 89 24 40
        E 15 89 19 40
        E 67 99 26 3f
        E 43 89 26 40
        E 6 99 26 30
        E 58 89 26 40
        E 15 99 19 7f
        E 58 89 19 40
        E 45 99 26 77
        E 58 89 26 40
        E 60 99 24 79
        E 15 99 19 2e
        E 43 89 24 40
        E 15 89 19 40
        E 49 99 24 7e
        E 58 89 24 40
        E 58 99 26 7f
        E 17 99 19 7f
        E 41 89 26 40
        E 17 89 19 40
        E 40 99 24 7b
        E 58 89 24 40
        E 91 99 19 2f
        E 58 89 19 40
        E 47 99 26 78
        E 58 89 26 40
        E 73 99 19 7f
        E 58 89 19 40
        E 47 99 26 7a
        E 58 89 26 40
        E 64 99 24 7f
        E 14 99 19 30
        E 44 89 24 40
        E 14 89 19 40
        E 43 99 24 7d
        E 58 89 24 40
        E 62 99 26 7f
        E 5 99 19 7f
        E 53 89 26 40
        E 5 89 19 40
        E 64 99 24 7b
        E 10 99 26 43
        E 48 89 24 40
        E 10 89 26 40
        E 48 99 26 5c
        E 58 89 26 40
        E 57 99 26 7f
        E 59 89 26 40
        E 65 99 26 7f
        E 0 99 19 7f
        E 58 89 19 40
        E 60 89 26 40
        E 112 99 24 7e
        E 4 99 19 2f
        E 54 89 24 40
        E 4 89 19 40
        E 178 99 19 7f
        E 10 99 26 7f
        E 48 89 19 40
        E 66 99 24 7c
        E 4 89 26 40
        E 55 89 24 40
        E 51 99 19 2f
        E 58 89 19 40
        E 64 99 24 75
        E 58 89 24 40
        E 61 99 24 7f
        E 6 99 19 7f
        E 9 99 26 7f
        E 43 89 24 40
        E 6 89 19 40
        E 69 89 26 40
        E 118 99 19 2f
        E 58 89 19 40
        E 60 99 24 79
        E 58 89 24 40
        E 56 99 26 7f
        E 19 99 19 7f
        E 39 89 26 40
        E 19 89 19 40
        E 169 99 24 7f
        E 11 99 19 2f
        E 48 89 24 40
        E 10 89 19 40
        E 170 99 19 7f
        E 7 99 26 7f
        E 51 89 19 40
        E 67 89 26 40
        E 111 99 19 30
        E 9 99 24 79
        E 49 89 19 40
        E 9 89 24 40
        E 64 99 24 7e
        E 58 89 24 40
        E 58 99 26 7f
        E 2 99 19 7f
        E 56 89 26 40
        E 2 89 19 40
        E 55 99 24 7b
        E 58 89 24 40
        E 75 99 19 2c
        E 58 89 19 40
        E 178 99 26 7f
        E 6 99 19 7f
        E 58 89 19 40
        E 54 89 26 40
        E 107 99 19 2f
        E 18 99 24 7f
        E 40 89 19 40
        E 18 89 24 40
        E 57 99 24 7d
        E 58 89 24 40
        E 64 99 26 7f
        E 12 99 19 7f
        E 58 89 19 40
        E 48 89 26 40
        E 7 99 24 7b
        E 58 89 24 40
        E 63 99 19 34
        E 58 89 19 40
        E 176 99 26 7f
        E 0 99 19 7f
        E 58 89 19 40
        E 60 89 26 40
        E 112 99 24 7e
        E 8 99 19 2f
        E 50 89 24 40
        E 8 89 19 40
        E 184 99 26 7f
        E 4 99 19 7f
        E 58 89 19 40
        E 52 99 24 7c
        E 4 89 26 40
        E 55 89 24 40
        E 68 99 19 2f
        E 58 89 19 40
        E 47 99 24 75
        E 58 89 24 40
        E 61 99 24 7f
        E 10 99 19 7f
        E 5 99 26 7f
        E 43 89 24 40
        E 10 89 19 40
        E 65 89 26 40
        E 136 99 19 2f
        E 59 89 19 40
        E 41 99 24 79
        E 58 89 24 40
        E 56 99 26 7f
        E 16 99 19 7f
        E 42 89 26 40
        E 16 89 19 40
        E 172 99 24 7f
        E 16 99 19 31
        E 43 89 24 40
        E 15 89 19 40
        E 172 99 26 7f
        E 17 99 19 7f
        E 58 89 19 40
        E 43 89 26 40
        E 120 99 24 79
        E 15 99 19 2e
        E 43 89 24 40
        E 15 89 19 40
        E 49 99 24 7e
        E 58 89 24 40
        E 58 99 26 7f
        E 17 99 19 7f
        E 41 89 26 40
        E 17 89 19 40
        E 40 99 24 7b
        E 58 89 24 40
        E 91 99 19 2f
        E 58 89 19 40
        E 162 99 26 7f
        E 16 99 19 7f
        E 58 89 19 40
        E 44 89 26 40
        E 125 99 24 7f
        E 14 99 19 30
        E 44 89 24 40
        E 14 89 19 40
        E 43 99 24 7d
        E 58 89 24 40
        E 64 99 26 7f
        E 3 99 19 7f
        E 58 89 19 40
        E 57 89 26 40
        E 7 99 24 7b
        E 58 89 24 40
        E 297 99 26 7f
        E 0 99 19 7f
        E 58 89 19 40
        E 60 89 26 40
        E 112 99 24 7e
        E 4 99 19 2f
        E 54 89 24 40
        E 4 89 19 40
        E 178 99 19 7f
        E 10 99 26 7f
        E 48 89 19 40
        E 66 99 24 7c
        E 4 89 26 40
        E 55 89 24 40
        E 51 99 19 2f
        E 58 89 19 40
        E 64 99 24 75
        E 58 89 24 40
        E 61 99 24 7f
        E 6 99 19 7f
        E 9 99 26 7f
        E 43 89 24 40
        E 6 89 19 40
        E 69 89 26 40
        E 118 99 19 2f
        E 58 89 19 40
        E 60 99 24 79
        E 58 89 24 40
        E 56 99 26 7f
        E 19 99 19 7f
        E 39 89 26 40
        E 19 89 19 40
        E 169 99 24 7f
        E 11 99 19 2f
        E 48 89 24 40
        E 10 89 19 40
        E 170 99 19 7f
        E 7 99 26 7f
        E 51 89 19 40
        E 67 89 26 40
        E 111 99 19 30
        E 9 99 24 79
        E 49 89 19 40
        E 9 89 24 40
        E 64 99 24 7e
        E 58 89 24 40
        E 58 99 26 7f
        E 2 99 19 7f
        E 56 89 26 40
        E 2 89 19 40
        E 55 99 24 7b
        E 58 89 24 40
        E 75 99 19 2c
        E 58 89 19 40
        E 178 99 26 7f
        E 6 99 19 7f
        E 58 89 19 40
        E 54 89 26 40
        E 107 99 19 2f
        E 18 99 24 7f
        E 40 89 19 40
        E 18 89 24 40
        E 57 99 24 7d
        E 58 89 24 40
        E 64 99 26 7f
        E 12 99 19 7f
        E 58 89 19 40
        E 48 89 26 40
        E 7 99 24 7b
        E 58 89 24 40
        E 63 99 19 34
        E 58 89 19 40
        E 176 99 26 7f
        E 0 99 19 7f
        E 58 89 19 40
        E 60 89 26 40
        E 112 99 24 7e
        E 8 99 19 2f
        E 50 89 24 40
        E 8 89 19 40
        E 184 99 26 7f
        E 4 99 19 7f
        E 58 89 19 40
        E 52 99 24 7c
        E 4 89 26 40
        E 55 89 24 40
        E 68 99 19 2f
        E 58 89 19 40
        E 47 99 24 75
        E 58 89 24 40
        E 61 99 24 7f
        E 10 99 19 7f
        E 5 99 26 7f
        E 43 89 24 40
        E 10 89 19 40
        E 65 89 26 40
        E 136 99 19 2f
        E 59 89 19 40
        E 41 99 24 79
        E 58 89 24 40
        E 56 99 26 7f
        E 16 99 19 7f
        E 42 89 26 40
        E 16 89 19 40
        E 172 99 24 7f
        E 16 99 19 31
        E 43 89 24 40
        E 15 89 19 40
        E 172 99 26 7f
        E 17 99 19 7f
        E 58 89 19 40
        E 43 89 26 40
        E 120 99 24 79
        E 15 99 19 2e
        E 43 89 24 40
        E 15 89 19 40
        E 49 99 24 7e
        E 58 89 24 40
        E 58 99 26 7f
        E 17 99 19 7f
        E 41 89 26 40
        E 17 89 19 40
        E 40 99 24 7b
        E 58 89 24 40
        E 91 99 19 2f
        E 58 89 19 40
        E 162 99 26 7f
        E 16 99 19 7f
        E 58 89 19 40
        E 44 89 26 40
        E 125 99 24 7f
        E 14 99 19 30
        E 44 89 24 40
        E 14 89 19 40
        E 43 99 24 7d
        E 58 89 24 40
        E 64 99 26 7f
        E 3 99 19 7f
        E 58 89 19 40
        E 57 89 26 40
        E 7 99 24 7b
        E 58 89 24 40
        E 451503 99 15 7f
        E 11 99 34 7f
        E 4 99 31 7f
        E 43 89 15 40
        E 11 89 34 40
        E 4 89 31 40
        E 175 99 24 7d
        E 8 99 31 29
        E 50 89 24 40
        E 8 89 31 40
        E 160 99 15 4c
        E 10 99 24 7f
        E 8 99 31 79
        E 40 89 15 40
        E 10 89 24 40
        E 8 89 31 40
        E 152 99 15 0c
        E 15 99 31 1b
        E 7 99 24 7e
        E 36 89 15 40
        E 15 89 31 40
        E 7 89 24 40
        E 175 99 24 78
        E 5 99 31 7f
        E 6 99 26 7f
        E 4 99 15 7f
        E 43 89 24 40
        E 5 89 31 40
        E 6 89 26 40
        E 4 89 15 40
        E 161 99 24 7d
        E 15 99 15 14
        E 4 99 31 22
        E 39 89 24 40
        E 15 89 15 40
        E 4 89 31 40
        E 163 99 24 7b
        E 11 99 31 75
        E 3 99 15 28
        E 44 89 24 40
        E 11 89 31 40
        E 3 89 15 40
        E 84 99 26 10
        E 58 89 26 40
        E 23 99 15 17
        E 0 99 31 24
        E 12 99 24 7f
        E 46 89 15 40
        E 0 89 31 40
        E 12 89 24 40
        E 39 99 26 25
        E 58 89 26 40
        E 22 99 26 1f
        E 57 99 24 7f
        E 1 89 26 40
        E 3 99 26 21
        E 1 99 15 1d
        E 13 99 31 7f
        E 40 89 24 40
        E 4 89 26 40
        E 1 89 15 40
        E 13 89 31 40
        E 154 99 24 7e
        E 1 99 15 14
        E 11 99 31 19
        E 46 89 24 40
        E 1 89 15 40
        E 11 89 31 40
        E 53 99 26 39
        E 58 89 26 40
        E 60 99 24 7f
        E 7 99 15 25
        E 8 99 31 7d
        E 43 89 24 40
        E 7 89 15 40
        E 8 89 31 40
        E 167 99 31 1f
        E 4 99 24 7f
        E 7 99 15 11
        E 47 89 31 40
        E 4 89 24 40
        E 7 89 15 40
        E 170 99 24 7d
        E 3 99 15 5d
        E 8 99 26 7f
        E 10 99 31 77
        E 37 89 24 40
        E 3 89 15 40
        E 8 89 26 40
        E 10 89 31 40
        E 153 99 15 25
        E 1 99 24 7f
        E 9 99 31 3a
        E 48 89 15 40
        E 1 89 24 40
        E 9 89 31 40
        E 179 99 15 28
        E 1 99 24 7f
        E 15 99 31 77
        E 42 89 15 40
        E 1 89 24 40
        E 15 89 31 40
        E 162 99 15 13
        E 8 99 26 7e
        E 0 99 31 1c
        E 50 89 15 40
        E 7 89 26 40
        E 1 89 31 40
        E 189 99 24 7f
        E 7 99 15 28
        E 3 99 31 7f
        E 48 89 24 40
        E 7 89 15 40
        E 3 89 31 40
        E 67 99 26 08
        E 58 89 26 40
        E 30 99 15 22
        E 7 99 24 7d
        E 3 99 31 1b
        E 48 89 15 40
        E 6 89 24 40
        E 3 89 31 40
        E 64 99 26 22
        E 58 89 26 40
        E 12 99 26 1c
        E 37 99 15 28
        E 5 99 24 7f
        E 9 99 31 78
        E 7 89 26 40
        E 37 89 15 40
        E 4 89 24 40
        E 9 89 31 40
        E 73 99 26 22
        E 57 89 26 40
        E 48 99 15 1f
        E 7 99 24 7f
        E 12 99 31 17
        E 39 89 15 40
        E 7 89 24 40
        E 11 89 31 40
        E 167 99 24 78
        E 12 99 26 7f
        E 1 99 31 7a
        E 6 99 15 63
        E 39 89 24 40
        E 12 89 26 40
        E 1 89 31 40
        E 5 89 15 40
        E 159 99 24 7f
        E 7 99 15 22
        E 6 99 31 25
        E 45 89 24 40
        E 7 89 15 40
        E 5 89 31 40
        E 171 99 24 7b
        E 7 99 15 79
        E 7 99 31 7a
        E 44 89 24 40
        E 7 89 15 40
        E 6 89 31 40
        E 63 99 26 3a
        E 58 89 26 40
        E 56 99 24 7e
        E 7 99 31 15
        E 51 89 24 40
        E 7 89 31 40
        E 37 99 26 23
        E 58 89 26 40
        E 24 99 26 24
        E 58 89 26 40
        E 1 99 24 7f
        E 13 99 31 7f
        E 45 89 24 40
        E 14 89 31 40
        E 56 99 26 13
        E 58 89 26 40
        E 49 99 24 7d
        E 59 89 24 40
        E 181 99 24 7f
        E 15 99 31 6f
        E 43 89 24 40
        E 15 89 31 40
        E 166 99 24 7e
        E 58 89 24 40
        E 182 99 24 7f
        E 2 99 26 7f
        E 10 99 31 7f
        E 46 89 24 40
        E 2 89 26 40
        E 11 89 31 40
        E 161 99 2b 79
        E 12 99 24 7e
        E 0 99 2f 73
        E 46 89 2b 40
        E 12 89 24 40
        E 0 89 2f 40
        E 173 99 24 7f
        E 4 99 29 7f
        E 5 99 26 7e
        E 50 89 24 40
        E 3 89 29 40
        E 5 89 26 40
        E 182 99 24 76
        E 5 99 26 7c
        E 3 99 29 7d
        E 8 99 15 2a
        E 43 89 24 40
        E 4 89 26 40
        E 3 89 29 40
        E 9 89 15 40
        E 167 99 24 7f
        E 2 99 15 7f
        E 3 99 34 7f
        E 5 99 31 7f
        E 48 89 24 40
        E 2 89 15 40
        E 3 89 34 40
        E 4 89 31 40
        E 167 99 24 7d
        E 13 99 31 17
        E 45 89 24 40
        E 13 89 31 40
        E 174 99 15 33
        E 0 99 24 7f
        E 16 99 31 72
        E 42 89 15 40
        E 0 89 24 40
        E 16 89 31 40
        E 157 99 15 28
        E 10 99 24 7e
        E 16 99 31 1f
        E 32 89 15 40
        E 10 89 24 40
        E 16 89 31 40
        E 172 99 24 79
        E 0 99 15 79
        E 7 99 26 7f
        E 12 99 31 7f
        E 39 89 24 40
        E 0 89 15 40
        E 7 89 26 40
        E 11 89 31 40
        E 153 99 24 7f
        E 10 99 15 28
        E 8 99 31 26
        E 40 89 24 40
        E 10 89 15 40
        E 8 89 31 40
        E 162 99 24 7e
        E 5 99 15 68
        E 10 99 31 7b
        E 43 89 24 40
        E 5 89 15 40
        E 10 89 31 40
        E 73 99 26 0d
        E 58 89 26 40
        E 37 99 24 7f
        E 0 99 15 2d
        E 9 99 31 15
        E 49 89 24 40
        E 0 89 15 40
        E 9 89 31 40
        E 47 99 26 2e
        E 58 89 26 40
        E 17 99 26 29
        E 56 99 15 55
        E 1 99 24 7f
        E 1 89 26 40
        E 9 99 31 7f
        E 47 89 15 40
        E 1 89 24 40
        E 10 89 31 40
        E 154 99 15 30
        E 4 99 31 22
        E 3 99 24 7d
        E 51 89 15 40
        E 4 89 31 40
        E 3 89 24 40
        E 86 99 26 16
        E 58 89 26 40
        E 51 99 15 2b
        E 3 99 24 7e
        E 11 99 31 73
        E 44 89 15 40
        E 4 89 24 40
        E 10 89 31 40
        E 158 99 15 22
        E 11 99 24 7e
        E 10 99 31 1d
        E 37 89 15 40
        E 11 89 24 40
        E 10 89 31 40
        E 167 99 24 7a
        E 12 99 26 7f
        E 0 99 31 7f
        E 2 99 15 7f
        E 44 89 24 40
        E 12 89 31 40
        E 1 89 26 40
        E 1 89 15 40
        E 52 99 26 0a
        E 58 89 26 40
        E 48 99 15 36
        E 0 99 24 7f
        E 3 99 31 2d
        E 55 89 15 40
        E 0 89 24 40
        E 3 89 31 40
        E 195 99 24 7f
        E 5 99 31 7d
        E 10 99 15 6b
        E 44 89 24 40
        E 4 89 31 40
        E 10 89 15 40
        E 150 99 24 58
        E 8 99 26 7d
        E 1 99 15 63
        E 4 99 31 1d
        E 45 89 24 40
        E 8 89 26 40
        E 1 89 15 40
        E 5 89 31 40
        E 181 99 24 7f
        E 6 99 31 7f
        E 1 99 15 6e
        E 51 89 24 40
        E 6 89 31 40
        E 1 89 15 40
        E 62 99 26 42
        E 58 89 26 40
        E 41 99 15 36
        E 4 99 24 7d
        E 11 99 31 1d
        E 43 89 15 40
        E 4 89 24 40
        E 11 89 31 40
        E 76 99 26 2d
        E 58 89 26 40
        E 42 99 15 63
        E 4 99 24 7f
        E 6 99 31 7a
        E 48 89 15 40
        E 4 89 24 40
        E 6 89 31 40
        E 57 99 26 0f
        E 56 89 26 40
        E 61 99 15 41
        E 7 99 24 7e
        E 5 99 31 18
        E 46 89 15 40
        E 7 89 24 40
        E 5 89 31 40
        E 171 99 24 7a
        E 10 99 26 7f
        E 4 99 15 7f
        E 0 99 31 71
        E 44 89 24 40
        E 10 89 26 40
        E 4 89 15 40
        E 0 89 31 40
        E 169 99 24 7f
        E 3 99 15 2d
        E 17 99 31 15
        E 38 89 24 40
        E 3 89 15 40
        E 17 89 31 40
        E 163 99 24 7d
        E 4 99 15 7f
        E 9 99 31 7b
        E 45 89 24 40
        E 4 89 15 40
        E 9 89 31 40
        E 60 99 26 17
        E 58 89 26 40
        E 42 99 24 7f
        E 58 89 24 40
        E 59 99 26 30
        E 58 89 26 40
        E 21 99 26 34
        E 53 99 24 7f
        E 5 89 26 40
        E 7 99 31 7f
        E 47 89 24 40
        E 12 89 31 40
        E 163 99 24 7f
        E 17 99 31 1b
        E 42 89 24 40
        E 17 89 31 40
        E 168 99 24 7e
        E 12 99 31 78
        E 48 89 24 40
        E 12 89 31 40
        E 165 99 24 7f
        E 7 99 31 2f
        E 53 89 24 40
        E 6 89 31 40
        E 181 99 24 7d
        E 4 99 31 7f
        E 7 99 26 7f
        E 48 89 24 40
        E 4 89 31 40
        E 8 89 26 40
        E 169 99 24 7d
        E 4 99 2b 7f
        E 16 99 2f 78
        E 39 89 24 40
        E 4 89 2b 40
        E 16 89 2f 40
        E 159 99 24 7f
        E 12 99 2b 7c
        E 10 99 2f 7f
        E 37 89 24 40
        E 12 89 2b 40
        E 11 89 2f 40
        E 155 99 24 7f
        E 11 99 2b 7f
        E 19 99 2f 78
        E 30 89 24 40
        E 11 89 2b 40
        E 19 89 2f 40
        E 7833 99 24 7d
        E 1 99 34 7f
        E 1 99 37 7a
        E 56 99 24 00
        E 1 99 34 00
        E 1 99 37 00
        E 668 99 26 7d
        E 58 99 26 00
        E 64 99 26 6e
        E 58 99 26 00
        E 50 99 26 7b
        E 58 99 26 00
        E 60 99 26 7f
        E 58 99 26 00
        E 307 99 24 78
        E 1 99 34 7f
        E 2 99 26 7f
        E 55 99 24 00
        E 1 99 34 00
        E 2 99 26 00
        E 410 99 3c 7f
        E 8 99 24 7d
        E 50 99 3c 00
        E 8 99 24 00
        E 179 99 1a 2f
        E 58 99 1a 00
        E 184 99 3c 7f
        E 1 99 26 7f
        E 1 99 24 7a
        E 56 99 3c 00
        E 1 99 26 00
        E 1 99 24 00
        E 178 99 1a 42
        E 58 99 1a 00
        E 193 99 3c 7f
        E 5 99 24 7c
        E 53 99 3c 00
        E 5 99 24 00
        E 181 99 1a 39
        E 58 99 1a 00
        E 179 99 26 7f
        E 1 99 24 7a
        E 1 99 3c 7f
        E 56 99 26 00
        E 1 99 24 00
        E 1 99 3c 00
        E 183 99 1a 37
        E 58 99 1a 00
        E 59 99 3c 7f
        E 5 99 24 76
        E 53 99 3c 00
        E 5 99 24 00
        E 53 99 24 7c
        E 4 99 3c 7f
        E 54 99 24 00
        E 4 99 3c 00
        E 182 99 1a 3e
        E 58 99 1a 00
        E 175 99 24 7a
        E 3 99 26 7f
        E 1 99 3c 7f
        E 54 99 24 00
        E 3 99 26 00
        E 1 99 3c 00
        E 180 99 1a 43
        E 58 99 1a 00
        E 181 99 3c 7f
        E 11 99 24 7c
        E 47 99 3c 00
        E 11 99 24 00
        E 184 99 1a 2a
        E 58 99 1a 00
        E 173 99 3c 7f
        E 3 99 26 7f
        E 4 99 24 7c
        E 51 99 3c 00
        E 3 99 26 00
        E 4 99 24 00
        E 175 99 1a 44
        E 58 99 1a 00
        E 34 99 26 32
        E 57 89 26 40
        E 2 99 26 27
        E 1 99 26 00
        E 84 99 3c 7f
        E 3 99 24 7a
        E 55 99 3c 00
        E 3 99 24 00
        E 75 99 26 1e
        E 58 99 26 00
        E 35 99 3c 7f
        E 19 99 24 7c
        E 39 99 3c 00
        E 19 99 24 00
        E 53 99 26 26
        E 58 99 26 00
        E 57 99 2b 77
        E 58 99 2b 00
        E 66 99 26 7f
        E 58 99 26 00
        E 61 99 24 7a
        E 58 99 24 00
        E 51 99 24 72
        E 58 99 24 00
        E 74 99 26 7f
        E 6 99 31 7f
        E 52 99 26 00
        E 6 99 31 00
        E 269 99 24 70
        E 58 99 24 00
        E 10 99 24 78
        E 58 99 24 00
        E 21 99 26 7f
        E 1 99 39 7f
        E 57 99 26 00
        E 1 99 39 00
        E 191 99 24 75
        E 58 99 24 00
        E 164 99 31 7f
        E 10 99 39 7f
        E 7 99 24 7c
        E 41 99 31 00
        E 10 99 39 00
        E 7 99 24 00
        E 413 99 3c 7f
        E 2 99 24 7c
        E 3 99 26 7f
        E 53 99 3c 00
        E 2 99 24 00
        E 3 99 26 00
        E 176 99 1a 2b
        E 58 99 1a 00
        E 178 99 24 7a
        E 0 99 3c 7f
        E 58 99 24 00
        E 0 99 3c 00
        E 185 99 1a 33
        E 58 99 1a 00
        E 180 99 3c 7f
        E 4 99 24 7c
        E 6 99 26 7f
        E 48 99 3c 00
        E 4 99 24 00
        E 6 99 26 00
        E 174 99 1a 3a
        E 58 99 1a 00
        E 22 99 26 2d
        E 57 89 26 40
        E 2 99 26 2a
        E 1 99 26 00
        E 99 99 3c 7f
        E 11 99 24 7a
        E 47 99 3c 00
        E 11 99 24 00
        E 44 99 26 79
        E 58 99 26 00
        E 79 99 1a 3d
        E 58 99 1a 00
        E 177 99 26 7d
        E 8 99 3c 7f
        E 1 99 24 74
        E 49 99 26 00
        E 8 99 3c 00
        E 1 99 24 00
        E 178 99 1a 40
        E 58 99 1a 00
        E 37 99 26 32
        E 52 89 26 40
        E 2 99 26 33
        E 4 99 26 00
        E 84 99 3c 7f
        E 1 99 24 7b
        E 57 99 3c 00
        E 1 99 24 00
        E 65 99 26 7a
        E 58 99 26 00
        E 63 99 1a 40
        E 58 99 1a 00
        E 68 99 24 7b
        E 58 99 24 00
        E 46 99 26 7f
        E 5 99 3c 7f
        E 53 99 26 00
        E 5 99 3c 00
        E 178 99 1a 38
        E 13 99 24 78
        E 45 99 1a 00
        E 13 99 24 00
        E 56 99 26 7d
        E 58 99 26 00
        E 58 99 24 78
        E 4 99 37 7f
        E 54 99 24 00
        E 4 99 37 00
        E 56 99 24 73
        E 58 99 24 00
        E 58 99 37 37
        E 6 99 24 75
        E 52 99 37 00
        E 6 99 24 00
        E 55 99 24 69
        E 58 99 24 00
        E 308 99 26 7d
        E 0 99 37 7f
        E 1 99 24 7a
        E 57 99 26 00
        E 0 99 37 00
        E 1 99 24 00
        E 55 99 24 7b
        E 58 99 24 00
        E 53 99 37 2d
        E 14 99 24 7a
        E 44 99 37 00
        E 14 99 24 00
        E 59 99 24 78
        E 58 99 24 00
        E 57 99 37 13
        E 58 99 37 00
        E 186 99 37 7f
        E 3 99 24 7b
        E 55 99 37 00
        E 3 99 24 00
        E 55 99 24 79
        E 58 99 24 00
        E 66 99 24 7c
        E 1 99 37 4a
        E 57 99 24 00
        E 1 99 37 00
        E 52 99 24 7a
        E 58 99 24 00
        E 74 99 37 2a
        E 58 99 37 00
        E 179 99 24 7b
        E 8 99 37 7f
        E 7 99 26 7f
        E 43 99 24 00
        E 8 99 37 00
        E 7 99 26 00
        E 36 99 24 78
        E 58 99 24 00
        E 74 99 30 65
        E 58 99 30 00
        E 32 99 30 6b
        E 58 99 30 00
        E 17 99 2f 62
        E 58 99 2f 00
        E 23 99 2f 68
        E 58 99 2f 00
        E 8 99 24 77
        E 58 99 24 00
        E 24 99 24 7b
        E 58 99 24 00
        E 27 99 26 7f
        E 2 99 39 7f
        E 56 99 26 00
        E 2 99 39 00
        E 289 99 24 76
        E 41 89 24 40
        E 2 99 24 7c
        E 15 99 24 00
        E 74 99 26 7f
        E 1 99 34 7f
        E 57 99 26 00
        E 1 99 34 00
        E 173 99 24 79
        E 58 99 24 00
        E 191 b0 7b 00
        GUID {EDA7C4E3-EAAA-470D-AC95-666CA18D318A}
        IGNTEMPO 0 120 4 4
        SRCCOLOR 62
        VELLANE 20 100 0
      >
    >
  >
  <TRACK {D2386352-8A4C-43DE-AF36-9489C37B8494}
    NAME "halu postbass"
    PEAKCOL 16576
    BEAT -1
    AUTOMODE 0
    VOLPAN 3.98107170553497 -0.744 -1 -1 1
    MUTESOLO 1 2 0
    IPHASE 0
    ISBUS 0 0
    BUSCOMP 0 0
    SHOWINMIX 1 0.6667 0.5 1 0.5 0 0 0
    FREEMODE 0
    SEL 1
    REC 0 0 0 0 0 0 0
    VU 2
    TRACKHEIGHT 0 0
    INQ 0 0 0 0.5 100 0 0 100
    NCHAN 2
    FX 1
    TRACKID {D2386352-8A4C-43DE-AF36-9489C37B8494}
    PERF 0
    MIDIOUT -1
    MAINSEND 1 0
    <ITEM
      POSITION 0
      SNAPOFFS 0
      LENGTH 191.29573696145121
      LOOP 1
      ALLTAKES 0
      FADEIN 1 0.01 0 1 0 0
      FADEOUT 1 0.01 0 1 0 0
      MUTE 0
      SEL 1
      IGUID {825A5CF3-949A-4CA9-94FC-169030B1F427}
      IID 7
      NAME "halu postbass.mp3"
      VOLPAN 1 0 1 -1
      SOFFS 0
      PLAYRATE 1 1 0 -1 0 0.0025
      CHANMODE 0
      GUID {06313A30-70D4-41D9-B66F-64BA6D71516D}
      <SOURCE MP3
        FILE "halu postbass.mp3" 1
      >
    >
  >
  <TRACK {59EEA49B-5837-4F0E-995E-52A515F6E112}
    NAME ""
    PEAKCOL 16576
    BEAT -1
    AUTOMODE 0
    VOLPAN 1 0 -1 -1 1
    MUTESOLO 0 0 0
    IPHASE 0
    ISBUS 0 0
    BUSCOMP 0 0
    SHOWINMIX 1 0.6667 0.5 1 0.5 0 0 0
    FREEMODE 0
    SEL 0
    REC 1 0 0 0 0 0 0
    VU 2
    TRACKHEIGHT 0 0
    INQ 0 0 0 0.5 100 0 0 100
    NCHAN 2
    FX 1
    TRACKID {59EEA49B-5837-4F0E-995E-52A515F6E112}
    PERF 0
    MIDIOUT -1
    MAINSEND 1 0
    <ITEM
      POSITION 84.93462585034014
      SNAPOFFS 0
      LENGTH 3.63392290249433
      LOOP 1
      ALLTAKES 0
      FADEIN 1 0.01 0 1 0 0
      FADEOUT 1 0.01 0 1 0 0
      MUTE 0
      SEL 0
      IGUID {744ED756-6753-46FF-BF6C-0E7280418DA2}
      IID 25
      VOLPAN 1
      TAKE NULL
      TAKE SEL
      NAME 04-190401_2338-01.wav
      TAKEVOLPAN 0 1 -1
      SOFFS 0
      PLAYRATE 1 1 0 -1 0 0.0025
      CHANMODE 0
      TAKECOLOR 24755205 R
      GUID {56231235-4A78-45E5-AF41-2E438F425DC7}
      RECPASS 11
      <SOURCE WAVE
        FILE "04-190401_2338-01.wav"
      >
    >
    <ITEM
      POSITION 88.56854875283447
      SNAPOFFS 0
      LENGTH 0.95201814058956
      LOOP 1
      ALLTAKES 0
      FADEIN 1 0.01 0 1 0 0
      FADEOUT 1 0.01 0 1 0 0
      MUTE 0
      SEL 0
      IGUID {77554EC0-238A-4F28-BF1C-D91679567486}
      IID 19
      NAME 03-190401_2337.wav
      VOLPAN 1 0 1 -1
      SOFFS 0
      PLAYRATE 1 1 0 -1 0 0.0025
      CHANMODE 0
      GUID {4172E00C-6DA0-4A1F-95A7-342B330E7E00}
      RECPASS 9
      <SOURCE WAVE
        FILE "03-190401_2337.wav"
      >
      TAKE NULL
      TAKE SEL
      NAME 04-190401_2338-01.wav
      TAKEVOLPAN 0 1 -1
      SOFFS 3.63392290249433
      PLAYRATE 1 1 0 -1 0 0.0025
      CHANMODE 0
      TAKECOLOR 24755205 R
      GUID {87D04140-B040-44D4-B3B7-E794EB3377B7}
      RECPASS 11
      <SOURCE WAVE
        FILE "04-190401_2338-01.wav"
      >
    >
    <ITEM
      POSITION 89.52056689342403
      SNAPOFFS 0
      LENGTH 10.62962710657595
      LOOP 1
      ALLTAKES 0
      FADEIN 1 0.01 0 1 0 0
      FADEOUT 1 0.01 0 1 0 0
      MUTE 0
      SEL 0
      IGUID {338121AF-E692-4409-8A01-F434E55F6EC9}
      IID 19
      NAME 03-190401_2337.wav
      VOLPAN 1 0 1 -1
      SOFFS 0.95201814058956
      PLAYRATE 1 1 0 -1 0 0.0025
      CHANMODE 0
      GUID {C119B652-AD50-49D6-B8BD-C190DE181680}
      RECPASS 9
      <SOURCE WAVE
        FILE "03-190401_2337.wav"
      >
    >
  >
  <TRACK {BE605EE5-9E25-492A-B5A7-EE919F3B706C}
    NAME ""
    PEAKCOL 16576
    BEAT -1
    AUTOMODE 0
    VOLPAN 0.77019387072009 0 -1 -1 1
    MUTESOLO 0 0 0
    IPHASE 0
    ISBUS 0 0
    BUSCOMP 0 0
    SHOWINMIX 1 0.6667 0.5 1 0.5 0 0 0
    FREEMODE 0
    SEL 0
    REC 0 0 0 0 0 0 0
    VU 2
    TRACKHEIGHT 0 0
    INQ 0 0 0 0.5 100 0 0 100
    NCHAN 2
    FX 1
    TRACKID {BE605EE5-9E25-492A-B5A7-EE919F3B706C}
    PERF 0
    MIDIOUT -1
    MAINSEND 1 0
    <ITEM
      POSITION 0
      SNAPOFFS 0
      LENGTH 0.56888888888889
      LOOP 1
      ALLTAKES 0
      FADEIN 1 0.01 0 1 0 0
      FADEOUT 1 0.01 0 1 0 0
      MUTE 0
      SEL 0
      IGUID {123AD5C7-8FFD-4DD7-96CF-FA4224D18D5E}
      IID 15
      VOLPAN 1
      TAKE SEL
      NAME 03-190401_2314.wav
      TAKEVOLPAN 0 1 -1
      SOFFS 0
      PLAYRATE 1 1 0 -1 0 0.0025
      CHANMODE 0
      TAKECOLOR 26284739 R
      GUID {BCD5919E-E3E9-4D78-ADC7-EEF1AA060DAF}
      RECPASS 7
      <SOURCE WAVE
        FILE "03-190401_2314.wav"
      >
    >
    <ITEM
      POSITION 0.56888888888889
      SNAPOFFS 0
      LENGTH 0.37151927437642
      LOOP 1
      ALLTAKES 0
      FADEIN 1 0.01 0 1 0 0
      FADEOUT 1 0.01 0 1 0 0
      MUTE 0
      SEL 0
      IGUID {7FBE4475-27E4-4D5D-AD01-8E61100F0127}
      IID 12
      NAME 03-190401_2312.wav
      VOLPAN 1 0 1 -1
      SOFFS 0
      PLAYRATE 1 1 0 -1 0 0.0025
      CHANMODE 0
      GUID {746B0645-8E57-4D55-A738-8C7740F1F3B5}
      RECPASS 5
      <SOURCE WAVE
        FILE "03-190401_2312.wav"
      >
      TAKE SEL
      NAME 03-190401_2314.wav
      TAKEVOLPAN 0 1 -1
      SOFFS 0.56888888888889
      PLAYRATE 1 1 0 -1 0 0.0025
      CHANMODE 0
      TAKECOLOR 26284739 R
      GUID {7CFD71CB-49F0-4127-80ED-3DD2B9954BAC}
      RECPASS 7
      <SOURCE WAVE
        FILE "03-190401_2314.wav"
      >
    >
    <ITEM
      POSITION 0.94040816326531
      SNAPOFFS 0
      LENGTH 2.1028798185941
      LOOP 1
      ALLTAKES 0
      FADEIN 1 0.01 0 1 0 0
      FADEOUT 1 0.01 0 1 0 0
      MUTE 0
      SEL 0
      IGUID {2D980AEF-E998-4A8B-BAAD-C41245CFE5BD}
      IID 12
      NAME 03-190401_2312-01.wav
      VOLPAN 1 0 1 -1
      SOFFS 0
      PLAYRATE 1 1 0 -1 0 0.0025
      CHANMODE 0
      TAKECOLOR 30578565 R
      GUID {11E7C503-1618-4F1B-A676-8468C4291D1D}
      RECPASS 6
      <SOURCE WAVE
        FILE "03-190401_2312-01.wav"
      >
      TAKE SEL
      NAME 03-190401_2314.wav
      TAKEVOLPAN 0 1 -1
      SOFFS 0.94040816326531
      PLAYRATE 1 1 0 -1 0 0.0025
      CHANMODE 0
      TAKECOLOR 26284739 R
      GUID {A9AB99A6-AD01-4E38-BC38-39C2B93B8089}
      RECPASS 7
      <SOURCE WAVE
        FILE "03-190401_2314.wav"
      >
    >
    <ITEM
      POSITION 16.82104308390023
      SNAPOFFS 0
      LENGTH 28.29165691609977
      LOOP 1
      ALLTAKES 0
      FADEIN 1 0.01 0 1 0 0
      FADEOUT 1 0.01 0 1 0 0
      MUTE 0
      SEL 0
      IGUID {CE2E6B82-89FA-44BE-8365-CB9DB0F3DC0F}
      IID 18
      NAME 03-190401_2316.wav
      VOLPAN 1 0 1 -1
      SOFFS 0
      PLAYRATE 1 1 0 -1 0 0.0025
      CHANMODE 0
      TAKECOLOR 28251004 R
      GUID {40F80441-B5F8-4400-924D-D15C1D762F0A}
      RECPASS 8
      <SOURCE WAVE
        FILE "03-190401_2316.wav"
      >
    >
    <ITEM
      POSITION 46.01181405895692
      SNAPOFFS 0
      LENGTH 2.84263038548753
      LOOP 1
      ALLTAKES 0
      FADEIN 1 0.01 0 1 0 0
      FADEOUT 1 0.01 0 1 0 0
      MUTE 0
      SEL 0
      IGUID {0561AC60-2252-4501-86EA-C8B8B281AF0A}
      IID 16
      NAME 03-190401_2316.wav
      VOLPAN 1 0 1 -1
      SOFFS 29.19077097505669
      PLAYRATE 1 1 0 -1 0 0.0025
      CHANMODE 0
      TAKECOLOR 28251004 R
      GUID {431CDBF0-AAD0-447A-A703-287D16260802}
      RECPASS 8
      <SOURCE WAVE
        FILE "03-190401_2316.wav"
      >
    >
    <ITEM
      POSITION 48.85444444444444
      SNAPOFFS 0
      LENGTH 0.00001
      LOOP 1
      ALLTAKES 0
      FADEIN 1 0 0 1 0 0
      FADEOUT 1 0 0 1 0 0
      MUTE 0
      SEL 0
      IGUID {A5DEF8B1-1494-45B0-8369-B3E1EFE4CD63}
      IID 16
      VOLPAN 1
      TAKE SEL
      NAME 03-190401_2314.wav
      TAKEVOLPAN 0 1 -1
      SOFFS 48.85444444444445
      PLAYRATE 1 1 0 -1 0 0.0025
      CHANMODE 0
      TAKECOLOR 26284739 R
      GUID {BAD44EE6-536D-4A7F-A376-F8BE5EADE371}
      RECPASS 7
      <SOURCE WAVE
        FILE "03-190401_2314.wav"
      >
      TAKE NULL
    >
  >
  <TRACK {98CF6FEC-F86B-4F33-9580-242F85E6D103}
    NAME ""
    PEAKCOL 16576
    BEAT -1
    AUTOMODE 0
    VOLPAN 1 0.656 -1 -1 1
    MUTESOLO 0 0 0
    IPHASE 0
    ISBUS 0 0
    BUSCOMP 0 0
    SHOWINMIX 1 0.6667 0.5 1 0.5 0 0 0
    FREEMODE 0
    SEL 0
    REC 0 0 0 0 0 0 0
    VU 2
    TRACKHEIGHT 0 0
    INQ 0 0 0 0.5 100 0 0 100
    NCHAN 2
    FX 1
    TRACKID {98CF6FEC-F86B-4F33-9580-242F85E6D103}
    PERF 0
    MIDIOUT -1
    MAINSEND 1 0
    <ITEM
      POSITION 3.04328798185941
      SNAPOFFS 0
      LENGTH 42.06941201814059
      LOOP 1
      ALLTAKES 0
      FADEIN 1 0.01 0 1 0 0
      FADEOUT 1 0.01 0 1 0 0
      MUTE 0
      SEL 0
      IGUID {0F1DCE9E-D154-4CB4-9B9D-C06EE9F9D782}
      IID 14
      NAME 03-190401_2314.wav
      VOLPAN 1 0 1 -1
      SOFFS 3.04328798185941
      PLAYRATE 1 1 0 -1 0 0.0025
      CHANMODE 0
      TAKECOLOR 26284739 R
      GUID {7ABBDF6A-0DB7-4738-87D4-A4FE8F2DA8A8}
      RECPASS 7
      <SOURCE WAVE
        FILE "03-190401_2314.wav"
      >
    >
  >
  <TRACK {6DF7031D-90AA-4A77-8232-2688B2FD095D}
    NAME ""
    PEAKCOL 16576
    BEAT -1
    AUTOMODE 0
    VOLPAN 1 0 -1 -1 1
    MUTESOLO 1 0 0
    IPHASE 0
    ISBUS 0 0
    BUSCOMP 0 0
    SHOWINMIX 1 0.6667 0.5 1 0.5 0 0 0
    FREEMODE 0
    SEL 0
    REC 0 0 0 0 0 0 0
    VU 2
    TRACKHEIGHT 0 0
    INQ 0 0 0 0.5 100 0 0 100
    NCHAN 2
    FX 1
    TRACKID {6DF7031D-90AA-4A77-8232-2688B2FD095D}
    PERF 0
    MIDIOUT -1
    MAINSEND 1 0
    <ITEM
      POSITION 10.87852607709751
      SNAPOFFS 0
      LENGTH 207.14668934240362
      LOOP 1
      ALLTAKES 0
      FADEIN 1 0.01 0 1 0 0
      FADEOUT 1 0.01 0 1 0 0
      MUTE 0
      SEL 0
      IGUID {877C003E-68A2-4820-BA60-9F968EA8CFFE}
      IID 6
      NAME 02-190327_2307.wav
      VOLPAN 1 0 1 -1
      SOFFS 0
      PLAYRATE 1 1 0 -1 0 0.0025
      CHANMODE 0
      GUID {A68A6906-2A8D-4CF9-893B-AA43AA3FC4C6}
      RECPASS 1
      <SOURCE WAVE
        FILE "02-190327_2307.wav"
      >
    >
  >
>
